<svg width="56" height="56" viewBox="0 0 56 56" fill="none" xmlns="http://www.w3.org/2000/svg">
<circle opacity="0.6" cx="27.5547" cy="27.5694" r="26.5831" fill="#121823"></circle>
<path fill-rule="evenodd" clip-rule="evenodd" d="M34.7674 19.9863V18.874V13.1414L29.9997 8.09328C29.5957 7.66547 29.1108 7.1521 28.5452 7.1521C28.0989 7.1521 27.703 7.52487 27.3573 7.85028C27.2648 7.93735 27.1759 8.02104 27.0906 8.09328L22.3229 13.1414V18.874V19.9863H23.3735H33.7169H34.7674ZM31.9391 15.5371H29.7573V17.8473H27.5755V15.5371H25.3937V13.227H27.5755V10.9168H29.7573V13.227H31.9391V15.5371ZM20.8684 12.0291C20.5452 11.6869 20.5452 11.0879 20.8684 10.7457L26.2825 5.01307C27.4947 3.64408 29.6765 3.64408 30.9694 5.01307L36.3836 10.7457C36.7068 11.0879 36.7068 11.6869 36.3836 12.0291C36.2219 12.2002 35.9795 12.2858 35.7371 12.2858C35.4947 12.2858 35.2522 12.2002 35.0906 12.0291L29.6765 6.29649C29.1108 5.69756 28.0603 5.69756 27.4947 6.29649L22.0805 12.0291C21.7573 12.3714 21.1916 12.3714 20.8684 12.0291Z" fill="#EDEDED"></path>
<path d="M15.7691 32.415C15.8408 32.4933 15.9027 32.6009 15.9549 32.7378C16.0071 32.8812 16.0331 33.0181 16.0331 33.1486C16.0331 33.3442 15.9745 33.5365 15.8571 33.7256C15.7463 33.9147 15.5637 34.0809 15.3094 34.2244C15.0551 34.3743 14.7226 34.4917 14.3118 34.5765C13.9076 34.6677 13.4088 34.7134 12.8155 34.7134C12.1569 34.7134 11.6125 34.6514 11.1822 34.5276C10.7584 34.4102 10.4193 34.2472 10.1651 34.0385C9.91729 33.8299 9.7445 33.5821 9.6467 33.2953C9.5489 33.0149 9.5 32.7084 9.5 32.3759V30.8698H10.2922V32.2292C10.2922 32.8095 10.4911 33.2333 10.8888 33.5006C11.2865 33.7745 11.9353 33.9114 12.835 33.9114C13.1676 33.9114 13.4838 33.8918 13.7837 33.8527C14.0836 33.8201 14.3444 33.768 14.5661 33.6962C14.7943 33.631 14.9736 33.5463 15.104 33.442C15.2344 33.3376 15.2996 33.217 15.2996 33.0801C15.2996 32.9301 15.2214 32.7965 15.0649 32.6791C14.9149 32.5617 14.7259 32.4607 14.4977 32.3759C14.276 32.2846 14.038 32.2031 13.7837 32.1314C13.5294 32.0597 13.3045 31.9945 13.1089 31.9358V31.1436C13.9369 31.4501 14.7226 31.6033 15.4659 31.6033H16.4537C16.7145 31.6033 16.8449 31.7337 16.8449 31.9945C16.8449 32.1575 16.8123 32.2683 16.7471 32.327C16.6884 32.3857 16.5906 32.415 16.4537 32.415H15.7691ZM16.4435 32.415C16.1827 32.415 16.0523 32.2846 16.0523 32.0238C16.0523 31.8608 16.0849 31.75 16.1501 31.6913C16.2088 31.6326 16.3066 31.6033 16.4435 31.6033H17.5585C17.4867 31.4664 17.4248 31.3164 17.3726 31.1534C17.3205 30.9839 17.2944 30.7915 17.2944 30.5764C17.2944 30.3221 17.3368 30.0711 17.4215 29.8233C17.5063 29.5755 17.6302 29.3571 17.7932 29.168C17.9562 28.9724 18.155 28.8159 18.3898 28.6986C18.631 28.5747 18.9081 28.5128 19.2211 28.5128C19.5797 28.5128 19.8731 28.578 20.1013 28.7084C20.3295 28.8388 20.5088 29.005 20.6392 29.2072C20.7761 29.4093 20.8707 29.6342 20.9228 29.882C20.975 30.1232 21.0011 30.3612 21.0011 30.5959V31.6033H21.7444C22.0052 31.6033 22.1356 31.7337 22.1356 31.9945C22.1356 32.1575 22.103 32.2683 22.0378 32.327C21.9791 32.3857 21.8813 32.415 21.7444 32.415H16.4435ZM18.0572 30.4492C18.0572 30.847 18.1746 31.1404 18.4093 31.3294C18.6441 31.512 18.9309 31.6033 19.27 31.6033H20.2089V30.6253C20.2089 30.4688 20.1926 30.3123 20.16 30.1558C20.1339 29.9928 20.0817 29.8494 20.0035 29.7255C19.9253 29.5951 19.8177 29.4908 19.6808 29.4125C19.5438 29.3278 19.371 29.2854 19.1624 29.2854C18.8168 29.2854 18.5463 29.3995 18.3507 29.6277C18.155 29.8559 18.0572 30.1297 18.0572 30.4492ZM18.693 27.0066C18.693 26.8632 18.7419 26.7426 18.8397 26.6448C18.944 26.5404 19.0679 26.4883 19.2113 26.4883C19.3547 26.4883 19.4754 26.5404 19.5732 26.6448C19.6775 26.7426 19.7297 26.8632 19.7297 27.0066C19.7297 27.1501 19.6775 27.2739 19.5732 27.3783C19.4754 27.4761 19.3547 27.525 19.2113 27.525C19.0679 27.525 18.944 27.4761 18.8397 27.3783C18.7419 27.2739 18.693 27.1501 18.693 27.0066ZM22.0866 31.6033C22.3018 31.6033 22.4843 31.5968 22.6343 31.5837C22.7842 31.5707 22.9016 31.5413 22.9864 31.4957C23.0776 31.4435 23.1428 31.3718 23.182 31.2805C23.2211 31.1827 23.2407 31.0523 23.2407 30.8893V29.1387H24.0426V30.5275C24.0426 30.6905 24.0524 30.8404 24.072 30.9774C24.0915 31.1078 24.1372 31.2186 24.2089 31.3099C24.2806 31.4012 24.3817 31.4729 24.5121 31.525C24.649 31.5772 24.8316 31.6033 25.0598 31.6033C25.2032 31.6033 25.3271 31.5968 25.4314 31.5837C25.5357 31.5707 25.6237 31.5413 25.6955 31.4957C25.7672 31.4435 25.8193 31.3718 25.852 31.2805C25.8911 31.1827 25.9106 31.0523 25.9106 30.8893V29.1387H26.7126V30.5275C26.7126 30.6905 26.7224 30.8404 26.7419 30.9774C26.768 31.1078 26.8137 31.2186 26.8789 31.3099C26.9506 31.4012 27.0451 31.4729 27.1625 31.525C27.2864 31.5772 27.4461 31.6033 27.6417 31.6033C27.7526 31.6033 27.8536 31.5968 27.9449 31.5837C28.0362 31.5707 28.1144 31.5413 28.1796 31.4957C28.2448 31.4435 28.2937 31.3718 28.3263 31.2805C28.3654 31.1827 28.385 31.0523 28.385 30.8893V28.6497H29.187V30.5275C29.187 30.6905 29.1968 30.8404 29.2163 30.9774C29.2424 31.1078 29.288 31.2186 29.3532 31.3099C29.4184 31.4012 29.5065 31.4729 29.6173 31.525C29.7281 31.5772 29.8683 31.6033 30.0379 31.6033C30.2987 31.6033 30.4291 31.7337 30.4291 31.9945C30.4291 32.1575 30.3965 32.2683 30.3313 32.327C30.2726 32.3857 30.1748 32.415 30.0379 32.415C29.7836 32.415 29.5782 32.3564 29.4217 32.239C29.2652 32.1151 29.1609 31.9619 29.1087 31.7793C29.0501 31.9163 28.9686 32.0271 28.8642 32.1119C28.7599 32.1901 28.6491 32.252 28.5317 32.2977C28.4143 32.3433 28.3002 32.3759 28.1894 32.3955C28.0786 32.4085 27.984 32.415 27.9058 32.415C27.6906 32.415 27.5081 32.3955 27.3581 32.3564C27.2147 32.3172 27.094 32.2683 26.9962 32.2097C26.8984 32.1445 26.8202 32.076 26.7615 32.0043C26.7093 31.926 26.667 31.8511 26.6344 31.7793C26.517 32.0467 26.3344 32.2194 26.0867 32.2977C25.8454 32.3759 25.5553 32.415 25.2162 32.415C24.988 32.415 24.7957 32.3987 24.6392 32.3661C24.4892 32.327 24.3654 32.2781 24.2676 32.2194C24.1698 32.1542 24.0915 32.0825 24.0328 32.0043C23.9742 31.926 23.9253 31.8478 23.8861 31.7695C23.8275 31.9065 23.7525 32.0173 23.6612 32.1021C23.5764 32.1803 23.4623 32.2455 23.3189 32.2977C23.182 32.3433 23.0092 32.3759 22.8005 32.3955C22.5984 32.4085 22.3539 32.415 22.067 32.415H21.7443C21.4835 32.415 21.3531 32.2846 21.3531 32.0238C21.3531 31.8608 21.3857 31.75 21.4509 31.6913C21.5096 31.6326 21.6074 31.6033 21.7443 31.6033H22.0866ZM25.1282 27.0066C25.1282 26.8632 25.1771 26.7426 25.2749 26.6448C25.3792 26.5404 25.5031 26.4883 25.6466 26.4883C25.79 26.4883 25.9106 26.5404 26.0084 26.6448C26.1128 26.7426 26.1649 26.8632 26.1649 27.0066C26.1649 27.1501 26.1128 27.2739 26.0084 27.3783C25.9106 27.4761 25.79 27.525 25.6466 27.525C25.5031 27.525 25.3792 27.4761 25.2749 27.3783C25.1771 27.2739 25.1282 27.1501 25.1282 27.0066ZM26.3996 27.0066C26.3996 26.8632 26.4485 26.7426 26.5463 26.6448C26.6507 26.5404 26.7745 26.4883 26.918 26.4883C27.0614 26.4883 27.1821 26.5404 27.2799 26.6448C27.3842 26.7426 27.4363 26.8632 27.4363 27.0066C27.4363 27.1501 27.3842 27.2739 27.2799 27.3783C27.1821 27.4761 27.0614 27.525 26.918 27.525C26.7745 27.525 26.6507 27.4761 26.5463 27.3783C26.4485 27.2739 26.3996 27.1501 26.3996 27.0066ZM25.7835 25.833C25.7835 25.6896 25.8324 25.5689 25.9302 25.4711C26.0345 25.3668 26.1584 25.3147 26.3018 25.3147C26.4453 25.3147 26.5659 25.3668 26.6637 25.4711C26.768 25.5689 26.8202 25.6896 26.8202 25.833C26.8202 25.9764 26.768 26.1003 26.6637 26.2046C26.5659 26.3024 26.4453 26.3513 26.3018 26.3513C26.1584 26.3513 26.0345 26.3024 25.9302 26.2046C25.8324 26.1003 25.7835 25.9764 25.7835 25.833ZM30.044 32.415C29.7832 32.415 29.6528 32.2846 29.6528 32.0238C29.6528 31.8608 29.6854 31.75 29.7506 31.6913C29.8093 31.6326 29.9071 31.6033 30.044 31.6033H30.6993C30.8558 31.6033 30.9895 31.5968 31.1003 31.5837C31.2111 31.5707 31.3024 31.5413 31.3741 31.4957C31.4524 31.4435 31.5078 31.3718 31.5404 31.2805C31.5795 31.1827 31.5991 31.0523 31.5991 30.8893V28.6497H32.4011V30.5275C32.4011 30.6905 32.4108 30.8404 32.4304 30.9774C32.4565 31.1078 32.5021 31.2186 32.5673 31.3099C32.6325 31.4012 32.7205 31.4729 32.8314 31.525C32.9422 31.5772 33.0824 31.6033 33.2519 31.6033C33.5127 31.6033 33.6431 31.7337 33.6431 31.9945C33.6431 32.1575 33.6105 32.2683 33.5453 32.327C33.4867 32.3857 33.3889 32.415 33.2519 32.415C32.9976 32.415 32.7923 32.3564 32.6358 32.239C32.4793 32.1151 32.375 31.9619 32.3228 31.7793C32.2055 32.0467 32.0196 32.2194 31.7653 32.2977C31.5176 32.3759 31.2111 32.415 30.846 32.415H30.044ZM30.8167 27.0066C30.8167 26.8632 30.8656 26.7426 30.9634 26.6448C31.0677 26.5404 31.1916 26.4883 31.335 26.4883C31.4785 26.4883 31.5991 26.5404 31.6969 26.6448C31.8012 26.7426 31.8534 26.8632 31.8534 27.0066C31.8534 27.1501 31.8012 27.2739 31.6969 27.3783C31.5991 27.4761 31.4785 27.525 31.335 27.525C31.1916 27.525 31.0677 27.4761 30.9634 27.3783C30.8656 27.2739 30.8167 27.1501 30.8167 27.0066ZM32.0881 27.0066C32.0881 26.8632 32.137 26.7426 32.2348 26.6448C32.3391 26.5404 32.463 26.4883 32.6064 26.4883C32.7499 26.4883 32.8705 26.5404 32.9683 26.6448C33.0726 26.7426 33.1248 26.8632 33.1248 27.0066C33.1248 27.1501 33.0726 27.2739 32.9683 27.3783C32.8705 27.4761 32.7499 27.525 32.6064 27.525C32.463 27.525 32.3391 27.4761 32.2348 27.3783C32.137 27.2739 32.0881 27.1501 32.0881 27.0066ZM33.5955 31.6033C33.8106 31.6033 33.9932 31.5968 34.1431 31.5837C34.2931 31.5707 34.4105 31.5413 34.4952 31.4957C34.5865 31.4435 34.6517 31.3718 34.6908 31.2805C34.73 31.1827 34.7495 31.0523 34.7495 30.8893V29.1387H35.5515V30.5275C35.5515 30.6905 35.5613 30.8404 35.5808 30.9774C35.6004 31.1078 35.646 31.2186 35.7178 31.3099C35.7895 31.4012 35.8905 31.4729 36.0209 31.525C36.1579 31.5772 36.3404 31.6033 36.5686 31.6033C36.7121 31.6033 36.8359 31.5968 36.9403 31.5837C37.0446 31.5707 37.1326 31.5413 37.2043 31.4957C37.2761 31.4435 37.3282 31.3718 37.3608 31.2805C37.3999 31.1827 37.4195 31.0523 37.4195 30.8893V29.1387H38.2215V30.5275C38.2215 30.6905 38.2313 30.8404 38.2508 30.9774C38.2769 31.1078 38.3225 31.2186 38.3877 31.3099C38.4595 31.4012 38.554 31.4729 38.6714 31.525C38.7952 31.5772 38.955 31.6033 39.1506 31.6033C39.2614 31.6033 39.3625 31.5968 39.4538 31.5837C39.5451 31.5707 39.6233 31.5413 39.6885 31.4957C39.7537 31.4435 39.8026 31.3718 39.8352 31.2805C39.8743 31.1827 39.8939 31.0523 39.8939 30.8893V28.6497H40.6958V30.5275C40.6958 30.6905 40.7056 30.8404 40.7252 30.9774C40.7513 31.1078 40.7969 31.2186 40.8621 31.3099C40.9273 31.4012 41.0153 31.4729 41.1262 31.525C41.237 31.5772 41.3772 31.6033 41.5467 31.6033C41.8075 31.6033 41.9379 31.7337 41.9379 31.9945C41.9379 32.1575 41.9053 32.2683 41.8401 32.327C41.7814 32.3857 41.6836 32.415 41.5467 32.415C41.2924 32.415 41.0871 32.3564 40.9306 32.239C40.7741 32.1151 40.6698 31.9619 40.6176 31.7793C40.5589 31.9163 40.4774 32.0271 40.3731 32.1119C40.2688 32.1901 40.1579 32.252 40.0406 32.2977C39.9232 32.3433 39.8091 32.3759 39.6983 32.3955C39.5874 32.4085 39.4929 32.415 39.4146 32.415C39.1995 32.415 39.0169 32.3955 38.867 32.3564C38.7235 32.3172 38.6029 32.2683 38.5051 32.2097C38.4073 32.1445 38.3291 32.076 38.2704 32.0043C38.2182 31.926 38.1758 31.8511 38.1432 31.7793C38.0259 32.0467 37.8433 32.2194 37.5955 32.2977C37.3543 32.3759 37.0642 32.415 36.7251 32.415C36.4969 32.415 36.3046 32.3987 36.1481 32.3661C35.9981 32.327 35.8742 32.2781 35.7764 32.2194C35.6786 32.1542 35.6004 32.0825 35.5417 32.0043C35.483 31.926 35.4341 31.8478 35.395 31.7695C35.3363 31.9065 35.2613 32.0173 35.1701 32.1021C35.0853 32.1803 34.9712 32.2455 34.8278 32.2977C34.6908 32.3433 34.5181 32.3759 34.3094 32.3955C34.1073 32.4085 33.8628 32.415 33.5759 32.415H33.2532C32.9924 32.415 32.8619 32.2846 32.8619 32.0238C32.8619 31.8608 32.8945 31.75 32.9598 31.6913C33.0184 31.6326 33.1162 31.6033 33.2532 31.6033H33.5955ZM41.5529 32.415C41.2921 32.415 41.1617 32.2846 41.1617 32.0238C41.1617 31.8608 41.1943 31.75 41.2595 31.6913C41.3182 31.6326 41.416 31.6033 41.5529 31.6033H41.9539C42.0321 31.6033 42.1136 31.5935 42.1984 31.5739C42.2832 31.5544 42.3679 31.512 42.4527 31.4468C42.5374 31.3816 42.6189 31.2936 42.6972 31.1827C42.7819 31.0654 42.8602 30.9089 42.9319 30.7133C43.0819 30.296 43.2384 29.9602 43.4014 29.7059C43.5709 29.4451 43.7404 29.2463 43.9099 29.1093C44.086 28.9659 44.262 28.8714 44.4381 28.8257C44.6206 28.7801 44.7999 28.7573 44.976 28.7573C45.2237 28.7573 45.4519 28.8062 45.6606 28.904C45.8692 28.9952 46.0485 29.1289 46.1985 29.305C46.355 29.4745 46.4756 29.6799 46.5603 29.9211C46.6516 30.1558 46.6973 30.4199 46.6973 30.7133C46.6973 31.274 46.5603 31.7206 46.2865 32.0532C46.0192 32.3792 45.6052 32.5422 45.0444 32.5422C44.738 32.5422 44.4283 32.49 44.1153 32.3857C43.8023 32.2814 43.4796 32.1053 43.1471 31.8576C43.0623 31.988 42.9743 32.0923 42.883 32.1705C42.7982 32.2423 42.707 32.2977 42.6092 32.3368C42.5114 32.3694 42.4103 32.3922 42.306 32.4053C42.2017 32.4118 42.0908 32.415 41.9735 32.415H41.5529ZM45.8855 30.684C45.8855 30.5405 45.8627 30.4003 45.8171 30.2634C45.7779 30.1265 45.716 30.0059 45.6312 29.9015C45.553 29.7972 45.4552 29.7157 45.3378 29.657C45.2205 29.5918 45.0835 29.5592 44.9271 29.5592C44.6532 29.5592 44.4022 29.6799 44.174 29.9211C43.9458 30.1623 43.7306 30.5862 43.5285 31.1925C43.7697 31.349 44.0077 31.4761 44.2425 31.5739C44.4837 31.6652 44.7282 31.7109 44.976 31.7109C45.2498 31.7109 45.4682 31.6326 45.6312 31.4761C45.8008 31.3197 45.8855 31.0556 45.8855 30.684Z" fill="#EDEDED"></path>
<path d="M12.8118 41.9288C12.8118 42.2027 12.8965 42.4244 13.066 42.5939C13.2421 42.7634 13.5192 42.8482 13.8973 42.8482C14.0408 42.8482 14.194 42.8319 14.357 42.7993C14.5265 42.7667 14.6765 42.7243 14.8069 42.6721V40.9313H13.9462C13.6333 40.9313 13.366 41.0128 13.1443 41.1758C12.9226 41.3322 12.8118 41.5833 12.8118 41.9288ZM13.8289 43.6795C13.6724 43.6795 13.4898 43.6567 13.2812 43.611C13.0791 43.5654 12.8835 43.4839 12.6944 43.3665C12.5118 43.2426 12.3553 43.0731 12.2249 42.8579C12.0945 42.6363 12.0293 42.3494 12.0293 41.9973C12.0293 41.6452 12.0913 41.3518 12.2152 41.1171C12.339 40.8758 12.4988 40.6802 12.6944 40.5303C12.89 40.3803 13.1052 40.2727 13.3399 40.2075C13.5811 40.1423 13.8191 40.1097 14.0538 40.1097H15.6089V42.9166C15.6089 43.1905 15.6513 43.3861 15.736 43.5034C15.8208 43.6143 16.0099 43.6697 16.3033 43.6697H16.538C16.7988 43.6697 16.9292 43.8001 16.9292 44.0609C16.9292 44.2239 16.8966 44.3347 16.8314 44.3934C16.7727 44.4521 16.6749 44.4814 16.538 44.4814H16.2055C16.0359 44.4814 15.8729 44.4684 15.7165 44.4423C15.5665 44.4097 15.4296 44.3576 15.3057 44.2858C15.1883 44.2076 15.0873 44.1065 15.0025 43.9827C14.9177 43.8588 14.8623 43.699 14.8362 43.5034C14.6928 43.5556 14.5298 43.598 14.3472 43.6306C14.1712 43.6632 13.9984 43.6795 13.8289 43.6795ZM13.0269 38.3297C13.0269 38.1863 13.0758 38.0657 13.1736 37.9679C13.2779 37.8635 13.4018 37.8114 13.5453 37.8114C13.6887 37.8114 13.8093 37.8635 13.9071 37.9679C14.0115 38.0657 14.0636 38.1863 14.0636 38.3297C14.0636 38.4732 14.0115 38.5971 13.9071 38.7014C13.8093 38.7992 13.6887 38.8481 13.5453 38.8481C13.4018 38.8481 13.2779 38.7992 13.1736 38.7014C13.0758 38.5971 13.0269 38.4732 13.0269 38.3297ZM14.2983 38.3297C14.2983 38.1863 14.3472 38.0657 14.445 37.9679C14.5494 37.8635 14.6732 37.8114 14.8167 37.8114C14.9601 37.8114 15.0807 37.8635 15.1785 37.9679C15.2829 38.0657 15.335 38.1863 15.335 38.3297C15.335 38.4732 15.2829 38.5971 15.1785 38.7014C15.0807 38.7992 14.9601 38.8481 14.8167 38.8481C14.6732 38.8481 14.5494 38.7992 14.445 38.7014C14.3472 38.5971 14.2983 38.4732 14.2983 38.3297ZM16.5367 44.4814C16.2759 44.4814 16.1455 44.351 16.1455 44.0902C16.1455 43.9272 16.1781 43.8164 16.2433 43.7577C16.302 43.699 16.3998 43.6697 16.5367 43.6697H18.7274C19.086 43.6697 19.3436 43.6143 19.5001 43.5034C19.6566 43.3861 19.7348 43.2328 19.7348 43.0438C19.7348 42.8677 19.6631 42.6721 19.5196 42.457C19.3762 42.2353 19.1773 42.0103 18.923 41.7821C18.6688 41.5539 18.3688 41.3322 18.0233 41.1171C17.6842 40.9019 17.3158 40.7063 16.9181 40.5303C16.9246 40.452 16.9377 40.3705 16.9572 40.2858C16.9833 40.201 17.0094 40.1228 17.0355 40.051C17.0681 39.9793 17.0974 39.9206 17.1235 39.875C17.1561 39.8228 17.1887 39.7902 17.2213 39.7772L20.8791 38.2026V39.0143L18.0037 40.2858C18.6948 40.6313 19.2425 41.0062 19.6468 41.4105C20.0575 41.8082 20.3314 42.2059 20.4683 42.6037C20.5466 42.8319 20.6215 43.0144 20.6933 43.1513C20.765 43.2883 20.84 43.3958 20.9182 43.4741C20.9964 43.5523 21.0845 43.6045 21.1823 43.6306C21.2801 43.6567 21.3909 43.6697 21.5148 43.6697C21.7756 43.6697 21.906 43.8001 21.906 44.0609C21.906 44.2239 21.8734 44.3347 21.8082 44.3934C21.7495 44.4521 21.6517 44.4814 21.5148 44.4814C21.3844 44.4814 21.2605 44.4749 21.1431 44.4619C21.0258 44.4423 20.9149 44.4065 20.8106 44.3543C20.7128 44.3021 20.6215 44.2272 20.5368 44.1294C20.452 44.025 20.3705 43.8881 20.2923 43.7186H20.2531C20.1293 44.025 19.9206 44.2304 19.6272 44.3347C19.3338 44.4325 18.9752 44.4814 18.5514 44.4814H16.5367ZM21.5127 44.4814C21.2519 44.4814 21.1215 44.351 21.1215 44.0902C21.1215 43.9272 21.1541 43.8164 21.2193 43.7577C21.278 43.699 21.3758 43.6697 21.5127 43.6697H22.2951C22.4125 43.6697 22.5168 43.6632 22.6081 43.6501C22.6994 43.6371 22.7744 43.6078 22.833 43.5621C22.8982 43.51 22.9471 43.4382 22.9797 43.3469C23.0189 43.2491 23.0384 43.1187 23.0384 42.9557V37.4984H23.8404V42.5939C23.8404 42.9264 23.9056 43.1905 24.036 43.3861C24.1729 43.5752 24.3881 43.6697 24.6815 43.6697C24.9423 43.6697 25.0727 43.8001 25.0727 44.0609C25.0727 44.2239 25.0401 44.3347 24.9749 44.3934C24.9162 44.4521 24.8184 44.4814 24.6815 44.4814C24.4272 44.4814 24.2218 44.4228 24.0653 44.3054C23.9154 44.1815 23.8143 44.0283 23.7622 43.8457C23.6448 44.1131 23.4557 44.2858 23.1949 44.3641C22.9406 44.4423 22.6114 44.4814 22.2071 44.4814H21.5127ZM30.6984 44.4814C30.4507 44.4814 30.2355 44.4325 30.0529 44.3347C29.8704 44.2369 29.7237 44.0707 29.6128 43.836V43.8164C29.4889 44.0642 29.3064 44.2598 29.0651 44.4032C28.8304 44.5401 28.5337 44.6086 28.1751 44.6086C27.8687 44.6086 27.559 44.5564 27.246 44.4521C26.9331 44.3478 26.6103 44.1717 26.2778 43.924C26.193 44.0544 26.105 44.1587 26.0137 44.2369C25.929 44.3087 25.8377 44.3641 25.7399 44.4032C25.6421 44.4358 25.541 44.4586 25.4367 44.4717C25.3324 44.4782 25.2215 44.4814 25.1042 44.4814H24.6836C24.4228 44.4814 24.2924 44.351 24.2924 44.0902C24.2924 43.9272 24.325 43.8164 24.3902 43.7577C24.4489 43.699 24.5467 43.6697 24.6836 43.6697H25.0846C25.1629 43.6697 25.2444 43.6599 25.3291 43.6404C25.4139 43.6208 25.4986 43.5784 25.5834 43.5132C25.6682 43.448 25.7497 43.36 25.8279 43.2491C25.9127 43.1318 25.9909 42.9753 26.0626 42.7797C26.2126 42.3624 26.3691 42.0266 26.5321 41.7723C26.7016 41.5115 26.8711 41.3127 27.0406 41.1758C27.2167 41.0323 27.3927 40.9378 27.5688 40.8921C27.7513 40.8465 27.9306 40.8237 28.1067 40.8237C28.3544 40.8237 28.5826 40.8726 28.7913 40.9704C28.9999 41.0617 29.1792 41.1953 29.3292 41.3714C29.4857 41.5409 29.6063 41.7463 29.6911 41.9875C29.7823 42.2222 29.828 42.4863 29.828 42.7797C29.828 42.8253 29.8247 42.871 29.8182 42.9166C29.8182 42.9557 29.8182 42.9949 29.8182 43.034C29.8834 43.2426 29.978 43.4024 30.1018 43.5132C30.2322 43.6175 30.4311 43.6697 30.6984 43.6697C30.9592 43.6697 31.0896 43.8001 31.0896 44.0609C31.0896 44.2239 31.057 44.3347 30.9918 44.3934C30.9331 44.4521 30.8353 44.4814 30.6984 44.4814ZM29.0162 42.7504C29.0162 42.6069 28.9934 42.4667 28.9478 42.3298C28.9087 42.1929 28.8467 42.0723 28.762 41.9679C28.6837 41.8636 28.5859 41.7821 28.4685 41.7234C28.3512 41.6582 28.2143 41.6256 28.0578 41.6256C27.7839 41.6256 27.5329 41.7463 27.3047 41.9875C27.0765 42.2288 26.8613 42.6526 26.6592 43.2589C26.9005 43.4154 27.1384 43.5426 27.3732 43.6404C27.6144 43.7316 27.8589 43.7773 28.1067 43.7773C28.3805 43.7773 28.5989 43.699 28.762 43.5426C28.9315 43.3861 29.0162 43.122 29.0162 42.7504ZM36.7155 44.4814C36.4677 44.4814 36.2526 44.4325 36.07 44.3347C35.8875 44.2369 35.7408 44.0707 35.6299 43.836V43.8164C35.506 44.0642 35.3235 44.2598 35.0822 44.4032C34.8475 44.5401 34.5508 44.6086 34.1922 44.6086C33.8858 44.6086 33.5761 44.5564 33.2631 44.4521C32.9501 44.3478 32.6274 44.1717 32.2949 43.924C32.2101 44.0544 32.1221 44.1587 32.0308 44.2369C31.9461 44.3087 31.8548 44.3641 31.757 44.4032C31.6592 44.4358 31.5581 44.4586 31.4538 44.4717C31.3495 44.4782 31.2386 44.4814 31.1213 44.4814H30.7007C30.4399 44.4814 30.3095 44.351 30.3095 44.0902C30.3095 43.9272 30.3421 43.8164 30.4073 43.7577C30.466 43.699 30.5638 43.6697 30.7007 43.6697H31.1017C31.1799 43.6697 31.2614 43.6599 31.3462 43.6404C31.431 43.6208 31.5157 43.5784 31.6005 43.5132C31.6852 43.448 31.7668 43.36 31.845 43.2491C31.9298 43.1318 32.008 42.9753 32.0797 42.7797C32.2297 42.3624 32.3862 42.0266 32.5492 41.7723C32.7187 41.5115 32.8882 41.3127 33.0577 41.1758C33.2338 41.0323 33.4098 40.9378 33.5859 40.8921C33.7684 40.8465 33.9477 40.8237 34.1238 40.8237C34.3715 40.8237 34.5997 40.8726 34.8084 40.9704C35.017 41.0617 35.1963 41.1953 35.3463 41.3714C35.5028 41.5409 35.6234 41.7463 35.7082 41.9875C35.7994 42.2222 35.8451 42.4863 35.8451 42.7797C35.8451 42.8253 35.8418 42.871 35.8353 42.9166C35.8353 42.9557 35.8353 42.9949 35.8353 43.034C35.9005 43.2426 35.995 43.4024 36.1189 43.5132C36.2493 43.6175 36.4482 43.6697 36.7155 43.6697C36.9763 43.6697 37.1067 43.8001 37.1067 44.0609C37.1067 44.2239 37.0741 44.3347 37.0089 44.3934C36.9502 44.4521 36.8524 44.4814 36.7155 44.4814ZM35.0333 42.7504C35.0333 42.6069 35.0105 42.4667 34.9649 42.3298C34.9257 42.1929 34.8638 42.0723 34.779 41.9679C34.7008 41.8636 34.603 41.7821 34.4856 41.7234C34.3683 41.6582 34.2313 41.6256 34.0749 41.6256C33.801 41.6256 33.55 41.7463 33.3218 41.9875C33.0936 42.2288 32.8784 42.6526 32.6763 43.2589C32.9175 43.4154 33.1555 43.5426 33.3903 43.6404C33.6315 43.7316 33.876 43.7773 34.1238 43.7773C34.3976 43.7773 34.616 43.699 34.779 43.5426C34.9486 43.3861 35.0333 43.122 35.0333 42.7504ZM36.7178 44.4814C36.457 44.4814 36.3266 44.351 36.3266 44.0902C36.3266 43.9272 36.3592 43.8164 36.4244 43.7577C36.4831 43.699 36.5809 43.6697 36.7178 43.6697H38.2435V37.4984H39.0455V44.4814H36.7178ZM41.2129 37.4984V44.4814H40.4109V37.4984H41.2129Z" fill="#EDEDED"></path>
</svg>