<svg width="857" height="738" viewBox="0 0 857 738" fill="none" xmlns="http://www.w3.org/2000/svg">
<path d="M15.0754 122H3.95143C3.25543 122 2.67343 121.952 2.20543 121.856C1.74943 121.76 1.37743 121.61 1.08943 121.406C0.81343 121.19 0.61543 120.92 0.49543 120.596C0.37543 120.26 0.31543 119.852 0.31543 119.372L0.31543 116.582H1.79143V118.832C1.79143 119.204 1.83343 119.504 1.91743 119.732C2.01343 119.948 2.16943 120.116 2.38543 120.236C2.60143 120.344 2.89543 120.416 3.26743 120.452C3.63943 120.488 4.11343 120.506 4.68943 120.506H13.5994L13.5994 109.148H15.0754L15.0754 122ZM9.58543 116.69H6.29143V115.862H7.10143C6.93343 115.586 6.84943 115.286 6.84943 114.962C6.84943 114.698 6.89143 114.464 6.97543 114.26C7.05943 114.056 7.17343 113.888 7.31743 113.756C7.46143 113.624 7.62343 113.522 7.80343 113.45C7.99543 113.378 8.18743 113.342 8.37943 113.342C8.58343 113.342 8.75743 113.354 8.90143 113.378C9.05743 113.402 9.17143 113.444 9.24343 113.504V114.35C9.00343 114.242 8.74543 114.188 8.46943 114.188C8.18143 114.188 7.97143 114.272 7.83943 114.44C7.70743 114.608 7.64143 114.794 7.64143 114.998C7.64143 115.238 7.71943 115.442 7.87543 115.61C8.03143 115.778 8.26543 115.862 8.57743 115.862H9.58543V116.69ZM23.9431 122C23.8951 122.732 23.7391 123.338 23.4751 123.818C23.2231 124.298 22.8751 124.682 22.4311 124.97C21.9871 125.258 21.4531 125.462 20.8291 125.582C20.2171 125.702 19.5331 125.762 18.7771 125.762H18.0211V124.268H18.5791C19.1431 124.268 19.6591 124.238 20.1271 124.178C20.5951 124.13 20.9971 124.022 21.3331 123.854C21.6811 123.698 21.9511 123.47 22.1431 123.17C22.3471 122.87 22.4551 122.48 22.4671 122H20.4331C19.9411 122 19.4851 121.946 19.0651 121.838C18.6571 121.73 18.2971 121.556 17.9851 121.316C17.6851 121.064 17.4451 120.74 17.2651 120.344C17.0971 119.948 17.0131 119.456 17.0131 118.868C17.0131 118.376 17.0911 117.896 17.2471 117.428C17.4151 116.96 17.6491 116.546 17.9491 116.186C18.2611 115.826 18.6331 115.538 19.0651 115.322C19.5091 115.094 20.0131 114.98 20.5771 114.98C21.2011 114.98 21.7291 115.094 22.1611 115.322C22.5931 115.538 22.9411 115.85 23.2051 116.258C23.4811 116.666 23.6791 117.158 23.7991 117.734C23.9191 118.31 23.9791 118.952 23.9791 119.66V120.506H25.2391C25.7191 120.506 25.9591 120.746 25.9591 121.226C25.9591 121.526 25.8991 121.73 25.7791 121.838C25.6711 121.946 25.4911 122 25.2391 122H23.9431ZM18.4531 118.724C18.4531 119.336 18.6271 119.786 18.9751 120.074C19.3351 120.362 19.8571 120.506 20.5411 120.506H22.4671V119.318C22.4671 118.43 22.3171 117.722 22.0171 117.194C21.7171 116.666 21.2011 116.402 20.4691 116.402C20.1211 116.402 19.8211 116.474 19.5691 116.618C19.3171 116.75 19.1071 116.93 18.9391 117.158C18.7831 117.374 18.6631 117.62 18.5791 117.896C18.4951 118.172 18.4531 118.448 18.4531 118.724ZM25.2412 122C24.7612 122 24.5212 121.76 24.5212 121.28C24.5212 120.98 24.5812 120.776 24.7012 120.668C24.8092 120.56 24.9892 120.506 25.2412 120.506H26.4472C26.7352 120.506 26.9812 120.494 27.1852 120.47C27.3892 120.446 27.5572 120.392 27.6892 120.308C27.8332 120.212 27.9352 120.08 27.9952 119.912C28.0672 119.732 28.1032 119.492 28.1032 119.192V115.07H29.5792V118.526C29.5792 118.826 29.5972 119.102 29.6332 119.354C29.6812 119.594 29.7652 119.798 29.8852 119.966C30.0052 120.134 30.1672 120.266 30.3712 120.362C30.5752 120.458 30.8332 120.506 31.1452 120.506C31.6252 120.506 31.8652 120.746 31.8652 121.226C31.8652 121.526 31.8052 121.73 31.6852 121.838C31.5772 121.946 31.3972 122 31.1452 122C30.6772 122 30.2992 121.892 30.0112 121.676C29.7232 121.448 29.5312 121.166 29.4352 120.83C29.2192 121.322 28.8772 121.64 28.4092 121.784C27.9532 121.928 27.3892 122 26.7172 122H25.2412ZM27.5632 124.682C27.5632 124.418 27.6532 124.19 27.8332 123.998C28.0252 123.818 28.2532 123.728 28.5172 123.728C28.7812 123.728 29.0032 123.818 29.1832 123.998C29.3752 124.19 29.4712 124.418 29.4712 124.682C29.4712 124.946 29.3752 125.168 29.1832 125.348C29.0032 125.54 28.7812 125.636 28.5172 125.636C28.2532 125.636 28.0252 125.54 27.8332 125.348C27.6532 125.168 27.5632 124.946 27.5632 124.682ZM31.1475 122C30.6675 122 30.4275 121.76 30.4275 121.28C30.4275 120.98 30.4875 120.776 30.6075 120.668C30.7155 120.56 30.8955 120.506 31.1475 120.506H33.9555V115.07H35.4315V122H31.1475ZM32.3535 112.046C32.3535 111.782 32.4435 111.56 32.6235 111.38C32.8155 111.188 33.0435 111.092 33.3075 111.092C33.5715 111.092 33.7935 111.188 33.9735 111.38C34.1655 111.56 34.2615 111.782 34.2615 112.046C34.2615 112.31 34.1655 112.538 33.9735 112.73C33.7935 112.91 33.5715 113 33.3075 113C33.0435 113 32.8155 112.91 32.6235 112.73C32.4435 112.538 32.3535 112.31 32.3535 112.046ZM34.6935 112.046C34.6935 111.782 34.7835 111.56 34.9635 111.38C35.1555 111.188 35.3835 111.092 35.6475 111.092C35.9115 111.092 36.1335 111.188 36.3135 111.38C36.5055 111.56 36.6015 111.782 36.6015 112.046C36.6015 112.31 36.5055 112.538 36.3135 112.73C36.1335 112.91 35.9115 113 35.6475 113C35.3835 113 35.1555 112.91 34.9635 112.73C34.7835 112.538 34.6935 112.31 34.6935 112.046Z" fill="#FFFEFE" fill-opacity="0.7"></path>
<path d="M81.7842 54H70.8762C70.1802 54 69.5982 53.952 69.1302 53.856C68.6742 53.76 68.3022 53.61 68.0142 53.406C67.7382 53.19 67.5402 52.92 67.4202 52.596C67.3002 52.26 67.2402 51.852 67.2402 51.372V48.582H68.7162V50.832C68.7162 51.204 68.7582 51.504 68.8422 51.732C68.9382 51.948 69.0942 52.116 69.3102 52.236C69.5262 52.344 69.8202 52.416 70.1922 52.452C70.5642 52.488 71.0382 52.506 71.6142 52.506H80.3082V47.07H81.7842V54ZM72.4962 45.108C72.4962 44.844 72.5862 44.622 72.7662 44.442C72.9582 44.25 73.1862 44.154 73.4502 44.154C73.7142 44.154 73.9362 44.25 74.1162 44.442C74.3082 44.622 74.4042 44.844 74.4042 45.108C74.4042 45.372 74.3082 45.6 74.1162 45.792C73.9362 45.972 73.7142 46.062 73.4502 46.062C73.1862 46.062 72.9582 45.972 72.7662 45.792C72.5862 45.6 72.4962 45.372 72.4962 45.108ZM74.8362 45.108C74.8362 44.844 74.9262 44.622 75.1062 44.442C75.2982 44.25 75.5262 44.154 75.7902 44.154C76.0542 44.154 76.2762 44.25 76.4562 44.442C76.6482 44.622 76.7442 44.844 76.7442 45.108C76.7442 45.372 76.6482 45.6 76.4562 45.792C76.2762 45.972 76.0542 46.062 75.7902 46.062C75.5262 46.062 75.2982 45.972 75.1062 45.792C74.9262 45.6 74.8362 45.372 74.8362 45.108ZM88.065 53.226C88.065 53.526 88.005 53.73 87.885 53.838C87.777 53.946 87.597 54 87.345 54H86.877C86.493 54 86.139 53.964 85.815 53.892C85.503 53.808 85.233 53.67 85.005 53.478C84.789 53.286 84.615 53.034 84.483 52.722C84.363 52.398 84.303 51.996 84.303 51.516V41.148H85.779V51.12C85.779 51.624 85.857 51.984 86.013 52.2C86.169 52.404 86.517 52.506 87.057 52.506H87.345C87.825 52.506 88.065 52.746 88.065 53.226ZM87.3496 54C86.8696 54 86.6296 53.76 86.6296 53.28C86.6296 52.98 86.6896 52.776 86.8096 52.668C86.9176 52.56 87.0976 52.506 87.3496 52.506H90.1576V47.07H91.6336V54H87.3496ZM88.0696 56.718C88.0696 56.454 88.1596 56.226 88.3396 56.034C88.5316 55.854 88.7596 55.764 89.0236 55.764C89.2876 55.764 89.5096 55.854 89.6896 56.034C89.8816 56.226 89.9776 56.454 89.9776 56.718C89.9776 56.982 89.8816 57.204 89.6896 57.384C89.5096 57.576 89.2876 57.672 89.0236 57.672C88.7596 57.672 88.5316 57.576 88.3396 57.384C88.1596 57.204 88.0696 56.982 88.0696 56.718ZM90.4096 56.718C90.4096 56.454 90.4996 56.226 90.6796 56.034C90.8716 55.854 91.0996 55.764 91.3636 55.764C91.6276 55.764 91.8496 55.854 92.0296 56.034C92.2216 56.226 92.3176 56.454 92.3176 56.718C92.3176 56.982 92.2216 57.204 92.0296 57.384C91.8496 57.576 91.6276 57.672 91.3636 57.672C91.0996 57.672 90.8716 57.576 90.6796 57.384C90.4996 57.204 90.4096 56.982 90.4096 56.718ZM98.4847 54C98.0887 54 97.7587 53.91 97.4947 53.73C97.2307 53.55 97.0327 53.34 96.9007 53.1C96.9007 53.964 96.8467 54.69 96.7387 55.278C96.6307 55.878 96.4327 56.358 96.1447 56.718C95.8687 57.09 95.4787 57.354 94.9747 57.51C94.4707 57.678 93.8167 57.762 93.0127 57.762V56.268C93.6007 56.268 94.0567 56.202 94.3807 56.07C94.7167 55.95 94.9627 55.746 95.1187 55.458C95.2867 55.182 95.3827 54.822 95.4067 54.378C95.4427 53.946 95.4607 53.418 95.4607 52.794V47.97H96.9187V50.526C96.9187 51.138 97.0267 51.624 97.2427 51.984C97.4707 52.332 97.8847 52.506 98.4847 52.506C98.9647 52.506 99.2047 52.746 99.2047 53.226C99.2047 53.526 99.1447 53.73 99.0247 53.838C98.9167 53.946 98.7367 54 98.4847 54ZM98.4766 54C97.9966 54 97.7566 53.76 97.7566 53.28C97.7566 52.98 97.8166 52.776 97.9366 52.668C98.0446 52.56 98.2246 52.506 98.4766 52.506L100.529 52.506C100.397 52.254 100.283 51.978 100.187 51.678C100.091 51.366 100.043 51.012 100.043 50.616C100.043 50.148 100.121 49.686 100.277 49.23C100.433 48.774 100.661 48.372 100.961 48.024C101.261 47.664 101.627 47.376 102.059 47.16C102.503 46.932 103.013 46.818 103.589 46.818C104.249 46.818 104.789 46.938 105.209 47.178C105.629 47.418 105.959 47.724 106.199 48.096C106.451 48.468 106.625 48.882 106.721 49.338C106.817 49.782 106.865 50.22 106.865 50.652V52.506H108.233C108.713 52.506 108.953 52.746 108.953 53.226C108.953 53.526 108.893 53.73 108.773 53.838C108.665 53.946 108.485 54 108.233 54H98.4766ZM101.447 50.382C101.447 51.114 101.663 51.654 102.095 52.002C102.527 52.338 103.055 52.506 103.679 52.506H105.407V50.706C105.407 50.418 105.377 50.13 105.317 49.842C105.269 49.542 105.173 49.278 105.029 49.05C104.885 48.81 104.687 48.618 104.435 48.474C104.183 48.318 103.865 48.24 103.481 48.24C102.845 48.24 102.347 48.45 101.987 48.87C101.627 49.29 101.447 49.794 101.447 50.382ZM101.213 44.046C101.213 43.782 101.303 43.56 101.483 43.38C101.675 43.188 101.903 43.092 102.167 43.092C102.431 43.092 102.653 43.188 102.833 43.38C103.025 43.56 103.121 43.782 103.121 44.046C103.121 44.31 103.025 44.538 102.833 44.73C102.653 44.91 102.431 45 102.167 45C101.903 45 101.675 44.91 101.483 44.73C101.303 44.538 101.213 44.31 101.213 44.046ZM103.553 44.046C103.553 43.782 103.643 43.56 103.823 43.38C104.015 43.188 104.243 43.092 104.507 43.092C104.771 43.092 104.993 43.188 105.173 43.38C105.365 43.56 105.461 43.782 105.461 44.046C105.461 44.31 105.365 44.538 105.173 44.73C104.993 44.91 104.771 45 104.507 45C104.243 45 104.015 44.91 103.823 44.73C103.643 44.538 103.553 44.31 103.553 44.046ZM108.232 54C107.752 54 107.512 53.76 107.512 53.28C107.512 52.98 107.572 52.776 107.692 52.668C107.8 52.56 107.98 52.506 108.232 52.506H111.04V41.148H112.516V54H108.232ZM116.506 41.148V54H115.03V41.148H116.506Z" fill="#FFFEFE" fill-opacity="0.7"></path>
<path d="M216.852 24.382C216.852 25.114 217.068 25.654 217.5 26.002C217.932 26.338 218.46 26.506 219.084 26.506H220.812V24.706C220.812 24.418 220.782 24.13 220.722 23.842C220.674 23.542 220.578 23.278 220.434 23.05C220.29 22.81 220.092 22.618 219.84 22.474C219.588 22.318 219.27 22.24 218.886 22.24C218.25 22.24 217.752 22.45 217.392 22.87C217.032 23.29 216.852 23.794 216.852 24.382ZM215.934 26.506C215.802 26.254 215.688 25.978 215.592 25.678C215.496 25.366 215.448 25.012 215.448 24.616C215.448 24.148 215.526 23.686 215.682 23.23C215.838 22.774 216.066 22.372 216.366 22.024C216.666 21.664 217.032 21.376 217.464 21.16C217.908 20.932 218.418 20.818 218.994 20.818C219.654 20.818 220.194 20.938 220.614 21.178C221.034 21.418 221.364 21.724 221.604 22.096C221.856 22.468 222.03 22.882 222.126 23.338C222.222 23.782 222.27 24.22 222.27 24.652V28H208.95C208.254 28 207.672 27.952 207.204 27.856C206.748 27.76 206.376 27.61 206.088 27.406C205.812 27.19 205.614 26.92 205.494 26.596C205.374 26.26 205.314 25.852 205.314 25.372V22.582H206.79V24.832C206.79 25.204 206.832 25.504 206.916 25.732C207.012 25.948 207.168 26.116 207.384 26.236C207.6 26.344 207.894 26.416 208.266 26.452C208.638 26.488 209.112 26.506 209.688 26.506H215.934ZM218.148 18.046C218.148 17.782 218.238 17.56 218.418 17.38C218.61 17.188 218.838 17.092 219.102 17.092C219.366 17.092 219.588 17.188 219.768 17.38C219.96 17.56 220.056 17.782 220.056 18.046C220.056 18.31 219.96 18.538 219.768 18.73C219.588 18.91 219.366 19 219.102 19C218.838 19 218.61 18.91 218.418 18.73C218.238 18.538 218.148 18.31 218.148 18.046ZM230.964 28C230.916 28.732 230.76 29.338 230.496 29.818C230.244 30.298 229.896 30.682 229.452 30.97C229.008 31.258 228.474 31.462 227.85 31.582C227.238 31.702 226.554 31.762 225.798 31.762H225.042V30.268H225.6C226.164 30.268 226.68 30.238 227.148 30.178C227.616 30.13 228.018 30.022 228.354 29.854C228.702 29.698 228.972 29.47 229.164 29.17C229.368 28.87 229.476 28.48 229.488 28H227.454C226.962 28 226.506 27.946 226.086 27.838C225.678 27.73 225.318 27.556 225.006 27.316C224.706 27.064 224.466 26.74 224.286 26.344C224.118 25.948 224.034 25.456 224.034 24.868C224.034 24.376 224.112 23.896 224.268 23.428C224.436 22.96 224.67 22.546 224.97 22.186C225.282 21.826 225.654 21.538 226.086 21.322C226.53 21.094 227.034 20.98 227.598 20.98C228.222 20.98 228.75 21.094 229.182 21.322C229.614 21.538 229.962 21.85 230.226 22.258C230.502 22.666 230.7 23.158 230.82 23.734C230.94 24.31 231 24.952 231 25.66V26.506H232.26C232.74 26.506 232.98 26.746 232.98 27.226C232.98 27.526 232.92 27.73 232.8 27.838C232.692 27.946 232.512 28 232.26 28H230.964ZM225.474 24.724C225.474 25.336 225.648 25.786 225.996 26.074C226.356 26.362 226.878 26.506 227.562 26.506H229.488V25.318C229.488 24.43 229.338 23.722 229.038 23.194C228.738 22.666 228.222 22.402 227.49 22.402C227.142 22.402 226.842 22.474 226.59 22.618C226.338 22.75 226.128 22.93 225.96 23.158C225.804 23.374 225.684 23.62 225.6 23.896C225.516 24.172 225.474 24.448 225.474 24.724ZM232.262 28C231.782 28 231.542 27.76 231.542 27.28C231.542 26.98 231.602 26.776 231.722 26.668C231.83 26.56 232.01 26.506 232.262 26.506L239.48 26.506C239.48 25.738 239.378 25.09 239.174 24.562C238.97 24.034 238.694 23.608 238.346 23.284C237.998 22.948 237.59 22.708 237.122 22.564C236.666 22.408 236.174 22.33 235.646 22.33C235.298 22.33 234.926 22.366 234.53 22.438C234.146 22.498 233.828 22.564 233.576 22.636V21.196C233.816 21.124 234.134 21.046 234.53 20.962C234.926 20.866 235.358 20.818 235.826 20.818C236.726 20.818 237.5 20.968 238.148 21.268C238.796 21.568 239.33 21.982 239.75 22.51C240.182 23.026 240.5 23.632 240.704 24.328C240.908 25.012 241.016 25.738 241.028 26.506H242.144C242.624 26.506 242.864 26.746 242.864 27.226C242.864 27.526 242.804 27.73 242.684 27.838C242.576 27.946 242.396 28 242.144 28L232.262 28ZM236.024 30.7C236.024 30.436 236.114 30.208 236.294 30.016C236.486 29.836 236.714 29.746 236.978 29.746C237.242 29.746 237.464 29.836 237.644 30.016C237.836 30.208 237.932 30.436 237.932 30.7C237.932 30.964 237.836 31.186 237.644 31.366C237.464 31.558 237.242 31.654 236.978 31.654C236.714 31.654 236.486 31.558 236.294 31.366C236.114 31.186 236.024 30.964 236.024 30.7ZM242.158 28C241.678 28 241.438 27.76 241.438 27.28C241.438 26.98 241.498 26.776 241.618 26.668C241.726 26.56 241.906 26.506 242.158 26.506H244.966V15.148H246.442V28H242.158ZM250.431 15.148V28H248.955V15.148H250.431Z" fill="#FFFEFE" fill-opacity="0.7"></path>
<path d="M392.008 72C391.612 72 391.282 71.91 391.018 71.73C390.754 71.55 390.556 71.34 390.424 71.1C390.424 71.964 390.37 72.69 390.262 73.278C390.154 73.878 389.956 74.358 389.668 74.718C389.392 75.09 389.002 75.354 388.498 75.51C387.994 75.678 387.34 75.762 386.536 75.762V74.268C387.124 74.268 387.58 74.202 387.904 74.07C388.24 73.95 388.486 73.746 388.642 73.458C388.81 73.182 388.906 72.822 388.93 72.378C388.966 71.946 388.984 71.418 388.984 70.794V65.97H390.442V68.526C390.442 69.138 390.55 69.624 390.766 69.984C390.994 70.332 391.408 70.506 392.008 70.506C392.488 70.506 392.728 70.746 392.728 71.226C392.728 71.526 392.668 71.73 392.548 71.838C392.44 71.946 392.26 72 392.008 72ZM392 72C391.52 72 391.28 71.76 391.28 71.28C391.28 70.98 391.34 70.776 391.46 70.668C391.568 70.56 391.748 70.506 392 70.506H394.214C393.998 70.278 393.818 69.984 393.674 69.624C393.53 69.264 393.458 68.856 393.458 68.4C393.458 67.776 393.572 67.236 393.8 66.78C394.04 66.324 394.346 65.946 394.718 65.646C395.102 65.346 395.522 65.124 395.978 64.98C396.446 64.836 396.914 64.764 397.382 64.764C397.802 64.764 398.168 64.788 398.48 64.836C398.792 64.884 399.014 64.938 399.146 64.998V66.6C398.918 66.528 398.672 66.468 398.408 66.42C398.144 66.36 397.82 66.33 397.436 66.33C396.68 66.33 396.08 66.516 395.636 66.888C395.192 67.26 394.97 67.77 394.97 68.418C394.97 69.03 395.162 69.534 395.546 69.93C395.93 70.314 396.512 70.506 397.292 70.506H399.92V72H392ZM406.598 72C406.202 72 405.872 71.91 405.608 71.73C405.344 71.55 405.146 71.34 405.014 71.1C405.014 71.964 404.96 72.69 404.852 73.278C404.744 73.878 404.546 74.358 404.258 74.718C403.982 75.09 403.592 75.354 403.088 75.51C402.584 75.678 401.93 75.762 401.126 75.762V74.268C401.714 74.268 402.17 74.202 402.494 74.07C402.83 73.95 403.076 73.746 403.232 73.458C403.4 73.182 403.496 72.822 403.52 72.378C403.556 71.946 403.574 71.418 403.574 70.794V65.97H405.032V68.526C405.032 69.138 405.14 69.624 405.356 69.984C405.584 70.332 405.998 70.506 406.598 70.506C407.078 70.506 407.318 70.746 407.318 71.226C407.318 71.526 407.258 71.73 407.138 71.838C407.03 71.946 406.85 72 406.598 72ZM406.59 72C406.11 72 405.87 71.76 405.87 71.28C405.87 70.98 405.93 70.776 406.05 70.668C406.158 70.56 406.338 70.506 406.59 70.506H408.804C408.588 70.278 408.408 69.984 408.264 69.624C408.12 69.264 408.048 68.856 408.048 68.4C408.048 67.776 408.162 67.236 408.39 66.78C408.63 66.324 408.936 65.946 409.308 65.646C409.692 65.346 410.112 65.124 410.568 64.98C411.036 64.836 411.504 64.764 411.972 64.764C412.392 64.764 412.758 64.788 413.07 64.836C413.382 64.884 413.604 64.938 413.736 64.998V66.6C413.508 66.528 413.262 66.468 412.998 66.42C412.734 66.36 412.41 66.33 412.026 66.33C411.27 66.33 410.67 66.516 410.226 66.888C409.782 67.26 409.56 67.77 409.56 68.418C409.56 69.03 409.752 69.534 410.136 69.93C410.52 70.314 411.102 70.506 411.882 70.506H414.51V72H406.59Z" fill="#FFFEFE" fill-opacity="0.7"></path>
<path d="M307.984 176C307.936 177.512 307.486 178.658 306.634 179.438C305.782 180.218 304.588 180.608 303.052 180.608C302.236 180.608 301.516 180.494 300.892 180.266C300.28 180.038 299.764 179.714 299.344 179.294C298.936 178.886 298.624 178.394 298.408 177.818C298.204 177.254 298.102 176.624 298.102 175.928V173.156H299.56V175.622C299.56 177.962 300.736 179.132 303.088 179.132C304.3 179.132 305.176 178.868 305.716 178.34C306.256 177.824 306.526 176.966 306.526 175.766V163.148H307.984V174.506H309.388C309.868 174.506 310.108 174.746 310.108 175.226C310.108 175.526 310.048 175.73 309.928 175.838C309.82 175.946 309.64 176 309.388 176H307.984ZM309.387 176C308.907 176 308.667 175.76 308.667 175.28C308.667 174.98 308.727 174.776 308.847 174.668C308.955 174.56 309.135 174.506 309.387 174.506H312.195V169.07H313.671V176H309.387ZM314.607 166.982H310.683V166.028H311.601C311.325 165.692 311.187 165.284 311.187 164.804C311.187 164.468 311.241 164.18 311.349 163.94C311.457 163.688 311.601 163.484 311.781 163.328C311.961 163.16 312.165 163.034 312.393 162.95C312.621 162.866 312.861 162.824 313.113 162.824C313.365 162.824 313.581 162.842 313.761 162.878C313.953 162.914 314.085 162.944 314.157 162.968V163.94C313.881 163.832 313.569 163.778 313.221 163.778C312.837 163.778 312.555 163.892 312.375 164.12C312.207 164.336 312.123 164.576 312.123 164.84C312.123 165.176 312.225 165.458 312.429 165.686C312.633 165.914 312.945 166.028 313.365 166.028H314.607V166.982ZM319.946 175.226C319.946 175.526 319.886 175.73 319.766 175.838C319.658 175.946 319.478 176 319.226 176H318.758C318.374 176 318.02 175.964 317.696 175.892C317.384 175.808 317.114 175.67 316.886 175.478C316.67 175.286 316.496 175.034 316.364 174.722C316.244 174.398 316.184 173.996 316.184 173.516V163.148H317.66V173.12C317.66 173.624 317.738 173.984 317.894 174.2C318.05 174.404 318.398 174.506 318.938 174.506H319.226C319.706 174.506 319.946 174.746 319.946 175.226ZM326.448 174.506C326.448 173.738 326.346 173.09 326.142 172.562C325.938 172.034 325.662 171.608 325.314 171.284C324.966 170.948 324.558 170.708 324.09 170.564C323.634 170.408 323.142 170.33 322.614 170.33C322.266 170.33 321.894 170.366 321.498 170.438C321.114 170.498 320.796 170.564 320.544 170.636V169.196C320.784 169.124 321.102 169.046 321.498 168.962C321.894 168.866 322.326 168.818 322.794 168.818C323.706 168.818 324.492 168.974 325.152 169.286C325.812 169.598 326.352 170.024 326.772 170.564C327.192 171.092 327.498 171.716 327.69 172.436C327.894 173.144 327.996 173.894 327.996 174.686V176H319.23C318.75 176 318.51 175.76 318.51 175.28C318.51 174.98 318.57 174.776 318.69 174.668C318.798 174.56 318.978 174.506 319.23 174.506H326.448Z" fill="#FFFEFE" fill-opacity="0.7"></path>
<path d="M385.299 262C384.843 262 384.447 261.91 384.111 261.73C383.775 261.55 383.505 261.244 383.301 260.812V260.776C383.073 261.232 382.737 261.592 382.293 261.856C381.861 262.108 381.315 262.234 380.655 262.234C380.091 262.234 379.521 262.138 378.945 261.946C378.369 261.754 377.775 261.43 377.163 260.974C376.839 261.046 376.581 261.148 376.389 261.28C376.197 261.4 376.053 261.568 375.957 261.784C375.861 261.988 375.801 262.246 375.777 262.558C375.753 262.882 375.741 263.272 375.741 263.728V269.2H374.229V263.692C374.229 263.08 374.259 262.552 374.319 262.108C374.391 261.664 374.517 261.28 374.697 260.956C374.889 260.62 375.147 260.332 375.471 260.092C375.807 259.852 376.239 259.642 376.767 259.462C376.911 258.658 377.127 257.986 377.415 257.446C377.715 256.906 378.039 256.474 378.387 256.15C378.735 255.826 379.095 255.598 379.467 255.466C379.851 255.334 380.205 255.268 380.529 255.268C380.985 255.268 381.405 255.358 381.789 255.538C382.173 255.706 382.503 255.952 382.779 256.276C383.067 256.588 383.289 256.966 383.445 257.41C383.613 257.842 383.697 258.328 383.697 258.868C383.697 258.952 383.691 259.036 383.679 259.12C383.679 259.192 383.679 259.264 383.679 259.336C383.799 259.72 383.973 260.014 384.201 260.218C384.441 260.41 384.807 260.506 385.299 260.506C385.779 260.506 386.019 260.746 386.019 261.226C386.019 261.526 385.959 261.73 385.839 261.838C385.731 261.946 385.551 262 385.299 262ZM382.203 258.814C382.203 258.55 382.161 258.292 382.077 258.04C382.005 257.788 381.891 257.566 381.735 257.374C381.591 257.182 381.411 257.032 381.195 256.924C380.979 256.804 380.727 256.744 380.439 256.744C379.935 256.744 379.449 256.978 378.981 257.446C378.513 257.914 378.141 258.682 377.865 259.75C378.309 260.038 378.747 260.272 379.179 260.452C379.623 260.62 380.073 260.704 380.529 260.704C381.033 260.704 381.435 260.56 381.735 260.272C382.047 259.984 382.203 259.498 382.203 258.814ZM385.303 262C384.823 262 384.583 261.76 384.583 261.28C384.583 260.98 384.643 260.776 384.763 260.668C384.871 260.56 385.051 260.506 385.303 260.506H386.509C386.797 260.506 387.043 260.494 387.247 260.47C387.451 260.446 387.619 260.392 387.751 260.308C387.895 260.212 387.997 260.08 388.057 259.912C388.129 259.732 388.165 259.492 388.165 259.192V255.07H389.641V258.526C389.641 258.826 389.659 259.102 389.695 259.354C389.743 259.594 389.827 259.798 389.947 259.966C390.067 260.134 390.229 260.266 390.433 260.362C390.637 260.458 390.895 260.506 391.207 260.506C391.687 260.506 391.927 260.746 391.927 261.226C391.927 261.526 391.867 261.73 391.747 261.838C391.639 261.946 391.459 262 391.207 262C390.739 262 390.361 261.892 390.073 261.676C389.785 261.448 389.593 261.166 389.497 260.83C389.281 261.322 388.939 261.64 388.471 261.784C388.015 261.928 387.451 262 386.779 262H385.303ZM386.725 264.718C386.725 264.454 386.815 264.226 386.995 264.034C387.187 263.854 387.415 263.764 387.679 263.764C387.943 263.764 388.165 263.854 388.345 264.034C388.537 264.226 388.633 264.454 388.633 264.718C388.633 264.982 388.537 265.204 388.345 265.384C388.165 265.576 387.943 265.672 387.679 265.672C387.415 265.672 387.187 265.576 386.995 265.384C386.815 265.204 386.725 264.982 386.725 264.718ZM389.065 264.718C389.065 264.454 389.155 264.226 389.335 264.034C389.527 263.854 389.755 263.764 390.019 263.764C390.283 263.764 390.505 263.854 390.685 264.034C390.877 264.226 390.973 264.454 390.973 264.718C390.973 264.982 390.877 265.204 390.685 265.384C390.505 265.576 390.283 265.672 390.019 265.672C389.755 265.672 389.527 265.576 389.335 265.384C389.155 265.204 389.065 264.982 389.065 264.718ZM397.401 262C397.029 262 396.723 261.97 396.483 261.91C396.243 261.838 396.045 261.748 395.889 261.64C395.745 261.532 395.625 261.406 395.529 261.262C395.445 261.118 395.367 260.974 395.295 260.83C395.187 261.082 395.043 261.286 394.863 261.442C394.683 261.586 394.455 261.7 394.179 261.784C393.903 261.868 393.567 261.928 393.171 261.964C392.787 261.988 392.331 262 391.803 262H391.209C390.729 262 390.489 261.76 390.489 261.28C390.489 260.98 390.549 260.776 390.669 260.668C390.777 260.56 390.957 260.506 391.209 260.506H391.839C392.235 260.506 392.571 260.494 392.847 260.47C393.123 260.446 393.339 260.392 393.495 260.308C393.663 260.212 393.783 260.08 393.855 259.912C393.927 259.732 393.963 259.492 393.963 259.192V255.97H395.439V258.526C395.439 258.826 395.451 259.102 395.475 259.354C395.499 259.594 395.553 259.798 395.637 259.966C395.733 260.134 395.865 260.266 396.033 260.362C396.201 260.458 396.429 260.506 396.717 260.506C396.945 259.846 397.257 259.18 397.653 258.508C398.061 257.824 398.541 257.212 399.093 256.672C399.657 256.12 400.293 255.676 401.001 255.34C401.709 254.992 402.477 254.818 403.305 254.818C404.517 254.818 405.453 255.178 406.113 255.898C406.785 256.618 407.121 257.638 407.121 258.958V260.506H408.489C408.969 260.506 409.209 260.746 409.209 261.226C409.209 261.526 409.149 261.73 409.029 261.838C408.921 261.946 408.741 262 408.489 262H397.401ZM405.645 260.506V259.3C405.645 258.868 405.597 258.472 405.501 258.112C405.417 257.74 405.273 257.422 405.069 257.158C404.865 256.894 404.595 256.69 404.259 256.546C403.935 256.402 403.539 256.33 403.071 256.33C402.495 256.33 401.955 256.456 401.451 256.708C400.959 256.96 400.503 257.284 400.083 257.68C399.675 258.076 399.321 258.526 399.021 259.03C398.721 259.522 398.481 260.014 398.301 260.506H405.645ZM408.488 262C408.008 262 407.768 261.76 407.768 261.28C407.768 260.98 407.828 260.776 407.948 260.668C408.056 260.56 408.236 260.506 408.488 260.506H410.54C410.408 260.254 410.294 259.978 410.198 259.678C410.102 259.366 410.054 259.012 410.054 258.616C410.054 258.148 410.132 257.686 410.288 257.23C410.444 256.774 410.672 256.372 410.972 256.024C411.272 255.664 411.638 255.376 412.07 255.16C412.514 254.932 413.024 254.818 413.6 254.818C414.26 254.818 414.8 254.938 415.22 255.178C415.64 255.418 415.97 255.724 416.21 256.096C416.462 256.468 416.636 256.882 416.732 257.338C416.828 257.782 416.876 258.22 416.876 258.652V260.506H418.244C418.724 260.506 418.964 260.746 418.964 261.226C418.964 261.526 418.904 261.73 418.784 261.838C418.676 261.946 418.496 262 418.244 262H408.488ZM411.458 258.382C411.458 259.114 411.674 259.654 412.106 260.002C412.538 260.338 413.066 260.506 413.69 260.506H415.418V258.706C415.418 258.418 415.388 258.13 415.328 257.842C415.28 257.542 415.184 257.278 415.04 257.05C414.896 256.81 414.698 256.618 414.446 256.474C414.194 256.318 413.876 256.24 413.492 256.24C412.856 256.24 412.358 256.45 411.998 256.87C411.638 257.29 411.458 257.794 411.458 258.382ZM411.224 252.046C411.224 251.782 411.314 251.56 411.494 251.38C411.686 251.188 411.914 251.092 412.178 251.092C412.442 251.092 412.664 251.188 412.844 251.38C413.036 251.56 413.132 251.782 413.132 252.046C413.132 252.31 413.036 252.538 412.844 252.73C412.664 252.91 412.442 253 412.178 253C411.914 253 411.686 252.91 411.494 252.73C411.314 252.538 411.224 252.31 411.224 252.046ZM413.564 252.046C413.564 251.782 413.654 251.56 413.834 251.38C414.026 251.188 414.254 251.092 414.518 251.092C414.782 251.092 415.004 251.188 415.184 251.38C415.376 251.56 415.472 251.782 415.472 252.046C415.472 252.31 415.376 252.538 415.184 252.73C415.004 252.91 414.782 253 414.518 253C414.254 253 414.026 252.91 413.834 252.73C413.654 252.538 413.564 252.31 413.564 252.046ZM418.244 262C417.764 262 417.524 261.76 417.524 261.28C417.524 260.98 417.584 260.776 417.704 260.668C417.812 260.56 417.992 260.506 418.244 260.506H421.052V249.148H422.528V262H418.244ZM426.517 249.148V262H425.041V249.148H426.517Z" fill="#FFFEFE" fill-opacity="0.7"></path>
<path d="M200.587 337.302C200.587 337.806 200.743 338.214 201.055 338.526C201.379 338.838 201.889 338.994 202.585 338.994C202.849 338.994 203.131 338.964 203.431 338.904C203.743 338.844 204.019 338.766 204.259 338.67V335.466H202.675C202.099 335.466 201.607 335.616 201.199 335.916C200.791 336.204 200.587 336.666 200.587 337.302ZM202.459 340.524C202.171 340.524 201.835 340.482 201.451 340.398C201.079 340.314 200.719 340.164 200.371 339.948C200.035 339.72 199.747 339.408 199.507 339.012C199.267 338.604 199.147 338.076 199.147 337.428C199.147 336.78 199.261 336.24 199.489 335.808C199.717 335.364 200.011 335.004 200.371 334.728C200.731 334.452 201.127 334.254 201.559 334.134C202.003 334.014 202.441 333.954 202.873 333.954H205.735V339.12C205.735 339.624 205.813 339.984 205.969 340.2C206.125 340.404 206.473 340.506 207.013 340.506H207.445C207.925 340.506 208.165 340.746 208.165 341.226C208.165 341.526 208.105 341.73 207.985 341.838C207.877 341.946 207.697 342 207.445 342H206.833C206.521 342 206.221 341.976 205.933 341.928C205.657 341.868 205.405 341.772 205.177 341.64C204.961 341.496 204.775 341.31 204.619 341.082C204.463 340.854 204.361 340.56 204.313 340.2C204.049 340.296 203.749 340.374 203.413 340.434C203.089 340.494 202.771 340.524 202.459 340.524ZM200.983 330.678C200.983 330.414 201.073 330.192 201.253 330.012C201.445 329.82 201.673 329.724 201.937 329.724C202.201 329.724 202.423 329.82 202.603 330.012C202.795 330.192 202.891 330.414 202.891 330.678C202.891 330.942 202.795 331.17 202.603 331.362C202.423 331.542 202.201 331.632 201.937 331.632C201.673 331.632 201.445 331.542 201.253 331.362C201.073 331.17 200.983 330.942 200.983 330.678ZM203.323 330.678C203.323 330.414 203.413 330.192 203.593 330.012C203.785 329.82 204.013 329.724 204.277 329.724C204.541 329.724 204.763 329.82 204.943 330.012C205.135 330.192 205.231 330.414 205.231 330.678C205.231 330.942 205.135 331.17 204.943 331.362C204.763 331.542 204.541 331.632 204.277 331.632C204.013 331.632 203.785 331.542 203.593 331.362C203.413 331.17 203.323 330.942 203.323 330.678ZM207.442 342C206.962 342 206.722 341.76 206.722 341.28C206.722 340.98 206.782 340.776 206.902 340.668C207.01 340.56 207.19 340.506 207.442 340.506H208.648C208.936 340.506 209.182 340.494 209.386 340.47C209.59 340.446 209.758 340.392 209.89 340.308C210.034 340.212 210.136 340.08 210.196 339.912C210.268 339.732 210.304 339.492 210.304 339.192V335.07H211.78V338.526C211.78 338.826 211.798 339.102 211.834 339.354C211.882 339.594 211.966 339.798 212.086 339.966C212.206 340.134 212.368 340.266 212.572 340.362C212.776 340.458 213.034 340.506 213.346 340.506C213.826 340.506 214.066 340.746 214.066 341.226C214.066 341.526 214.006 341.73 213.886 341.838C213.778 341.946 213.598 342 213.346 342C212.878 342 212.5 341.892 212.212 341.676C211.924 341.448 211.732 341.166 211.636 340.83C211.42 341.322 211.078 341.64 210.61 341.784C210.154 341.928 209.59 342 208.918 342H207.442ZM210.142 332.046C210.142 331.782 210.232 331.56 210.412 331.38C210.604 331.188 210.832 331.092 211.096 331.092C211.36 331.092 211.582 331.188 211.762 331.38C211.954 331.56 212.05 331.782 212.05 332.046C212.05 332.31 211.954 332.538 211.762 332.73C211.582 332.91 211.36 333 211.096 333C210.832 333 210.604 332.91 210.412 332.73C210.232 332.538 210.142 332.31 210.142 332.046ZM213.349 342C212.869 342 212.629 341.76 212.629 341.28C212.629 340.98 212.689 340.776 212.809 340.668C212.917 340.56 213.097 340.506 213.349 340.506H216.157V335.07H217.633V342H213.349ZM214.069 344.718C214.069 344.454 214.159 344.226 214.339 344.034C214.531 343.854 214.759 343.764 215.023 343.764C215.287 343.764 215.509 343.854 215.689 344.034C215.881 344.226 215.977 344.454 215.977 344.718C215.977 344.982 215.881 345.204 215.689 345.384C215.509 345.576 215.287 345.672 215.023 345.672C214.759 345.672 214.531 345.576 214.339 345.384C214.159 345.204 214.069 344.982 214.069 344.718ZM216.409 344.718C216.409 344.454 216.499 344.226 216.679 344.034C216.871 343.854 217.099 343.764 217.363 343.764C217.627 343.764 217.849 343.854 218.029 344.034C218.221 344.226 218.317 344.454 218.317 344.718C218.317 344.982 218.221 345.204 218.029 345.384C217.849 345.576 217.627 345.672 217.363 345.672C217.099 345.672 216.871 345.576 216.679 345.384C216.499 345.204 216.409 344.982 216.409 344.718ZM227.31 342C226.818 342 226.404 341.898 226.068 341.694C225.732 341.49 225.396 341.124 225.06 340.596C224.928 340.92 224.754 341.178 224.538 341.37C224.334 341.562 224.1 341.706 223.836 341.802C223.584 341.886 223.314 341.94 223.026 341.964C222.738 341.988 222.45 342 222.162 342H219.426V340.506H222.648C223.152 340.506 223.536 340.446 223.8 340.326C224.076 340.194 224.214 340.008 224.214 339.768C224.214 339.54 224.154 339.312 224.034 339.084C223.914 338.856 223.764 338.61 223.584 338.346L221.676 335.52L223.062 334.656L225.222 338.238C225.462 338.634 225.672 338.976 225.852 339.264C226.032 339.552 226.2 339.786 226.356 339.966C226.524 340.146 226.68 340.284 226.824 340.38C226.98 340.464 227.142 340.506 227.31 340.506C227.79 340.506 228.03 340.746 228.03 341.226C228.03 341.526 227.97 341.73 227.85 341.838C227.742 341.946 227.562 342 227.31 342ZM238.376 342C237.92 342 237.524 341.91 237.188 341.73C236.852 341.55 236.582 341.244 236.378 340.812V340.776C236.15 341.232 235.814 341.592 235.37 341.856C234.938 342.108 234.392 342.234 233.732 342.234C233.168 342.234 232.598 342.138 232.022 341.946C231.446 341.754 230.852 341.43 230.24 340.974C230.084 341.214 229.922 341.406 229.754 341.55C229.598 341.682 229.43 341.784 229.25 341.856C229.07 341.916 228.884 341.958 228.692 341.982C228.5 341.994 228.296 342 228.08 342H227.306C226.826 342 226.586 341.76 226.586 341.28C226.586 340.98 226.646 340.776 226.766 340.668C226.874 340.56 227.054 340.506 227.306 340.506H228.044C228.188 340.506 228.338 340.488 228.494 340.452C228.65 340.416 228.806 340.338 228.962 340.218C229.118 340.098 229.268 339.936 229.412 339.732C229.568 339.516 229.712 339.228 229.844 338.868C230.12 338.1 230.408 337.482 230.708 337.014C231.02 336.534 231.332 336.168 231.644 335.916C231.968 335.652 232.292 335.478 232.616 335.394C232.952 335.31 233.282 335.268 233.606 335.268C234.062 335.268 234.482 335.358 234.866 335.538C235.25 335.706 235.58 335.952 235.856 336.276C236.144 336.588 236.366 336.966 236.522 337.41C236.69 337.842 236.774 338.328 236.774 338.868C236.774 338.952 236.768 339.036 236.756 339.12C236.756 339.192 236.756 339.264 236.756 339.336C236.876 339.72 237.05 340.014 237.278 340.218C237.518 340.41 237.884 340.506 238.376 340.506C238.856 340.506 239.096 340.746 239.096 341.226C239.096 341.526 239.036 341.73 238.916 341.838C238.808 341.946 238.628 342 238.376 342ZM235.28 338.814C235.28 338.55 235.238 338.292 235.154 338.04C235.082 337.788 234.968 337.566 234.812 337.374C234.668 337.182 234.488 337.032 234.272 336.924C234.056 336.804 233.804 336.744 233.516 336.744C233.012 336.744 232.55 336.966 232.13 337.41C231.71 337.854 231.314 338.634 230.942 339.75C231.386 340.038 231.824 340.272 232.256 340.452C232.7 340.62 233.15 340.704 233.606 340.704C234.11 340.704 234.512 340.56 234.812 340.272C235.124 339.984 235.28 339.498 235.28 338.814ZM238.38 342C237.9 342 237.66 341.76 237.66 341.28C237.66 340.98 237.72 340.776 237.84 340.668C237.948 340.56 238.128 340.506 238.38 340.506H241.188V329.148H242.664V342H238.38ZM246.653 329.148V342H245.177V329.148H246.653Z" fill="#FFFEFE" fill-opacity="0.7"></path>
<path d="M228.515 483.302C228.515 483.806 228.671 484.214 228.983 484.526C229.307 484.838 229.817 484.994 230.513 484.994C230.777 484.994 231.059 484.964 231.359 484.904C231.671 484.844 231.947 484.766 232.187 484.67V481.466H230.603C230.027 481.466 229.535 481.616 229.127 481.916C228.719 482.204 228.515 482.666 228.515 483.302ZM230.387 486.524C230.099 486.524 229.763 486.482 229.379 486.398C229.007 486.314 228.647 486.164 228.299 485.948C227.963 485.72 227.675 485.408 227.435 485.012C227.195 484.604 227.075 484.076 227.075 483.428C227.075 482.78 227.189 482.24 227.417 481.808C227.645 481.364 227.939 481.004 228.299 480.728C228.659 480.452 229.055 480.254 229.487 480.134C229.931 480.014 230.369 479.954 230.801 479.954H233.663V485.12C233.663 485.624 233.741 485.984 233.897 486.2C234.053 486.404 234.401 486.506 234.941 486.506H235.373C235.853 486.506 236.093 486.746 236.093 487.226C236.093 487.526 236.033 487.73 235.913 487.838C235.805 487.946 235.625 488 235.373 488H234.761C234.449 488 234.149 487.976 233.861 487.928C233.585 487.868 233.333 487.772 233.105 487.64C232.889 487.496 232.703 487.31 232.547 487.082C232.391 486.854 232.289 486.56 232.241 486.2C231.977 486.296 231.677 486.374 231.341 486.434C231.017 486.494 230.699 486.524 230.387 486.524ZM228.911 476.678C228.911 476.414 229.001 476.192 229.181 476.012C229.373 475.82 229.601 475.724 229.865 475.724C230.129 475.724 230.351 475.82 230.531 476.012C230.723 476.192 230.819 476.414 230.819 476.678C230.819 476.942 230.723 477.17 230.531 477.362C230.351 477.542 230.129 477.632 229.865 477.632C229.601 477.632 229.373 477.542 229.181 477.362C229.001 477.17 228.911 476.942 228.911 476.678ZM231.251 476.678C231.251 476.414 231.341 476.192 231.521 476.012C231.713 475.82 231.941 475.724 232.205 475.724C232.469 475.724 232.691 475.82 232.871 476.012C233.063 476.192 233.159 476.414 233.159 476.678C233.159 476.942 233.063 477.17 232.871 477.362C232.691 477.542 232.469 477.632 232.205 477.632C231.941 477.632 231.713 477.542 231.521 477.362C231.341 477.17 231.251 476.942 231.251 476.678ZM235.37 488C234.89 488 234.65 487.76 234.65 487.28C234.65 486.98 234.71 486.776 234.83 486.668C234.938 486.56 235.118 486.506 235.37 486.506H236.108C236.252 486.506 236.402 486.488 236.558 486.452C236.714 486.416 236.87 486.338 237.026 486.218C237.182 486.098 237.332 485.936 237.476 485.732C237.632 485.516 237.776 485.228 237.908 484.868C238.184 484.1 238.472 483.482 238.772 483.014C239.084 482.534 239.396 482.168 239.708 481.916C240.032 481.652 240.356 481.478 240.68 481.394C241.016 481.31 241.346 481.268 241.67 481.268C242.126 481.268 242.546 481.358 242.93 481.538C243.314 481.706 243.644 481.952 243.92 482.276C244.208 482.588 244.43 482.966 244.586 483.41C244.754 483.842 244.838 484.328 244.838 484.868C244.838 485.9 244.586 486.722 244.082 487.334C243.59 487.934 242.828 488.234 241.796 488.234C241.232 488.234 240.662 488.138 240.086 487.946C239.51 487.754 238.916 487.43 238.304 486.974C238.148 487.214 237.986 487.406 237.818 487.55C237.662 487.682 237.494 487.784 237.314 487.856C237.134 487.916 236.948 487.958 236.756 487.982C236.564 487.994 236.36 488 236.144 488H235.37ZM243.344 484.814C243.344 484.55 243.302 484.292 243.218 484.04C243.146 483.788 243.032 483.566 242.876 483.374C242.732 483.182 242.552 483.032 242.336 482.924C242.12 482.804 241.868 482.744 241.58 482.744C241.076 482.744 240.614 482.966 240.194 483.41C239.774 483.854 239.378 484.634 239.006 485.75C239.45 486.038 239.888 486.272 240.32 486.452C240.764 486.62 241.214 486.704 241.67 486.704C242.174 486.704 242.576 486.56 242.876 486.272C243.188 485.984 243.344 485.498 243.344 484.814ZM251.339 488C250.943 488 250.613 487.91 250.349 487.73C250.085 487.55 249.887 487.34 249.755 487.1C249.755 487.964 249.701 488.69 249.593 489.278C249.485 489.878 249.287 490.358 248.999 490.718C248.723 491.09 248.333 491.354 247.829 491.51C247.325 491.678 246.671 491.762 245.867 491.762V490.268C246.455 490.268 246.911 490.202 247.235 490.07C247.571 489.95 247.817 489.746 247.973 489.458C248.141 489.182 248.237 488.822 248.261 488.378C248.297 487.946 248.315 487.418 248.315 486.794V481.97H249.773V484.526C249.773 485.138 249.881 485.624 250.097 485.984C250.325 486.332 250.739 486.506 251.339 486.506C251.819 486.506 252.059 486.746 252.059 487.226C252.059 487.526 251.999 487.73 251.879 487.838C251.771 487.946 251.591 488 251.339 488ZM251.331 488C250.851 488 250.611 487.76 250.611 487.28C250.611 486.98 250.671 486.776 250.791 486.668C250.899 486.56 251.079 486.506 251.331 486.506H255.363C256.023 486.506 256.497 486.404 256.785 486.2C257.073 485.984 257.217 485.702 257.217 485.354C257.217 485.03 257.085 484.67 256.821 484.274C256.557 483.866 256.191 483.452 255.723 483.032C255.255 482.612 254.703 482.204 254.067 481.808C253.443 481.412 252.765 481.052 252.033 480.728C252.045 480.584 252.069 480.434 252.105 480.278C252.153 480.122 252.201 479.978 252.249 479.846C252.309 479.714 252.363 479.606 252.411 479.522C252.471 479.426 252.531 479.366 252.591 479.342L259.323 476.444V477.938L254.031 480.278C255.303 480.914 256.311 481.604 257.055 482.348C257.811 483.08 258.315 483.812 258.567 484.544C258.711 484.964 258.849 485.3 258.981 485.552C259.113 485.804 259.251 486.002 259.395 486.146C259.539 486.29 259.701 486.386 259.881 486.434C260.061 486.482 260.265 486.506 260.493 486.506C260.973 486.506 261.213 486.746 261.213 487.226C261.213 487.526 261.153 487.73 261.033 487.838C260.925 487.946 260.745 488 260.493 488C260.253 488 260.025 487.988 259.809 487.964C259.593 487.928 259.389 487.862 259.197 487.766C259.017 487.67 258.849 487.532 258.693 487.352C258.537 487.16 258.387 486.908 258.243 486.596H258.171C257.943 487.16 257.559 487.538 257.019 487.73C256.479 487.91 255.819 488 255.039 488H251.331ZM271.559 488C271.103 488 270.707 487.91 270.371 487.73C270.035 487.55 269.765 487.244 269.561 486.812V486.776C269.333 487.232 268.997 487.592 268.553 487.856C268.121 488.108 267.575 488.234 266.915 488.234C266.351 488.234 265.781 488.138 265.205 487.946C264.629 487.754 264.035 487.43 263.423 486.974C263.267 487.214 263.105 487.406 262.937 487.55C262.781 487.682 262.613 487.784 262.433 487.856C262.253 487.916 262.067 487.958 261.875 487.982C261.683 487.994 261.479 488 261.263 488H260.489C260.009 488 259.769 487.76 259.769 487.28C259.769 486.98 259.829 486.776 259.949 486.668C260.057 486.56 260.237 486.506 260.489 486.506H261.227C261.371 486.506 261.521 486.488 261.677 486.452C261.833 486.416 261.989 486.338 262.145 486.218C262.301 486.098 262.451 485.936 262.595 485.732C262.751 485.516 262.895 485.228 263.027 484.868C263.303 484.1 263.591 483.482 263.891 483.014C264.203 482.534 264.515 482.168 264.827 481.916C265.151 481.652 265.475 481.478 265.799 481.394C266.135 481.31 266.465 481.268 266.789 481.268C267.245 481.268 267.665 481.358 268.049 481.538C268.433 481.706 268.763 481.952 269.039 482.276C269.327 482.588 269.549 482.966 269.705 483.41C269.873 483.842 269.957 484.328 269.957 484.868C269.957 484.952 269.951 485.036 269.939 485.12C269.939 485.192 269.939 485.264 269.939 485.336C270.059 485.72 270.233 486.014 270.461 486.218C270.701 486.41 271.067 486.506 271.559 486.506C272.039 486.506 272.279 486.746 272.279 487.226C272.279 487.526 272.219 487.73 272.099 487.838C271.991 487.946 271.811 488 271.559 488ZM268.463 484.814C268.463 484.55 268.421 484.292 268.337 484.04C268.265 483.788 268.151 483.566 267.995 483.374C267.851 483.182 267.671 483.032 267.455 482.924C267.239 482.804 266.987 482.744 266.699 482.744C266.195 482.744 265.733 482.966 265.313 483.41C264.893 483.854 264.497 484.634 264.125 485.75C264.569 486.038 265.007 486.272 265.439 486.452C265.883 486.62 266.333 486.704 266.789 486.704C267.293 486.704 267.695 486.56 267.995 486.272C268.307 485.984 268.463 485.498 268.463 484.814ZM271.563 488C271.083 488 270.843 487.76 270.843 487.28C270.843 486.98 270.903 486.776 271.023 486.668C271.131 486.56 271.311 486.506 271.563 486.506H274.371V475.148H275.847V488H271.563ZM279.837 475.148V488H278.361V475.148H279.837ZM287.595 483.302C287.595 483.806 287.751 484.214 288.063 484.526C288.387 484.838 288.897 484.994 289.593 484.994C289.857 484.994 290.139 484.964 290.439 484.904C290.751 484.844 291.027 484.766 291.267 484.67V481.466H289.683C289.107 481.466 288.615 481.616 288.207 481.916C287.799 482.204 287.595 482.666 287.595 483.302ZM289.467 486.524C289.179 486.524 288.843 486.482 288.459 486.398C288.087 486.314 287.727 486.164 287.379 485.948C287.043 485.72 286.755 485.408 286.515 485.012C286.275 484.604 286.155 484.076 286.155 483.428C286.155 482.78 286.269 482.24 286.497 481.808C286.725 481.364 287.019 481.004 287.379 480.728C287.739 480.452 288.135 480.254 288.567 480.134C289.011 480.014 289.449 479.954 289.881 479.954H292.743V485.12C292.743 485.624 292.821 485.984 292.977 486.2C293.133 486.404 293.481 486.506 294.021 486.506H294.453C294.933 486.506 295.173 486.746 295.173 487.226C295.173 487.526 295.113 487.73 294.993 487.838C294.885 487.946 294.705 488 294.453 488H293.841C293.529 488 293.229 487.976 292.941 487.928C292.665 487.868 292.413 487.772 292.185 487.64C291.969 487.496 291.783 487.31 291.627 487.082C291.471 486.854 291.369 486.56 291.321 486.2C291.057 486.296 290.757 486.374 290.421 486.434C290.097 486.494 289.779 486.524 289.467 486.524ZM287.991 476.678C287.991 476.414 288.081 476.192 288.261 476.012C288.453 475.82 288.681 475.724 288.945 475.724C289.209 475.724 289.431 475.82 289.611 476.012C289.803 476.192 289.899 476.414 289.899 476.678C289.899 476.942 289.803 477.17 289.611 477.362C289.431 477.542 289.209 477.632 288.945 477.632C288.681 477.632 288.453 477.542 288.261 477.362C288.081 477.17 287.991 476.942 287.991 476.678ZM290.331 476.678C290.331 476.414 290.421 476.192 290.601 476.012C290.793 475.82 291.021 475.724 291.285 475.724C291.549 475.724 291.771 475.82 291.951 476.012C292.143 476.192 292.239 476.414 292.239 476.678C292.239 476.942 292.143 477.17 291.951 477.362C291.771 477.542 291.549 477.632 291.285 477.632C291.021 477.632 290.793 477.542 290.601 477.362C290.421 477.17 290.331 476.942 290.331 476.678ZM294.45 488C293.97 488 293.73 487.76 293.73 487.28C293.73 486.98 293.79 486.776 293.91 486.668C294.018 486.56 294.198 486.506 294.45 486.506H298.482C299.142 486.506 299.616 486.404 299.904 486.2C300.192 485.984 300.336 485.702 300.336 485.354C300.336 485.03 300.204 484.67 299.94 484.274C299.676 483.866 299.31 483.452 298.842 483.032C298.374 482.612 297.822 482.204 297.186 481.808C296.562 481.412 295.884 481.052 295.152 480.728C295.164 480.584 295.188 480.434 295.224 480.278C295.272 480.122 295.32 479.978 295.368 479.846C295.428 479.714 295.482 479.606 295.53 479.522C295.59 479.426 295.65 479.366 295.71 479.342L302.442 476.444V477.938L297.15 480.278C298.422 480.914 299.43 481.604 300.174 482.348C300.93 483.08 301.434 483.812 301.686 484.544C301.83 484.964 301.968 485.3 302.1 485.552C302.232 485.804 302.37 486.002 302.514 486.146C302.658 486.29 302.82 486.386 303 486.434C303.18 486.482 303.384 486.506 303.612 486.506C304.092 486.506 304.332 486.746 304.332 487.226C304.332 487.526 304.272 487.73 304.152 487.838C304.044 487.946 303.864 488 303.612 488C303.372 488 303.144 487.988 302.928 487.964C302.712 487.928 302.508 487.862 302.316 487.766C302.136 487.67 301.968 487.532 301.812 487.352C301.656 487.16 301.506 486.908 301.362 486.596H301.29C301.062 487.16 300.678 487.538 300.138 487.73C299.598 487.91 298.938 488 298.158 488H294.45ZM303.608 488C303.128 488 302.888 487.76 302.888 487.28C302.888 486.98 302.948 486.776 303.068 486.668C303.176 486.56 303.356 486.506 303.608 486.506H304.346C304.49 486.506 304.64 486.488 304.796 486.452C304.952 486.416 305.108 486.338 305.264 486.218C305.42 486.098 305.57 485.936 305.714 485.732C305.87 485.516 306.014 485.228 306.146 484.868C306.422 484.1 306.71 483.482 307.01 483.014C307.322 482.534 307.634 482.168 307.946 481.916C308.27 481.652 308.594 481.478 308.918 481.394C309.254 481.31 309.584 481.268 309.908 481.268C310.364 481.268 310.784 481.358 311.168 481.538C311.552 481.706 311.882 481.952 312.158 482.276C312.446 482.588 312.668 482.966 312.824 483.41C312.992 483.842 313.076 484.328 313.076 484.868C313.076 485.9 312.824 486.722 312.32 487.334C311.828 487.934 311.066 488.234 310.034 488.234C309.47 488.234 308.9 488.138 308.324 487.946C307.748 487.754 307.154 487.43 306.542 486.974C306.386 487.214 306.224 487.406 306.056 487.55C305.9 487.682 305.732 487.784 305.552 487.856C305.372 487.916 305.186 487.958 304.994 487.982C304.802 487.994 304.598 488 304.382 488H303.608ZM311.582 484.814C311.582 484.55 311.54 484.292 311.456 484.04C311.384 483.788 311.27 483.566 311.114 483.374C310.97 483.182 310.79 483.032 310.574 482.924C310.358 482.804 310.106 482.744 309.818 482.744C309.314 482.744 308.852 482.966 308.432 483.41C308.012 483.854 307.616 484.634 307.244 485.75C307.688 486.038 308.126 486.272 308.558 486.452C309.002 486.62 309.452 486.704 309.908 486.704C310.412 486.704 310.814 486.56 311.114 486.272C311.426 485.984 311.582 485.498 311.582 484.814Z" fill="#FFFEFE" fill-opacity="0.7"></path>
<path d="M337.712 618C337.316 618 336.986 617.91 336.722 617.73C336.458 617.55 336.26 617.34 336.128 617.1C336.128 617.964 336.074 618.69 335.966 619.278C335.858 619.878 335.66 620.358 335.372 620.718C335.096 621.09 334.706 621.354 334.202 621.51C333.698 621.678 333.044 621.762 332.24 621.762V620.268C332.828 620.268 333.284 620.202 333.608 620.07C333.944 619.95 334.19 619.746 334.346 619.458C334.514 619.182 334.61 618.822 334.634 618.378C334.67 617.946 334.688 617.418 334.688 616.794V611.97H336.146V614.526C336.146 615.138 336.254 615.624 336.47 615.984C336.698 616.332 337.112 616.506 337.712 616.506C338.192 616.506 338.432 616.746 338.432 617.226C338.432 617.526 338.372 617.73 338.252 617.838C338.144 617.946 337.964 618 337.712 618ZM337.704 618C337.224 618 336.984 617.76 336.984 617.28C336.984 616.98 337.044 616.776 337.164 616.668C337.272 616.56 337.452 616.506 337.704 616.506H338.91C339.198 616.506 339.444 616.494 339.648 616.47C339.852 616.446 340.02 616.392 340.152 616.308C340.296 616.212 340.398 616.08 340.458 615.912C340.53 615.732 340.566 615.492 340.566 615.192V611.07H342.042V614.526C342.042 614.826 342.06 615.102 342.096 615.354C342.144 615.594 342.228 615.798 342.348 615.966C342.468 616.134 342.63 616.266 342.834 616.362C343.038 616.458 343.296 616.506 343.608 616.506C344.088 616.506 344.328 616.746 344.328 617.226C344.328 617.526 344.268 617.73 344.148 617.838C344.04 617.946 343.86 618 343.608 618C343.14 618 342.762 617.892 342.474 617.676C342.186 617.448 341.994 617.166 341.898 616.83C341.682 617.322 341.34 617.64 340.872 617.784C340.416 617.928 339.852 618 339.18 618H337.704ZM339.126 620.718C339.126 620.454 339.216 620.226 339.396 620.034C339.588 619.854 339.816 619.764 340.08 619.764C340.344 619.764 340.566 619.854 340.746 620.034C340.938 620.226 341.034 620.454 341.034 620.718C341.034 620.982 340.938 621.204 340.746 621.384C340.566 621.576 340.344 621.672 340.08 621.672C339.816 621.672 339.588 621.576 339.396 621.384C339.216 621.204 339.126 620.982 339.126 620.718ZM341.466 620.718C341.466 620.454 341.556 620.226 341.736 620.034C341.928 619.854 342.156 619.764 342.42 619.764C342.684 619.764 342.906 619.854 343.086 620.034C343.278 620.226 343.374 620.454 343.374 620.718C343.374 620.982 343.278 621.204 343.086 621.384C342.906 621.576 342.684 621.672 342.42 621.672C342.156 621.672 341.928 621.576 341.736 621.384C341.556 621.204 341.466 620.982 341.466 620.718ZM344.24 616.506C344.636 616.506 344.972 616.494 345.248 616.47C345.524 616.446 345.74 616.392 345.896 616.308C346.064 616.212 346.184 616.08 346.256 615.912C346.328 615.732 346.364 615.492 346.364 615.192V611.97H347.84V614.526C347.84 614.826 347.858 615.102 347.894 615.354C347.93 615.594 348.014 615.798 348.146 615.966C348.278 616.134 348.464 616.266 348.704 616.362C348.956 616.458 349.292 616.506 349.712 616.506C349.976 616.506 350.204 616.494 350.396 616.47C350.588 616.446 350.75 616.392 350.882 616.308C351.014 616.212 351.11 616.08 351.17 615.912C351.242 615.732 351.278 615.492 351.278 615.192V611.97H352.754V614.526C352.754 614.826 352.772 615.102 352.808 615.354C352.856 615.594 352.94 615.798 353.06 615.966C353.192 616.134 353.366 616.266 353.582 616.362C353.81 616.458 354.104 616.506 354.464 616.506C354.668 616.506 354.854 616.494 355.022 616.47C355.19 616.446 355.334 616.392 355.454 616.308C355.574 616.212 355.664 616.08 355.724 615.912C355.796 615.732 355.832 615.492 355.832 615.192V611.07H357.308V614.526C357.308 614.826 357.326 615.102 357.362 615.354C357.41 615.594 357.494 615.798 357.614 615.966C357.734 616.134 357.896 616.266 358.1 616.362C358.304 616.458 358.562 616.506 358.874 616.506C359.354 616.506 359.594 616.746 359.594 617.226C359.594 617.526 359.534 617.73 359.414 617.838C359.306 617.946 359.126 618 358.874 618C358.406 618 358.028 617.892 357.74 617.676C357.452 617.448 357.26 617.166 357.164 616.83C357.056 617.082 356.906 617.286 356.714 617.442C356.522 617.586 356.318 617.7 356.102 617.784C355.886 617.868 355.676 617.928 355.472 617.964C355.268 617.988 355.094 618 354.95 618C354.554 618 354.218 617.964 353.942 617.892C353.678 617.82 353.456 617.73 353.276 617.622C353.096 617.502 352.952 617.376 352.844 617.244C352.748 617.1 352.67 616.962 352.61 616.83C352.394 617.322 352.058 617.64 351.602 617.784C351.158 617.928 350.624 618 350 618C349.58 618 349.226 617.97 348.938 617.91C348.662 617.838 348.434 617.748 348.254 617.64C348.074 617.52 347.93 617.388 347.822 617.244C347.714 617.1 347.624 616.956 347.552 616.812C347.444 617.064 347.306 617.268 347.138 617.424C346.982 617.568 346.772 617.688 346.508 617.784C346.256 617.868 345.938 617.928 345.554 617.964C345.182 617.988 344.732 618 344.204 618H343.61C343.13 618 342.89 617.76 342.89 617.28C342.89 616.98 342.95 616.776 343.07 616.668C343.178 616.56 343.358 616.506 343.61 616.506H344.24ZM358.886 618C358.406 618 358.166 617.76 358.166 617.28C358.166 616.98 358.226 616.776 358.346 616.668C358.454 616.56 358.634 616.506 358.886 616.506H361.1C360.884 616.278 360.704 615.984 360.56 615.624C360.416 615.264 360.344 614.856 360.344 614.4C360.344 613.776 360.458 613.236 360.686 612.78C360.926 612.324 361.232 611.946 361.604 611.646C361.988 611.346 362.408 611.124 362.864 610.98C363.332 610.836 363.8 610.764 364.268 610.764C364.688 610.764 365.054 610.788 365.366 610.836C365.678 610.884 365.9 610.938 366.032 610.998V612.6C365.804 612.528 365.558 612.468 365.294 612.42C365.03 612.36 364.706 612.33 364.322 612.33C363.566 612.33 362.966 612.516 362.522 612.888C362.078 613.26 361.856 613.77 361.856 614.418C361.856 615.03 362.048 615.534 362.432 615.93C362.816 616.314 363.398 616.506 364.178 616.506H366.806V618H358.886Z" fill="#FFFEFE" fill-opacity="0.7"></path>
<path d="M491.447 675.086H492.905V677.552C492.905 678.716 493.199 679.532 493.787 680C494.387 680.468 495.269 680.702 496.433 680.702C497.033 680.702 497.549 680.654 497.981 680.558C498.413 680.474 498.767 680.318 499.043 680.09C499.331 679.874 499.541 679.574 499.673 679.19C499.805 678.794 499.871 678.296 499.871 677.696V673.07H501.329V677.714C501.329 678.506 501.215 679.184 500.987 679.748C500.771 680.312 500.453 680.774 500.033 681.134C499.613 681.494 499.097 681.758 498.485 681.926C497.873 682.094 497.177 682.178 496.397 682.178C494.753 682.178 493.517 681.806 492.689 681.062C491.861 680.318 491.447 679.25 491.447 677.858V675.086ZM495.497 672.404C495.497 672.14 495.587 671.918 495.767 671.738C495.959 671.546 496.187 671.45 496.451 671.45C496.715 671.45 496.937 671.546 497.117 671.738C497.309 671.918 497.405 672.14 497.405 672.404C497.405 672.668 497.309 672.896 497.117 673.088C496.937 673.268 496.715 673.358 496.451 673.358C496.187 673.358 495.959 673.268 495.767 673.088C495.587 672.896 495.497 672.668 495.497 672.404ZM505.328 667.148V680H503.852V667.148H505.328ZM512.18 680C511.784 680 511.454 679.91 511.19 679.73C510.926 679.55 510.728 679.34 510.596 679.1C510.596 679.964 510.542 680.69 510.434 681.278C510.326 681.878 510.128 682.358 509.84 682.718C509.564 683.09 509.174 683.354 508.67 683.51C508.166 683.678 507.512 683.762 506.708 683.762V682.268C507.296 682.268 507.752 682.202 508.076 682.07C508.412 681.95 508.658 681.746 508.814 681.458C508.982 681.182 509.078 680.822 509.102 680.378C509.138 679.946 509.156 679.418 509.156 678.794V673.97H510.614V676.526C510.614 677.138 510.722 677.624 510.938 677.984C511.166 678.332 511.58 678.506 512.18 678.506C512.66 678.506 512.9 678.746 512.9 679.226C512.9 679.526 512.84 679.73 512.72 679.838C512.612 679.946 512.432 680 512.18 680ZM512.172 680C511.692 680 511.452 679.76 511.452 679.28C511.452 678.98 511.512 678.776 511.632 678.668C511.74 678.56 511.92 678.506 512.172 678.506H519.39C519.39 677.738 519.288 677.09 519.084 676.562C518.88 676.034 518.604 675.608 518.256 675.284C517.908 674.948 517.5 674.708 517.032 674.564C516.576 674.408 516.084 674.33 515.556 674.33C515.208 674.33 514.836 674.366 514.44 674.438C514.056 674.498 513.738 674.564 513.486 674.636V673.196C513.726 673.124 514.044 673.046 514.44 672.962C514.836 672.866 515.268 672.818 515.736 672.818C516.636 672.818 517.41 672.968 518.058 673.268C518.706 673.568 519.24 673.982 519.66 674.51C520.092 675.026 520.41 675.632 520.614 676.328C520.818 677.012 520.926 677.738 520.938 678.506H522.054C522.534 678.506 522.774 678.746 522.774 679.226C522.774 679.526 522.714 679.73 522.594 679.838C522.486 679.946 522.306 680 522.054 680H512.172ZM515.934 682.7C515.934 682.436 516.024 682.208 516.204 682.016C516.396 681.836 516.624 681.746 516.888 681.746C517.152 681.746 517.374 681.836 517.554 682.016C517.746 682.208 517.842 682.436 517.842 682.7C517.842 682.964 517.746 683.186 517.554 683.366C517.374 683.558 517.152 683.654 516.888 683.654C516.624 683.654 516.396 683.558 516.204 683.366C516.024 683.186 515.934 682.964 515.934 682.7ZM524.57 670.046C524.57 669.782 524.66 669.56 524.84 669.38C525.032 669.188 525.26 669.092 525.524 669.092C525.788 669.092 526.01 669.188 526.19 669.38C526.382 669.56 526.478 669.782 526.478 670.046C526.478 670.31 526.382 670.538 526.19 670.73C526.01 670.91 525.788 671 525.524 671C525.26 671 525.032 670.91 524.84 670.73C524.66 670.538 524.57 670.31 524.57 670.046ZM522.032 680C521.552 680 521.312 679.76 521.312 679.28C521.312 678.98 521.372 678.776 521.492 678.668C521.6 678.56 521.78 678.506 522.032 678.506H524.84V673.07H526.316V680H522.032Z" fill="#FFFEFE" fill-opacity="0.7"></path>
<path d="M803.845 529.302C803.845 529.806 804.001 530.214 804.313 530.526C804.637 530.838 805.147 530.994 805.843 530.994C806.107 530.994 806.389 530.964 806.689 530.904C807.001 530.844 807.277 530.766 807.517 530.67V527.466H805.933C805.357 527.466 804.865 527.616 804.457 527.916C804.049 528.204 803.845 528.666 803.845 529.302ZM805.717 532.524C805.429 532.524 805.093 532.482 804.709 532.398C804.337 532.314 803.977 532.164 803.629 531.948C803.293 531.72 803.005 531.408 802.765 531.012C802.525 530.604 802.405 530.076 802.405 529.428C802.405 528.78 802.519 528.24 802.747 527.808C802.975 527.364 803.269 527.004 803.629 526.728C803.989 526.452 804.385 526.254 804.817 526.134C805.261 526.014 805.699 525.954 806.131 525.954H808.993V531.12C808.993 531.624 809.071 531.984 809.227 532.2C809.383 532.404 809.731 532.506 810.271 532.506H810.703C811.183 532.506 811.423 532.746 811.423 533.226C811.423 533.526 811.363 533.73 811.243 533.838C811.135 533.946 810.955 534 810.703 534H810.091C809.779 534 809.479 533.976 809.191 533.928C808.915 533.868 808.663 533.772 808.435 533.64C808.219 533.496 808.033 533.31 807.877 533.082C807.721 532.854 807.619 532.56 807.571 532.2C807.307 532.296 807.007 532.374 806.671 532.434C806.347 532.494 806.029 532.524 805.717 532.524ZM804.241 522.678C804.241 522.414 804.331 522.192 804.511 522.012C804.703 521.82 804.931 521.724 805.195 521.724C805.459 521.724 805.681 521.82 805.861 522.012C806.053 522.192 806.149 522.414 806.149 522.678C806.149 522.942 806.053 523.17 805.861 523.362C805.681 523.542 805.459 523.632 805.195 523.632C804.931 523.632 804.703 523.542 804.511 523.362C804.331 523.17 804.241 522.942 804.241 522.678ZM806.581 522.678C806.581 522.414 806.671 522.192 806.851 522.012C807.043 521.82 807.271 521.724 807.535 521.724C807.799 521.724 808.021 521.82 808.201 522.012C808.393 522.192 808.489 522.414 808.489 522.678C808.489 522.942 808.393 523.17 808.201 523.362C808.021 523.542 807.799 523.632 807.535 523.632C807.271 523.632 807.043 523.542 806.851 523.362C806.671 523.17 806.581 522.942 806.581 522.678ZM810.7 534C810.22 534 809.98 533.76 809.98 533.28C809.98 532.98 810.04 532.776 810.16 532.668C810.268 532.56 810.448 532.506 810.7 532.506H811.906C812.194 532.506 812.44 532.494 812.644 532.47C812.848 532.446 813.016 532.392 813.148 532.308C813.292 532.212 813.394 532.08 813.454 531.912C813.526 531.732 813.562 531.492 813.562 531.192V527.07H815.038V530.526C815.038 530.826 815.056 531.102 815.092 531.354C815.14 531.594 815.224 531.798 815.344 531.966C815.464 532.134 815.626 532.266 815.83 532.362C816.034 532.458 816.292 532.506 816.604 532.506C817.084 532.506 817.324 532.746 817.324 533.226C817.324 533.526 817.264 533.73 817.144 533.838C817.036 533.946 816.856 534 816.604 534C816.136 534 815.758 533.892 815.47 533.676C815.182 533.448 814.99 533.166 814.894 532.83C814.678 533.322 814.336 533.64 813.868 533.784C813.412 533.928 812.848 534 812.176 534H810.7ZM812.122 536.718C812.122 536.454 812.212 536.226 812.392 536.034C812.584 535.854 812.812 535.764 813.076 535.764C813.34 535.764 813.562 535.854 813.742 536.034C813.934 536.226 814.03 536.454 814.03 536.718C814.03 536.982 813.934 537.204 813.742 537.384C813.562 537.576 813.34 537.672 813.076 537.672C812.812 537.672 812.584 537.576 812.392 537.384C812.212 537.204 812.122 536.982 812.122 536.718ZM814.462 536.718C814.462 536.454 814.552 536.226 814.732 536.034C814.924 535.854 815.152 535.764 815.416 535.764C815.68 535.764 815.902 535.854 816.082 536.034C816.274 536.226 816.37 536.454 816.37 536.718C816.37 536.982 816.274 537.204 816.082 537.384C815.902 537.576 815.68 537.672 815.416 537.672C815.152 537.672 814.924 537.576 814.732 537.384C814.552 537.204 814.462 536.982 814.462 536.718ZM819.612 524.046C819.612 523.782 819.702 523.56 819.882 523.38C820.074 523.188 820.302 523.092 820.566 523.092C820.83 523.092 821.052 523.188 821.232 523.38C821.424 523.56 821.52 523.782 821.52 524.046C821.52 524.31 821.424 524.538 821.232 524.73C821.052 524.91 820.83 525 820.566 525C820.302 525 820.074 524.91 819.882 524.73C819.702 524.538 819.612 524.31 819.612 524.046ZM821.952 524.046C821.952 523.782 822.042 523.56 822.222 523.38C822.414 523.188 822.642 523.092 822.906 523.092C823.17 523.092 823.392 523.188 823.572 523.38C823.764 523.56 823.86 523.782 823.86 524.046C823.86 524.31 823.764 524.538 823.572 524.73C823.392 524.91 823.17 525 822.906 525C822.642 525 822.414 524.91 822.222 524.73C822.042 524.538 821.952 524.31 821.952 524.046ZM819.792 530.382C819.792 531.114 820.008 531.654 820.44 532.002C820.872 532.338 821.4 532.506 822.024 532.506H823.752V530.706C823.752 530.418 823.722 530.13 823.662 529.842C823.614 529.542 823.518 529.278 823.374 529.05C823.23 528.81 823.032 528.618 822.78 528.474C822.528 528.318 822.21 528.24 821.826 528.24C821.19 528.24 820.692 528.45 820.332 528.87C819.972 529.29 819.792 529.794 819.792 530.382ZM816.822 534C816.342 534 816.102 533.76 816.102 533.28C816.102 532.98 816.162 532.776 816.282 532.668C816.39 532.56 816.57 532.506 816.822 532.506H818.874C818.742 532.254 818.628 531.978 818.532 531.678C818.436 531.366 818.388 531.012 818.388 530.616C818.388 530.148 818.466 529.686 818.622 529.23C818.778 528.774 819.006 528.372 819.306 528.024C819.606 527.664 819.972 527.376 820.404 527.16C820.848 526.932 821.358 526.818 821.934 526.818C822.594 526.818 823.134 526.938 823.554 527.178C823.974 527.418 824.304 527.724 824.544 528.096C824.796 528.468 824.97 528.882 825.066 529.338C825.162 529.782 825.21 530.22 825.21 530.652V534H816.822ZM831.855 534C831.459 534 831.129 533.91 830.865 533.73C830.601 533.55 830.403 533.34 830.271 533.1C830.271 533.964 830.217 534.69 830.109 535.278C830.001 535.878 829.803 536.358 829.515 536.718C829.239 537.09 828.849 537.354 828.345 537.51C827.841 537.678 827.187 537.762 826.383 537.762V536.268C826.971 536.268 827.427 536.202 827.751 536.07C828.087 535.95 828.333 535.746 828.489 535.458C828.657 535.182 828.753 534.822 828.777 534.378C828.813 533.946 828.831 533.418 828.831 532.794V527.97H830.289V530.526C830.289 531.138 830.397 531.624 830.613 531.984C830.841 532.332 831.255 532.506 831.855 532.506C832.335 532.506 832.575 532.746 832.575 533.226C832.575 533.526 832.515 533.73 832.395 533.838C832.287 533.946 832.107 534 831.855 534ZM832.477 532.506C832.873 532.506 833.209 532.494 833.485 532.47C833.761 532.446 833.977 532.392 834.133 532.308C834.301 532.212 834.421 532.08 834.493 531.912C834.565 531.732 834.601 531.492 834.601 531.192V527.97H836.077V530.526C836.077 530.826 836.095 531.102 836.131 531.354C836.167 531.594 836.251 531.798 836.383 531.966C836.515 532.134 836.701 532.266 836.941 532.362C837.193 532.458 837.529 532.506 837.949 532.506C838.213 532.506 838.441 532.494 838.633 532.47C838.825 532.446 838.987 532.392 839.119 532.308C839.251 532.212 839.347 532.08 839.407 531.912C839.479 531.732 839.515 531.492 839.515 531.192V527.97H840.991V530.526C840.991 530.826 841.009 531.102 841.045 531.354C841.093 531.594 841.177 531.798 841.297 531.966C841.429 532.134 841.603 532.266 841.819 532.362C842.047 532.458 842.341 532.506 842.701 532.506C842.905 532.506 843.091 532.494 843.259 532.47C843.427 532.446 843.571 532.392 843.691 532.308C843.811 532.212 843.901 532.08 843.961 531.912C844.033 531.732 844.069 531.492 844.069 531.192V527.07H845.545V530.526C845.545 530.826 845.563 531.102 845.599 531.354C845.647 531.594 845.731 531.798 845.851 531.966C845.971 532.134 846.133 532.266 846.337 532.362C846.541 532.458 846.799 532.506 847.111 532.506C847.591 532.506 847.831 532.746 847.831 533.226C847.831 533.526 847.771 533.73 847.651 533.838C847.543 533.946 847.363 534 847.111 534C846.643 534 846.265 533.892 845.977 533.676C845.689 533.448 845.497 533.166 845.401 532.83C845.293 533.082 845.143 533.286 844.951 533.442C844.759 533.586 844.555 533.7 844.339 533.784C844.123 533.868 843.913 533.928 843.709 533.964C843.505 533.988 843.331 534 843.187 534C842.791 534 842.455 533.964 842.179 533.892C841.915 533.82 841.693 533.73 841.513 533.622C841.333 533.502 841.189 533.376 841.081 533.244C840.985 533.1 840.907 532.962 840.847 532.83C840.631 533.322 840.295 533.64 839.839 533.784C839.395 533.928 838.861 534 838.237 534C837.817 534 837.463 533.97 837.175 533.91C836.899 533.838 836.671 533.748 836.491 533.64C836.311 533.52 836.167 533.388 836.059 533.244C835.951 533.1 835.861 532.956 835.789 532.812C835.681 533.064 835.543 533.268 835.375 533.424C835.219 533.568 835.009 533.688 834.745 533.784C834.493 533.868 834.175 533.928 833.791 533.964C833.419 533.988 832.969 534 832.441 534H831.847C831.367 534 831.127 533.76 831.127 533.28C831.127 532.98 831.187 532.776 831.307 532.668C831.415 532.56 831.595 532.506 831.847 532.506H832.477ZM838.075 524.046C838.075 523.782 838.165 523.56 838.345 523.38C838.537 523.188 838.765 523.092 839.029 523.092C839.293 523.092 839.515 523.188 839.695 523.38C839.887 523.56 839.983 523.782 839.983 524.046C839.983 524.31 839.887 524.538 839.695 524.73C839.515 524.91 839.293 525 839.029 525C838.765 525 838.537 524.91 838.345 524.73C838.165 524.538 838.075 524.31 838.075 524.046ZM840.415 524.046C840.415 523.782 840.505 523.56 840.685 523.38C840.877 523.188 841.105 523.092 841.369 523.092C841.633 523.092 841.855 523.188 842.035 523.38C842.227 523.56 842.323 523.782 842.323 524.046C842.323 524.31 842.227 524.538 842.035 524.73C841.855 524.91 841.633 525 841.369 525C841.105 525 840.877 524.91 840.685 524.73C840.505 524.538 840.415 524.31 840.415 524.046ZM839.281 521.886C839.281 521.622 839.371 521.4 839.551 521.22C839.743 521.028 839.971 520.932 840.235 520.932C840.499 520.932 840.721 521.028 840.901 521.22C841.093 521.4 841.189 521.622 841.189 521.886C841.189 522.15 841.093 522.378 840.901 522.57C840.721 522.75 840.499 522.84 840.235 522.84C839.971 522.84 839.743 522.75 839.551 522.57C839.371 522.378 839.281 522.15 839.281 521.886ZM847.122 534C846.642 534 846.402 533.76 846.402 533.28C846.402 532.98 846.462 532.776 846.582 532.668C846.69 532.56 846.87 532.506 847.122 532.506H849.93V521.148H851.406V534H847.122ZM855.395 521.148V534H853.919V521.148H855.395Z" fill="#FFFEFE" fill-opacity="0.7"></path>
<path d="M499.219 428.506C499.447 427.846 499.759 427.18 500.155 426.508C500.563 425.824 501.043 425.212 501.595 424.672C502.159 424.12 502.795 423.676 503.503 423.34C504.211 422.992 504.979 422.818 505.807 422.818C507.019 422.818 507.955 423.178 508.615 423.898C509.287 424.618 509.623 425.638 509.623 426.958V430H499.561C498.817 430 498.271 429.916 497.923 429.748C497.587 429.568 497.353 429.358 497.221 429.118V429.784C497.221 430.576 497.107 431.248 496.879 431.8C496.663 432.364 496.345 432.826 495.925 433.186C495.505 433.546 494.989 433.81 494.377 433.978C493.765 434.146 493.069 434.23 492.289 434.23C490.645 434.23 489.409 433.858 488.581 433.114C487.753 432.382 487.339 431.32 487.339 429.928V427.156H488.797V429.622C488.797 430.198 488.869 430.684 489.013 431.08C489.169 431.488 489.391 431.812 489.679 432.052C489.979 432.304 490.351 432.484 490.795 432.592C491.239 432.7 491.749 432.754 492.325 432.754C492.925 432.754 493.441 432.712 493.873 432.628C494.305 432.544 494.659 432.388 494.935 432.16C495.223 431.932 495.433 431.626 495.565 431.242C495.697 430.858 495.763 430.366 495.763 429.766V423.97H497.221V426.526C497.221 426.826 497.239 427.102 497.275 427.354C497.323 427.594 497.413 427.798 497.545 427.966C497.677 428.134 497.875 428.266 498.139 428.362C498.403 428.458 498.763 428.506 499.219 428.506ZM508.147 428.506V427.3C508.147 426.868 508.099 426.472 508.003 426.112C507.919 425.74 507.775 425.422 507.571 425.158C507.367 424.894 507.097 424.69 506.761 424.546C506.437 424.402 506.041 424.33 505.573 424.33C504.997 424.33 504.457 424.456 503.953 424.708C503.461 424.96 503.005 425.284 502.585 425.68C502.177 426.076 501.823 426.526 501.523 427.03C501.223 427.522 500.983 428.014 500.803 428.506H508.147ZM504.655 420.046C504.655 419.782 504.745 419.56 504.925 419.38C505.117 419.188 505.345 419.092 505.609 419.092C505.873 419.092 506.095 419.188 506.275 419.38C506.467 419.56 506.563 419.782 506.563 420.046C506.563 420.31 506.467 420.538 506.275 420.73C506.095 420.91 505.873 421 505.609 421C505.345 421 505.117 420.91 504.925 420.73C504.745 420.538 504.655 420.31 504.655 420.046ZM515.722 429.226C515.722 429.526 515.662 429.73 515.542 429.838C515.434 429.946 515.254 430 515.002 430H514.534C514.15 430 513.796 429.964 513.472 429.892C513.16 429.808 512.89 429.67 512.662 429.478C512.446 429.286 512.272 429.034 512.14 428.722C512.02 428.398 511.96 427.996 511.96 427.516V417.148H513.436V427.12C513.436 427.624 513.514 427.984 513.67 428.2C513.826 428.404 514.174 428.506 514.714 428.506H515.002C515.482 428.506 515.722 428.746 515.722 429.226ZM515.007 430C514.527 430 514.287 429.76 514.287 429.28C514.287 428.98 514.347 428.776 514.467 428.668C514.575 428.56 514.755 428.506 515.007 428.506H517.815V423.07H519.291V430H515.007ZM515.727 432.718C515.727 432.454 515.817 432.226 515.997 432.034C516.189 431.854 516.417 431.764 516.681 431.764C516.945 431.764 517.167 431.854 517.347 432.034C517.539 432.226 517.635 432.454 517.635 432.718C517.635 432.982 517.539 433.204 517.347 433.384C517.167 433.576 516.945 433.672 516.681 433.672C516.417 433.672 516.189 433.576 515.997 433.384C515.817 433.204 515.727 432.982 515.727 432.718ZM518.067 432.718C518.067 432.454 518.157 432.226 518.337 432.034C518.529 431.854 518.757 431.764 519.021 431.764C519.285 431.764 519.507 431.854 519.687 432.034C519.879 432.226 519.975 432.454 519.975 432.718C519.975 432.982 519.879 433.204 519.687 433.384C519.507 433.576 519.285 433.672 519.021 433.672C518.757 433.672 518.529 433.576 518.337 433.384C518.157 433.204 518.067 432.982 518.067 432.718ZM526.142 430C525.746 430 525.416 429.91 525.152 429.73C524.888 429.55 524.69 429.34 524.558 429.1C524.558 429.964 524.504 430.69 524.396 431.278C524.288 431.878 524.09 432.358 523.802 432.718C523.526 433.09 523.136 433.354 522.632 433.51C522.128 433.678 521.474 433.762 520.67 433.762V432.268C521.258 432.268 521.714 432.202 522.038 432.07C522.374 431.95 522.62 431.746 522.776 431.458C522.944 431.182 523.04 430.822 523.064 430.378C523.1 429.946 523.118 429.418 523.118 428.794V423.97H524.576V426.526C524.576 427.138 524.684 427.624 524.9 427.984C525.128 428.332 525.542 428.506 526.142 428.506C526.622 428.506 526.862 428.746 526.862 429.226C526.862 429.526 526.802 429.73 526.682 429.838C526.574 429.946 526.394 430 526.142 430ZM526.134 430C525.654 430 525.414 429.76 525.414 429.28C525.414 428.98 525.474 428.776 525.594 428.668C525.702 428.56 525.882 428.506 526.134 428.506H528.942V417.148H530.418V430H526.134ZM534.407 417.148V430H532.931V417.148H534.407Z" fill="#FFFEFE" fill-opacity="0.7"></path>
<path d="M336.309 721.086H337.767V723.552C337.767 724.716 338.061 725.532 338.649 726C339.249 726.468 340.131 726.702 341.295 726.702C341.895 726.702 342.411 726.654 342.843 726.558C343.275 726.474 343.629 726.318 343.905 726.09C344.193 725.874 344.403 725.574 344.535 725.19C344.667 724.794 344.733 724.296 344.733 723.696V719.07H346.191V723.714C346.191 724.506 346.077 725.184 345.849 725.748C345.633 726.312 345.315 726.774 344.895 727.134C344.475 727.494 343.959 727.758 343.347 727.926C342.735 728.094 342.039 728.178 341.259 728.178C339.615 728.178 338.379 727.806 337.551 727.062C336.723 726.318 336.309 725.25 336.309 723.858V721.086ZM340.359 718.404C340.359 718.14 340.449 717.918 340.629 717.738C340.821 717.546 341.049 717.45 341.313 717.45C341.577 717.45 341.799 717.546 341.979 717.738C342.171 717.918 342.267 718.14 342.267 718.404C342.267 718.668 342.171 718.896 341.979 719.088C341.799 719.268 341.577 719.358 341.313 719.358C341.049 719.358 340.821 719.268 340.629 719.088C340.449 718.896 340.359 718.668 340.359 718.404ZM350.189 713.148V726H348.713V713.148H350.189ZM353.999 719.97H355.457V724.992C355.457 725.88 355.403 726.624 355.295 727.224C355.199 727.836 355.007 728.328 354.719 728.7C354.431 729.072 354.029 729.342 353.513 729.51C353.009 729.678 352.355 729.762 351.551 729.762V728.268C352.139 728.268 352.595 728.202 352.919 728.07C353.255 727.95 353.501 727.746 353.657 727.458C353.825 727.182 353.921 726.822 353.945 726.378C353.981 725.946 353.999 725.418 353.999 724.794V719.97ZM353.783 716.046C353.783 715.782 353.873 715.56 354.053 715.38C354.245 715.188 354.473 715.092 354.737 715.092C355.001 715.092 355.223 715.188 355.403 715.38C355.595 715.56 355.691 715.782 355.691 716.046C355.691 716.31 355.595 716.538 355.403 716.73C355.223 716.91 355.001 717 354.737 717C354.473 717 354.245 716.91 354.053 716.73C353.873 716.538 353.783 716.31 353.783 716.046ZM361.739 725.226C361.739 725.526 361.679 725.73 361.559 725.838C361.451 725.946 361.271 726 361.019 726H360.551C360.167 726 359.813 725.964 359.489 725.892C359.177 725.808 358.907 725.67 358.679 725.478C358.463 725.286 358.289 725.034 358.157 724.722C358.037 724.398 357.977 723.996 357.977 723.516V713.148H359.453V723.12C359.453 723.624 359.531 723.984 359.687 724.2C359.843 724.404 360.191 724.506 360.731 724.506H361.019C361.499 724.506 361.739 724.746 361.739 725.226ZM368.241 724.506C368.241 723.738 368.139 723.09 367.935 722.562C367.731 722.034 367.455 721.608 367.107 721.284C366.759 720.948 366.351 720.708 365.883 720.564C365.427 720.408 364.935 720.33 364.407 720.33C364.059 720.33 363.687 720.366 363.291 720.438C362.907 720.498 362.589 720.564 362.337 720.636V719.196C362.577 719.124 362.895 719.046 363.291 718.962C363.687 718.866 364.119 718.818 364.587 718.818C365.499 718.818 366.285 718.974 366.945 719.286C367.605 719.598 368.145 720.024 368.565 720.564C368.985 721.092 369.291 721.716 369.483 722.436C369.687 723.144 369.789 723.894 369.789 724.686V726H361.023C360.543 726 360.303 725.76 360.303 725.28C360.303 724.98 360.363 724.776 360.483 724.668C360.591 724.56 360.771 724.506 361.023 724.506H368.241ZM364.785 728.7C364.785 728.436 364.875 728.208 365.055 728.016C365.247 727.836 365.475 727.746 365.739 727.746C366.003 727.746 366.225 727.836 366.405 728.016C366.597 728.208 366.693 728.436 366.693 728.7C366.693 728.964 366.597 729.186 366.405 729.366C366.225 729.558 366.003 729.654 365.739 729.654C365.475 729.654 365.247 729.558 365.055 729.366C364.875 729.186 364.785 728.964 364.785 728.7Z" fill="#FFFEFE" fill-opacity="0.7"></path>
</svg>