<svg width="85" height="53" viewBox="0 0 85 53" fill="none" xmlns="http://www.w3.org/2000/svg">
<g filter="url(#filter0_d_5088_4478)">
<rect x="4" y="2.73535" width="76.1741" height="43.4026" rx="14.9818" fill="white"></rect>
<path class="text" d="M29.6964 28.8102L30.6381 26.7898C28.7376 23.314 27.3849 21.9613 25.7755 21.9613C24.8166 21.9613 23.8749 22.5264 23.1215 23.2969V25.0947C24.029 24.3584 24.8509 23.9304 25.57 23.9304C26.4604 23.9304 27.1966 24.3242 28.8061 26.9439C25.4673 26.824 22.0257 27.5089 22.0257 30.7278C22.0257 31.4298 22.1456 32.4572 22.5394 35.1453H24.4228C24.029 32.4572 23.9092 31.4641 23.9092 30.8648C23.9092 28.9985 25.9296 28.8102 29.6964 28.8102ZM34.062 18.0232H32.1786V27.1664C32.1786 29.1012 33.4456 30.4368 35.8427 30.4368C35.9455 30.4368 36.0139 30.3512 36.0139 30.2484V28.6389C36.0139 28.5362 35.9455 28.4677 35.8427 28.4677C34.473 28.4677 34.062 28.0054 34.062 27.0295V18.0232ZM44.7966 28.4506C44.5398 24.4098 43.4098 22.3723 41.2695 22.3723C39.4032 22.3723 38.393 23.5879 37.554 25.7796C36.715 27.9712 36.5438 28.4677 35.8418 28.4677C35.7391 28.4677 35.6706 28.5362 35.6706 28.6389V30.2484C35.6706 30.3512 35.7391 30.4196 35.8418 30.4368C36.6465 30.4368 37.1773 30.1799 37.6396 29.5807C39.2148 30.2998 41.2181 30.6594 43.3926 30.6594L44.7966 28.4506ZM38.5471 27.8513L38.9238 26.9096C39.6429 25.0433 40.1908 24.3584 41.1496 24.3584C42.1427 24.3584 42.8618 25.8138 43.0159 28.6561C41.6119 28.6732 40.0196 28.502 38.5471 27.8513ZM54.0894 28.4677C53.1306 28.4677 52.4799 27.9883 52.1546 27.0295C51.7265 25.7796 51.4355 23.8105 51.1615 22.1326H49.1925C49.5692 24.2728 50.0143 26.2076 50.4424 27.4575C50.5451 27.7486 50.6479 28.0054 50.7677 28.2451C50.0828 28.3992 49.3979 28.4677 48.5761 28.4677C47.6344 28.4677 46.881 28.3821 45.477 27.9712V29.8546C46.8639 30.3169 47.3947 30.4368 48.5761 30.4368C49.7404 30.4368 50.8704 30.0943 51.6923 29.5464C52.3429 30.1457 53.1306 30.4368 54.0894 30.4368C54.1921 30.4368 54.2606 30.3512 54.2606 30.2484V28.6389C54.2606 28.5362 54.1921 28.4677 54.0894 28.4677ZM55.8649 18.0232V27.0295C55.8649 28.0054 55.4539 28.4677 54.0842 28.4677C53.9814 28.4677 53.913 28.5362 53.913 28.6389V30.2484C53.913 30.3512 53.9814 30.4368 54.0842 30.4368C56.4813 30.4368 57.7483 29.1012 57.7483 27.1664V18.0232H55.8649ZM62.4559 18.0232H60.5725V30.4368H62.4559V18.0232Z" fill="#707070"></path>
</g>
<defs>
<filter id="filter0_d_5088_4478" x="0" y="0.735352" width="84.1741" height="51.4026" filterUnits="userSpaceOnUse" color-interpolation-filters="sRGB">
<feFlood flood-opacity="0" result="BackgroundImageFix"></feFlood>
<feColorMatrix in="SourceAlpha" type="matrix" values="0 0 0 0 0 0 0 0 0 0 0 0 0 0 0 0 0 0 127 0" result="hardAlpha"></feColorMatrix>
<feOffset dy="2"></feOffset>
<feGaussianBlur stdDeviation="2"></feGaussianBlur>
<feComposite in2="hardAlpha" operator="out"></feComposite>
<feColorMatrix type="matrix" values="0 0 0 0 0 0 0 0 0 0 0 0 0 0 0 0 0 0 0.25 0"></feColorMatrix>
<feBlend mode="normal" in2="BackgroundImageFix" result="effect1_dropShadow_5088_4478"></feBlend>
<feBlend mode="normal" in="SourceGraphic" in2="effect1_dropShadow_5088_4478" result="shape"></feBlend>
</filter>
</defs>
</svg>