<svg viewBox="0 0 24 24" fill="none" xmlns="http://www.w3.org/2000/svg"><circle cx="12" cy="12" r="11.5" fill="#04BA9A" stroke="white"></circle><g clip-path="url(#clip0_223_83843)"><path d="M17.6622 10.104C17.2762 9.82476 16.8102 9.70259 16.3394 9.70259H11.864C11.6961 9.70259 11.5251 9.69624 11.3571 9.70259C11.3367 9.70259 11.3163 9.70418 11.2959 9.70735C10.9476 9.74701 10.6416 10.012 10.5553 10.3579C10.5223 10.4895 10.527 10.6196 10.527 10.7529V12.6219H6.46434V9.08541C6.46434 8.77602 6.47061 8.46505 6.46434 8.15408C6.46434 8.14932 6.46434 8.14615 6.46434 8.14139C6.46434 7.8923 6.24779 7.65431 5.99357 7.66541C5.73779 7.67652 5.52281 7.87484 5.52281 8.14139V14.8764C5.52281 15.1858 5.51653 15.4968 5.52281 15.8062C5.52281 15.8109 5.52281 15.8157 5.52281 15.8189C5.52281 16.068 5.73936 16.306 5.99357 16.2949C6.24936 16.2838 6.46434 16.0854 6.46434 15.8189V13.5739H17.5555C17.5932 13.5739 17.6309 13.5739 17.6685 13.5739V15.8268C17.6685 16.0759 17.8851 16.3139 18.1393 16.3028C18.3951 16.2917 18.6101 16.0934 18.6101 15.8268V11.9302C18.6053 11.1972 18.2476 10.5276 17.6622 10.104Z" fill="white"></path><path d="M9.72785 10.9229C9.71843 10.3945 9.39046 9.94235 8.90244 9.76148C8.44423 9.59013 7.88716 9.7472 7.57645 10.1248C7.24535 10.5278 7.18101 11.1053 7.45092 11.5607C7.72082 12.0192 8.24808 12.2397 8.76121 12.1398C9.31671 12.0303 9.71372 11.5099 9.72941 10.9498C9.72941 10.9435 9.72941 10.9371 9.72941 10.9292C9.72785 10.9292 9.72785 10.926 9.72785 10.9229Z" fill="white"></path></g><defs><clipPath id="clip0_223_83843"><rect width="13.4393" height="8.95955" fill="white" transform="translate(5.28027 7.52051)"></rect></clipPath></defs></svg>