<svg width="14" height="13" viewBox="0 0 14 13" fill="none" xmlns="http://www.w3.org/2000/svg">
<path d="M12.3737 13V12.0963V7.4385L8.20202 3.3369C7.84849 2.98931 7.42425 2.57219 6.9293 2.57219C6.53883 2.57219 6.19236 2.87506 5.8899 3.13946C5.80897 3.21021 5.7312 3.2782 5.65657 3.3369L1.48485 7.4385V12.0963V13H2.40404H11.4545H12.3737ZM0.212121 6.53476C-0.0707071 6.25668 -0.0707071 5.77005 0.212121 5.49198L4.9495 0.834225C6.0101 -0.278075 7.9192 -0.278075 9.05051 0.834225L13.7879 5.49198C14.0707 5.77005 14.0707 6.25668 13.7879 6.53476C13.6465 6.6738 13.4343 6.74332 13.2222 6.74332C13.0101 6.74332 12.798 6.6738 12.6566 6.53476L7.9192 1.87701C7.42425 1.39037 6.50506 1.39037 6.01011 1.87701L1.27273 6.53476C0.989899 6.81283 0.49495 6.81283 0.212121 6.53476Z" fill="white"></path>
</svg>