<svg width="71" height="47" viewBox="0 0 71 47" fill="none" xmlns="http://www.w3.org/2000/svg">
<g filter="url(#filter0_d_3338_264304)">
<rect x="4" y="2.125" width="62.1741" height="38.4026" rx="14.9818" fill="white"></rect>
<path class="text" d="M25.1357 25.8775C24.4964 25.8775 23.92 25.7691 23.4063 25.5522C22.9041 25.3239 22.5046 24.9872 22.2078 24.542C21.9224 24.0854 21.7797 23.5204 21.7797 22.8469C21.7797 22.1735 22.008 21.4258 22.4646 20.6039C22.9212 19.7707 23.686 18.9374 24.759 18.1041L24.5878 19.6793L23.0468 18.4808L24.6562 16.5118C25.5238 17.1738 26.2657 17.8187 26.8821 18.4465C27.5099 19.0629 27.9893 19.6965 28.3204 20.3471C28.6514 20.9977 28.8169 21.6883 28.8169 22.4189C28.8169 22.7727 28.7598 23.1551 28.6457 23.5661C28.5315 23.9656 28.3375 24.3423 28.0635 24.6961C27.7896 25.0386 27.4129 25.3239 26.9335 25.5522C26.4655 25.7691 25.8662 25.8775 25.1357 25.8775ZM25.324 23.5147C25.6094 23.5147 25.8377 23.4576 26.0089 23.3435C26.1915 23.2293 26.3285 23.0809 26.4198 22.8983C26.5111 22.7157 26.5568 22.5216 26.5568 22.3161C26.5568 22.1107 26.5111 21.8881 26.4198 21.6484C26.3285 21.4087 26.1516 21.1404 25.889 20.8436C25.6265 20.5469 25.2384 20.2044 24.7247 19.8163L26.026 19.6451C25.558 19.9647 25.1813 20.29 24.8959 20.6211C24.6106 20.9521 24.4051 21.2717 24.2796 21.5799C24.1654 21.8767 24.1083 22.1506 24.1083 22.4018C24.1083 22.767 24.2282 23.0467 24.4679 23.2407C24.7076 23.4234 24.993 23.5147 25.324 23.5147ZM26.728 15.2276C26.397 15.2276 26.1116 15.1134 25.8719 14.8852C25.6436 14.6454 25.5295 14.3658 25.5295 14.0462C25.5295 13.7151 25.6436 13.4298 25.8719 13.1901C26.1116 12.9504 26.397 12.8305 26.728 12.8305C27.0476 12.8305 27.3216 12.9504 27.5499 13.1901C27.7782 13.4298 27.8923 13.7151 27.8923 14.0462C27.8923 14.3658 27.7782 14.6454 27.5499 14.8852C27.3216 15.1134 27.0476 15.2276 26.728 15.2276ZM23.7659 15.2105C23.4349 15.2105 23.1495 15.0963 22.9098 14.868C22.6815 14.6283 22.5673 14.3487 22.5673 14.029C22.5673 13.698 22.6815 13.4127 22.9098 13.1729C23.1495 12.9332 23.4349 12.8134 23.7659 12.8134C24.0855 12.8134 24.3595 12.9332 24.5878 13.1729C24.816 13.4127 24.9302 13.698 24.9302 14.029C24.9302 14.3487 24.816 14.6283 24.5878 14.868C24.3595 15.0963 24.0855 15.2105 23.7659 15.2105ZM33.1095 23.5147C33.6231 23.5147 34.0169 23.469 34.2909 23.3777C34.5648 23.2864 34.7532 23.1665 34.8559 23.0181C34.9587 22.8698 35.01 22.71 35.01 22.5387C35.01 22.2648 34.9301 21.9452 34.7703 21.5799C34.6219 21.2146 34.4336 20.8322 34.2053 20.4327C33.977 20.0332 33.7373 19.6508 33.4862 19.2855C33.2464 18.9203 33.0296 18.6006 32.8355 18.3267L34.873 16.974C35.3639 17.6361 35.7862 18.2925 36.1401 18.9431C36.4939 19.5823 36.7793 20.1759 36.9962 20.7238C37.2245 21.2717 37.3843 21.7397 37.4756 22.1278C37.5669 22.4931 37.7039 22.7784 37.8865 22.9839C38.0806 23.178 38.3032 23.3149 38.5543 23.3948C38.8054 23.4747 39.0565 23.5147 39.3077 23.5147C39.7414 23.5147 40.0496 23.6288 40.2323 23.8571C40.4263 24.074 40.5233 24.348 40.5233 24.679C40.5233 25.0328 40.4035 25.3296 40.1638 25.5693C39.9355 25.7976 39.593 25.9118 39.1364 25.9118C38.6342 25.9118 38.1947 25.8433 37.818 25.7063C37.4414 25.5693 37.1217 25.3525 36.8592 25.0557C36.5967 24.7589 36.3741 24.3822 36.1914 23.9256L37.2359 24.1482C37.1446 24.4678 36.9334 24.7646 36.6024 25.0386C36.2828 25.3011 35.8547 25.518 35.3182 25.6892C34.7931 25.849 34.171 25.9289 33.4519 25.9289C33.1095 25.9289 32.7271 25.9004 32.3047 25.8433C31.8938 25.7862 31.4829 25.7006 31.0719 25.5865C30.6724 25.4723 30.3072 25.3239 29.9761 25.1413L30.8151 22.9668C31.2375 23.1494 31.6427 23.2864 32.0308 23.3777C32.4303 23.469 32.7899 23.5147 33.1095 23.5147ZM39.1585 25.9118L39.3297 23.5147C39.9461 23.5147 40.5568 23.4804 41.1618 23.412C41.7668 23.3435 42.3546 23.2407 42.9254 23.1038C43.4961 22.9668 44.0383 22.7899 44.552 22.573C45.0771 22.3561 45.5679 22.0936 46.0245 21.7854C45.682 21.5799 45.3111 21.403 44.9115 21.2546C44.512 21.1062 44.084 20.9977 43.6274 20.9293C43.1822 20.8493 42.7085 20.8094 42.2063 20.8094C42.0236 20.8094 41.8296 20.8151 41.6241 20.8265C41.43 20.8379 41.2303 20.8608 41.0248 20.895C40.8194 20.9178 40.6139 20.9521 40.4084 20.9977L40.066 18.652C40.397 18.5607 40.7452 18.4979 41.1104 18.4637C41.4871 18.418 41.8181 18.3952 42.1035 18.3952C42.7199 18.3952 43.2849 18.4637 43.7986 18.6006C44.3237 18.7376 44.8031 18.9088 45.2369 19.1143C45.682 19.3198 46.093 19.5252 46.4697 19.7307C46.8578 19.9362 47.223 20.1074 47.5655 20.2444C47.9193 20.3813 48.2618 20.4498 48.5928 20.4498H49.2263L49.5003 22.7271C49.0094 22.7499 48.5471 22.8469 48.1134 23.0181C47.691 23.178 47.2687 23.3834 46.8463 23.6345C46.4354 23.8743 45.9902 24.1254 45.5108 24.3879C45.0428 24.6505 44.512 24.8959 43.9185 25.1242C43.3249 25.3525 42.64 25.5408 41.8638 25.6892C41.0876 25.8376 40.1858 25.9118 39.1585 25.9118ZM44.2951 29.8499C43.9641 29.8499 43.6788 29.7357 43.439 29.5074C43.2107 29.2791 43.0966 28.9995 43.0966 28.6684C43.0966 28.3374 43.2107 28.0463 43.439 27.7952C43.6788 27.5555 43.9641 27.4356 44.2951 27.4356C44.6262 27.4356 44.9058 27.5555 45.1341 27.7952C45.3738 28.0463 45.4937 28.3374 45.4937 28.6684C45.4937 28.9995 45.3738 29.2791 45.1341 29.5074C44.9058 29.7357 44.6262 29.8499 44.2951 29.8499Z" fill="#707070"></path>
</g>
<defs>
<filter id="filter0_d_3338_264304" x="0" y="0.125" width="70.1738" height="46.4028" filterUnits="userSpaceOnUse" color-interpolation-filters="sRGB">
<feFlood flood-opacity="0" result="BackgroundImageFix"></feFlood>
<feColorMatrix in="SourceAlpha" type="matrix" values="0 0 0 0 0 0 0 0 0 0 0 0 0 0 0 0 0 0 127 0" result="hardAlpha"></feColorMatrix>
<feOffset dy="2"></feOffset>
<feGaussianBlur stdDeviation="2"></feGaussianBlur>
<feComposite in2="hardAlpha" operator="out"></feComposite>
<feColorMatrix type="matrix" values="0 0 0 0 0 0 0 0 0 0 0 0 0 0 0 0 0 0 0.25 0"></feColorMatrix>
<feBlend mode="normal" in2="BackgroundImageFix" result="effect1_dropShadow_3338_264304"></feBlend>
<feBlend mode="normal" in="SourceGraphic" in2="effect1_dropShadow_3338_264304" result="shape"></feBlend>
</filter>
</defs>
</svg>