<svg width="74" height="52" viewBox="0 0 74 52" fill="none" xmlns="http://www.w3.org/2000/svg">
<g filter="url(#filter0_d_5088_4480)">
<rect x="4" y="2.46289" width="65.1741" height="43.4026" rx="14.9818" fill="white"></rect>
<path class="text" d="M27.3041 28.1953C26.2254 28.1953 25.6775 27.9213 25.5748 27.1679L25.5234 26.8426C25.4378 25.3016 25.2837 23.7949 25.0953 22.6306H23.2119C23.5544 25.3188 23.8112 27.596 23.8112 29.6506C23.8112 31.2601 22.7839 32.0477 21.1915 32.0477V33.8456C23.8968 33.8456 25.6261 32.3731 25.6261 29.7876V29.4965C25.9514 29.9588 26.4994 30.1643 27.3041 30.1643C27.4068 30.1643 27.4753 30.0787 27.4753 29.976V28.3665C27.4753 28.2638 27.4068 28.1953 27.3041 28.1953ZM32.4352 28.1953C31.7846 28.1953 31.1853 28.1097 30.5176 27.7843C30.8258 26.8084 30.9799 25.5071 30.9799 23.8291H29.2334C29.2334 25.5927 29.1307 26.6885 28.8396 27.3392C28.5656 27.9384 28.1033 28.1953 27.2986 28.1953C27.1959 28.1953 27.1274 28.2638 27.1274 28.3665V29.976C27.1274 30.0787 27.1959 30.1643 27.2986 30.1643C28.3602 30.1643 29.182 29.839 29.7642 29.1712C30.6203 29.8561 31.4422 30.1643 32.4352 30.1643C32.538 30.1643 32.6065 30.0787 32.6065 29.976V28.3665C32.6065 28.2638 32.538 28.1953 32.4352 28.1953ZM28.3088 32.7669L29.8327 34.2736L31.3394 32.7669L29.8156 31.2601L28.3088 32.7669ZM38.1678 19.3089L36.6439 17.8022L35.1372 19.3089L36.661 20.8156L38.1678 19.3089ZM43.2359 28.1953C42.0031 28.1953 41.421 27.8528 41.2498 27.2536L42.0374 27.0995L42.551 25.216C39.5718 24.4798 38.2363 21.8601 35.668 21.8601C34.9488 21.8601 34.0585 22.0998 33.5277 22.4251V24.2229C34.264 23.9661 34.9146 23.8291 35.5824 23.8291C37.2432 23.8291 38.1678 25.1304 40.0855 26.1064C38.0822 26.894 36.4898 28.1953 32.449 28.1953C32.3463 28.1953 32.2607 28.2638 32.2607 28.3665V29.976C32.2607 30.0787 32.3463 30.1643 32.449 30.1643C37.0377 30.1643 37.7569 28.6404 39.9827 27.6816C40.1711 29.3424 41.2669 30.1643 43.2359 30.1643C43.3387 30.1643 43.4072 30.0787 43.4072 29.976V28.3665C43.4072 28.2638 43.3387 28.1953 43.2359 28.1953ZM45.0142 17.7508V26.757C45.0142 27.733 44.6033 28.1953 43.2335 28.1953C43.1308 28.1953 43.0623 28.2638 43.0623 28.3665V29.976C43.0623 30.0787 43.1308 30.1643 43.2335 30.1643C45.6306 30.1643 46.8976 28.8288 46.8976 26.894V17.7508H45.0142ZM51.6053 17.7508H49.7219V30.1643H51.6053V17.7508Z" fill="#707070"></path>
</g>
<defs>
<filter id="filter0_d_5088_4480" x="0" y="0.462891" width="73.1741" height="51.4026" filterUnits="userSpaceOnUse" color-interpolation-filters="sRGB">
<feFlood flood-opacity="0" result="BackgroundImageFix"></feFlood>
<feColorMatrix in="SourceAlpha" type="matrix" values="0 0 0 0 0 0 0 0 0 0 0 0 0 0 0 0 0 0 127 0" result="hardAlpha"></feColorMatrix>
<feOffset dy="2"></feOffset>
<feGaussianBlur stdDeviation="2"></feGaussianBlur>
<feComposite in2="hardAlpha" operator="out"></feComposite>
<feColorMatrix type="matrix" values="0 0 0 0 0 0 0 0 0 0 0 0 0 0 0 0 0 0 0.25 0"></feColorMatrix>
<feBlend mode="normal" in2="BackgroundImageFix" result="effect1_dropShadow_5088_4480"></feBlend>
<feBlend mode="normal" in="SourceGraphic" in2="effect1_dropShadow_5088_4480" result="shape"></feBlend>
</filter>
</defs>
</svg>