<svg width="1272" height="788" viewBox="0 0 1272 788" fill="none" xmlns="http://www.w3.org/2000/svg">
<path d="M1235.97 685.055H1237.43V687.521C1237.43 688.685 1237.72 689.501 1238.31 689.969C1238.91 690.437 1239.79 690.671 1240.96 690.671C1241.56 690.671 1242.07 690.623 1242.51 690.527C1242.94 690.443 1243.29 690.287 1243.57 690.059C1243.86 689.843 1244.07 689.543 1244.2 689.159C1244.33 688.763 1244.4 688.265 1244.4 687.665V683.039H1245.85V687.683C1245.85 688.475 1245.74 689.153 1245.51 689.717C1245.3 690.281 1244.98 690.743 1244.56 691.103C1244.14 691.463 1243.62 691.727 1243.01 691.895C1242.4 692.063 1241.7 692.147 1240.92 692.147C1239.28 692.147 1238.04 691.775 1237.21 691.031C1236.39 690.287 1235.97 689.219 1235.97 687.827V685.055ZM1240.02 682.373C1240.02 682.109 1240.11 681.887 1240.29 681.707C1240.48 681.515 1240.71 681.419 1240.98 681.419C1241.24 681.419 1241.46 681.515 1241.64 681.707C1241.83 681.887 1241.93 682.109 1241.93 682.373C1241.93 682.637 1241.83 682.865 1241.64 683.057C1241.46 683.237 1241.24 683.327 1240.98 683.327C1240.71 683.327 1240.48 683.237 1240.29 683.057C1240.11 682.865 1240.02 682.637 1240.02 682.373ZM1252.14 689.195C1252.14 689.495 1252.08 689.699 1251.96 689.807C1251.85 689.915 1251.67 689.969 1251.42 689.969H1250.95C1250.57 689.969 1250.21 689.933 1249.89 689.861C1249.58 689.777 1249.31 689.639 1249.08 689.447C1248.86 689.255 1248.69 689.003 1248.56 688.691C1248.44 688.367 1248.38 687.965 1248.38 687.485V677.117H1249.85V687.089C1249.85 687.593 1249.93 687.953 1250.09 688.169C1250.24 688.373 1250.59 688.475 1251.13 688.475H1251.42C1251.9 688.475 1252.14 688.715 1252.14 689.195ZM1262.49 689.969C1262.04 689.969 1261.64 689.879 1261.3 689.699C1260.97 689.519 1260.7 689.213 1260.49 688.781V688.745C1260.27 689.201 1259.93 689.561 1259.49 689.825C1259.05 690.077 1258.51 690.203 1257.85 690.203C1257.28 690.203 1256.71 690.107 1256.14 689.915C1255.56 689.723 1254.97 689.399 1254.36 688.943C1254.2 689.183 1254.04 689.375 1253.87 689.519C1253.71 689.651 1253.55 689.753 1253.37 689.825C1253.19 689.885 1253 689.927 1252.81 689.951C1252.62 689.963 1252.41 689.969 1252.2 689.969H1251.42C1250.94 689.969 1250.7 689.729 1250.7 689.249C1250.7 688.949 1250.76 688.745 1250.88 688.637C1250.99 688.529 1251.17 688.475 1251.42 688.475H1252.16C1252.3 688.475 1252.45 688.457 1252.61 688.421C1252.77 688.385 1252.92 688.307 1253.08 688.187C1253.23 688.067 1253.38 687.905 1253.53 687.701C1253.68 687.485 1253.83 687.197 1253.96 686.837C1254.24 686.069 1254.52 685.451 1254.82 684.983C1255.14 684.503 1255.45 684.137 1255.76 683.885C1256.08 683.621 1256.41 683.447 1256.73 683.363C1257.07 683.279 1257.4 683.237 1257.72 683.237C1258.18 683.237 1258.6 683.327 1258.98 683.507C1259.37 683.675 1259.7 683.921 1259.97 684.245C1260.26 684.557 1260.48 684.935 1260.64 685.379C1260.81 685.811 1260.89 686.297 1260.89 686.837C1260.89 686.921 1260.88 687.005 1260.87 687.089C1260.87 687.161 1260.87 687.233 1260.87 687.305C1260.99 687.689 1261.17 687.983 1261.39 688.187C1261.63 688.379 1262 688.475 1262.49 688.475C1262.97 688.475 1263.21 688.715 1263.21 689.195C1263.21 689.495 1263.15 689.699 1263.03 689.807C1262.92 689.915 1262.74 689.969 1262.49 689.969ZM1259.4 686.783C1259.4 686.519 1259.35 686.261 1259.27 686.009C1259.2 685.757 1259.08 685.535 1258.93 685.343C1258.78 685.151 1258.6 685.001 1258.39 684.893C1258.17 684.773 1257.92 684.713 1257.63 684.713C1257.13 684.713 1256.67 684.935 1256.25 685.379C1255.83 685.823 1255.43 686.603 1255.06 687.719C1255.5 688.007 1255.94 688.241 1256.37 688.421C1256.82 688.589 1257.27 688.673 1257.72 688.673C1258.23 688.673 1258.63 688.529 1258.93 688.241C1259.24 687.953 1259.4 687.467 1259.4 686.783ZM1262.5 689.969C1262.02 689.969 1261.78 689.729 1261.78 689.249C1261.78 688.949 1261.84 688.745 1261.96 688.637C1262.07 688.529 1262.25 688.475 1262.5 688.475H1264.71C1264.5 688.247 1264.32 687.953 1264.17 687.593C1264.03 687.233 1263.96 686.825 1263.96 686.369C1263.96 685.745 1264.07 685.205 1264.3 684.749C1264.54 684.293 1264.84 683.915 1265.22 683.615C1265.6 683.315 1266.02 683.093 1266.48 682.949C1266.94 682.805 1267.41 682.733 1267.88 682.733C1268.3 682.733 1268.67 682.757 1268.98 682.805C1269.29 682.853 1269.51 682.907 1269.64 682.967V684.569C1269.42 684.497 1269.17 684.437 1268.91 684.389C1268.64 684.329 1268.32 684.299 1267.93 684.299C1267.18 684.299 1266.58 684.485 1266.13 684.857C1265.69 685.229 1265.47 685.739 1265.47 686.387C1265.47 686.999 1265.66 687.503 1266.04 687.899C1266.43 688.283 1267.01 688.475 1267.79 688.475H1270.42V689.969H1262.5Z" fill="#F3D3B5" fill-opacity="0.6"></path>
<path d="M1113.55 428.271C1113.55 428.775 1113.71 429.183 1114.02 429.495C1114.34 429.807 1114.85 429.963 1115.55 429.963C1115.81 429.963 1116.1 429.933 1116.4 429.873C1116.71 429.813 1116.98 429.735 1117.22 429.639V426.435H1115.64C1115.06 426.435 1114.57 426.585 1114.16 426.885C1113.76 427.173 1113.55 427.635 1113.55 428.271ZM1115.42 431.493C1115.14 431.493 1114.8 431.451 1114.42 431.367C1114.04 431.283 1113.68 431.133 1113.34 430.917C1113 430.689 1112.71 430.377 1112.47 429.981C1112.23 429.573 1112.11 429.045 1112.11 428.397C1112.11 427.749 1112.23 427.209 1112.45 426.777C1112.68 426.333 1112.98 425.973 1113.34 425.697C1113.7 425.421 1114.09 425.223 1114.52 425.103C1114.97 424.983 1115.41 424.923 1115.84 424.923H1118.7V430.089C1118.7 430.593 1118.78 430.953 1118.93 431.169C1119.09 431.373 1119.44 431.475 1119.98 431.475H1120.41C1120.89 431.475 1121.13 431.715 1121.13 432.195C1121.13 432.495 1121.07 432.699 1120.95 432.807C1120.84 432.915 1120.66 432.969 1120.41 432.969H1119.8C1119.49 432.969 1119.19 432.945 1118.9 432.897C1118.62 432.837 1118.37 432.741 1118.14 432.609C1117.93 432.465 1117.74 432.279 1117.58 432.051C1117.43 431.823 1117.33 431.529 1117.28 431.169C1117.01 431.265 1116.71 431.343 1116.38 431.403C1116.05 431.463 1115.74 431.493 1115.42 431.493ZM1113.95 421.647C1113.95 421.383 1114.04 421.161 1114.22 420.981C1114.41 420.789 1114.64 420.693 1114.9 420.693C1115.17 420.693 1115.39 420.789 1115.57 420.981C1115.76 421.161 1115.86 421.383 1115.86 421.647C1115.86 421.911 1115.76 422.139 1115.57 422.331C1115.39 422.511 1115.17 422.601 1114.9 422.601C1114.64 422.601 1114.41 422.511 1114.22 422.331C1114.04 422.139 1113.95 421.911 1113.95 421.647ZM1116.29 421.647C1116.29 421.383 1116.38 421.161 1116.56 420.981C1116.75 420.789 1116.98 420.693 1117.24 420.693C1117.51 420.693 1117.73 420.789 1117.91 420.981C1118.1 421.161 1118.2 421.383 1118.2 421.647C1118.2 421.911 1118.1 422.139 1117.91 422.331C1117.73 422.511 1117.51 422.601 1117.24 422.601C1116.98 422.601 1116.75 422.511 1116.56 422.331C1116.38 422.139 1116.29 421.911 1116.29 421.647ZM1120.41 432.969C1119.93 432.969 1119.69 432.729 1119.69 432.249C1119.69 431.949 1119.75 431.745 1119.87 431.637C1119.98 431.529 1120.16 431.475 1120.41 431.475H1121.61C1121.9 431.475 1122.15 431.463 1122.35 431.439C1122.56 431.415 1122.72 431.361 1122.86 431.277C1123 431.181 1123.1 431.049 1123.16 430.881C1123.23 430.701 1123.27 430.461 1123.27 430.161V426.039H1124.75V429.495C1124.75 429.795 1124.76 430.071 1124.8 430.323C1124.85 430.563 1124.93 430.767 1125.05 430.935C1125.17 431.103 1125.33 431.235 1125.54 431.331C1125.74 431.427 1126 431.475 1126.31 431.475C1126.79 431.475 1127.03 431.715 1127.03 432.195C1127.03 432.495 1126.97 432.699 1126.85 432.807C1126.74 432.915 1126.56 432.969 1126.31 432.969C1125.84 432.969 1125.47 432.861 1125.18 432.645C1124.89 432.417 1124.7 432.135 1124.6 431.799C1124.39 432.291 1124.04 432.609 1123.58 432.753C1123.12 432.897 1122.56 432.969 1121.88 432.969H1120.41ZM1121.83 435.687C1121.83 435.423 1121.92 435.195 1122.1 435.003C1122.29 434.823 1122.52 434.733 1122.78 434.733C1123.05 434.733 1123.27 434.823 1123.45 435.003C1123.64 435.195 1123.74 435.423 1123.74 435.687C1123.74 435.951 1123.64 436.173 1123.45 436.353C1123.27 436.545 1123.05 436.641 1122.78 436.641C1122.52 436.641 1122.29 436.545 1122.1 436.353C1121.92 436.173 1121.83 435.951 1121.83 435.687ZM1124.17 435.687C1124.17 435.423 1124.26 435.195 1124.44 435.003C1124.63 434.823 1124.86 434.733 1125.12 434.733C1125.39 434.733 1125.61 434.823 1125.79 435.003C1125.98 435.195 1126.08 435.423 1126.08 435.687C1126.08 435.951 1125.98 436.173 1125.79 436.353C1125.61 436.545 1125.39 436.641 1125.12 436.641C1124.86 436.641 1124.63 436.545 1124.44 436.353C1124.26 436.173 1124.17 435.951 1124.17 435.687ZM1126.31 432.969C1125.83 432.969 1125.59 432.729 1125.59 432.249C1125.59 431.949 1125.65 431.745 1125.77 431.637C1125.88 431.529 1126.06 431.475 1126.31 431.475H1129.12V426.039H1130.6V432.969H1126.31ZM1128.6 435.651C1128.6 435.387 1128.69 435.159 1128.87 434.967C1129.06 434.787 1129.29 434.697 1129.55 434.697C1129.82 434.697 1130.04 434.787 1130.22 434.967C1130.41 435.159 1130.51 435.387 1130.51 435.651C1130.51 435.915 1130.41 436.137 1130.22 436.317C1130.04 436.509 1129.82 436.605 1129.55 436.605C1129.29 436.605 1129.06 436.509 1128.87 436.317C1128.69 436.137 1128.6 435.915 1128.6 435.651ZM1137.45 432.969C1137.05 432.969 1136.72 432.879 1136.46 432.699C1136.19 432.519 1136 432.309 1135.86 432.069C1135.86 432.933 1135.81 433.659 1135.7 434.247C1135.59 434.847 1135.4 435.327 1135.11 435.687C1134.83 436.059 1134.44 436.323 1133.94 436.479C1133.43 436.647 1132.78 436.731 1131.98 436.731V435.237C1132.56 435.237 1133.02 435.171 1133.34 435.039C1133.68 434.919 1133.93 434.715 1134.08 434.427C1134.25 434.151 1134.35 433.791 1134.37 433.347C1134.41 432.915 1134.42 432.387 1134.42 431.763V426.939H1135.88V429.495C1135.88 430.107 1135.99 430.593 1136.21 430.953C1136.43 431.301 1136.85 431.475 1137.45 431.475C1137.93 431.475 1138.17 431.715 1138.17 432.195C1138.17 432.495 1138.11 432.699 1137.99 432.807C1137.88 432.915 1137.7 432.969 1137.45 432.969ZM1137.44 432.969C1136.96 432.969 1136.72 432.729 1136.72 432.249C1136.72 431.949 1136.78 431.745 1136.9 431.637C1137.01 431.529 1137.19 431.475 1137.44 431.475H1138.25C1138.71 431.475 1139.16 431.445 1139.6 431.385C1140.04 431.325 1140.47 431.229 1140.88 431.097L1138.63 428.541C1138.66 428.409 1138.71 428.271 1138.75 428.127C1138.81 427.983 1138.87 427.845 1138.93 427.713C1139.01 427.569 1139.07 427.443 1139.13 427.335C1139.2 427.215 1139.28 427.119 1139.35 427.047C1139.73 426.663 1140.19 426.357 1140.73 426.129C1141.29 425.901 1141.88 425.787 1142.52 425.787C1143.04 425.787 1143.5 425.853 1143.88 425.985C1144.28 426.105 1144.6 426.273 1144.86 426.489C1145.12 426.693 1145.31 426.933 1145.43 427.209C1145.56 427.473 1145.63 427.743 1145.63 428.019C1145.63 428.679 1145.44 429.297 1145.05 429.873C1144.68 430.449 1144.18 430.959 1143.54 431.403C1143.77 431.451 1144.07 431.475 1144.44 431.475H1146.96C1147.44 431.475 1147.68 431.715 1147.68 432.195C1147.68 432.495 1147.62 432.699 1147.5 432.807C1147.39 432.915 1147.21 432.969 1146.96 432.969H1143.96C1143.61 432.969 1143.27 432.927 1142.95 432.843C1142.64 432.747 1142.31 432.549 1141.96 432.249C1141.39 432.477 1140.81 432.657 1140.19 432.789C1139.58 432.909 1138.96 432.969 1138.32 432.969H1137.44ZM1142.43 427.191C1141.95 427.191 1141.49 427.287 1141.06 427.479C1140.64 427.671 1140.3 427.923 1140.05 428.235L1142.25 430.557C1142.82 430.269 1143.28 429.927 1143.63 429.531C1143.99 429.135 1144.17 428.715 1144.17 428.271C1144.17 427.995 1144.03 427.749 1143.74 427.533C1143.46 427.305 1143.03 427.191 1142.43 427.191ZM1146.97 432.969C1146.49 432.969 1146.25 432.729 1146.25 432.249C1146.25 431.949 1146.31 431.745 1146.43 431.637C1146.54 431.529 1146.72 431.475 1146.97 431.475H1149.78V420.117H1151.25V432.969H1146.97ZM1155.24 420.117V432.969H1153.76V420.117H1155.24ZM1176.05 432.969H1165.14C1164.44 432.969 1163.86 432.921 1163.39 432.825C1162.94 432.729 1162.57 432.579 1162.28 432.375C1162 432.159 1161.8 431.889 1161.68 431.565C1161.56 431.229 1161.5 430.821 1161.5 430.341V427.551H1162.98V429.801C1162.98 430.173 1163.02 430.473 1163.11 430.701C1163.2 430.917 1163.36 431.085 1163.57 431.205C1163.79 431.313 1164.08 431.385 1164.46 431.421C1164.83 431.457 1165.3 431.475 1165.88 431.475H1174.57V426.039H1176.05V432.969ZM1166.76 424.077C1166.76 423.813 1166.85 423.591 1167.03 423.411C1167.22 423.219 1167.45 423.123 1167.71 423.123C1167.98 423.123 1168.2 423.219 1168.38 423.411C1168.57 423.591 1168.67 423.813 1168.67 424.077C1168.67 424.341 1168.57 424.569 1168.38 424.761C1168.2 424.941 1167.98 425.031 1167.71 425.031C1167.45 425.031 1167.22 424.941 1167.03 424.761C1166.85 424.569 1166.76 424.341 1166.76 424.077ZM1169.1 424.077C1169.1 423.813 1169.19 423.591 1169.37 423.411C1169.56 423.219 1169.79 423.123 1170.05 423.123C1170.32 423.123 1170.54 423.219 1170.72 423.411C1170.91 423.591 1171.01 423.813 1171.01 424.077C1171.01 424.341 1170.91 424.569 1170.72 424.761C1170.54 424.941 1170.32 425.031 1170.05 425.031C1169.79 425.031 1169.56 424.941 1169.37 424.761C1169.19 424.569 1169.1 424.341 1169.1 424.077ZM1180.04 420.117V432.969H1178.57V420.117H1180.04ZM1183.85 426.939H1185.31V431.961C1185.31 432.849 1185.26 433.593 1185.15 434.193C1185.05 434.805 1184.86 435.297 1184.57 435.669C1184.29 436.041 1183.88 436.311 1183.37 436.479C1182.86 436.647 1182.21 436.731 1181.41 436.731V435.237C1181.99 435.237 1182.45 435.171 1182.77 435.039C1183.11 434.919 1183.36 434.715 1183.51 434.427C1183.68 434.151 1183.78 433.791 1183.8 433.347C1183.84 432.915 1183.85 432.387 1183.85 431.763V426.939ZM1191.59 432.195C1191.59 432.495 1191.53 432.699 1191.41 432.807C1191.31 432.915 1191.13 432.969 1190.87 432.969H1190.41C1190.02 432.969 1189.67 432.933 1189.34 432.861C1189.03 432.777 1188.76 432.639 1188.53 432.447C1188.32 432.255 1188.14 432.003 1188.01 431.691C1187.89 431.367 1187.83 430.965 1187.83 430.485V420.117H1189.31V430.089C1189.31 430.593 1189.39 430.953 1189.54 431.169C1189.7 431.373 1190.05 431.475 1190.59 431.475H1190.87C1191.35 431.475 1191.59 431.715 1191.59 432.195ZM1190.88 432.969C1190.4 432.969 1190.16 432.729 1190.16 432.249C1190.16 431.949 1190.22 431.745 1190.34 431.637C1190.45 431.529 1190.63 431.475 1190.88 431.475H1191.62C1191.76 431.475 1191.91 431.457 1192.07 431.421C1192.22 431.385 1192.38 431.307 1192.53 431.187C1192.69 431.067 1192.84 430.905 1192.98 430.701C1193.14 430.485 1193.28 430.197 1193.42 429.837C1193.69 429.069 1193.98 428.451 1194.28 427.983C1194.59 427.503 1194.9 427.137 1195.22 426.885C1195.54 426.621 1195.86 426.447 1196.19 426.363C1196.52 426.279 1196.85 426.237 1197.18 426.237C1197.63 426.237 1198.05 426.327 1198.44 426.507C1198.82 426.675 1199.15 426.921 1199.43 427.245C1199.72 427.557 1199.94 427.935 1200.09 428.379C1200.26 428.811 1200.35 429.297 1200.35 429.837C1200.35 430.869 1200.09 431.691 1199.59 432.303C1199.1 432.903 1198.34 433.203 1197.3 433.203C1196.74 433.203 1196.17 433.107 1195.59 432.915C1195.02 432.723 1194.42 432.399 1193.81 431.943C1193.66 432.183 1193.49 432.375 1193.33 432.519C1193.17 432.651 1193 432.753 1192.82 432.825C1192.64 432.885 1192.46 432.927 1192.26 432.951C1192.07 432.963 1191.87 432.969 1191.65 432.969H1190.88ZM1198.85 429.783C1198.85 429.519 1198.81 429.261 1198.73 429.009C1198.65 428.757 1198.54 428.535 1198.38 428.343C1198.24 428.151 1198.06 428.001 1197.84 427.893C1197.63 427.773 1197.38 427.713 1197.09 427.713C1196.58 427.713 1196.12 427.935 1195.7 428.379C1195.28 428.823 1194.89 429.603 1194.51 430.719C1194.96 431.007 1195.4 431.241 1195.83 431.421C1196.27 431.589 1196.72 431.673 1197.18 431.673C1197.68 431.673 1198.08 431.529 1198.38 431.241C1198.7 430.953 1198.85 430.467 1198.85 429.783ZM1212.18 420.117V432.969H1201.95V431.475L1206 431.475V424.617H1207.48V431.475H1210.7V420.117H1212.18ZM1208.4 437.451H1205.1V436.623H1205.91C1205.74 436.347 1205.66 436.047 1205.66 435.723C1205.66 435.459 1205.7 435.225 1205.79 435.021C1205.87 434.817 1205.98 434.649 1206.13 434.517C1206.27 434.385 1206.43 434.283 1206.61 434.211C1206.81 434.139 1207 434.103 1207.19 434.103C1207.39 434.103 1207.57 434.115 1207.71 434.139C1207.87 434.163 1207.98 434.205 1208.05 434.265V435.111C1207.81 435.003 1207.56 434.949 1207.28 434.949C1206.99 434.949 1206.78 435.033 1206.65 435.201C1206.52 435.369 1206.45 435.555 1206.45 435.759C1206.45 435.999 1206.53 436.203 1206.69 436.371C1206.84 436.539 1207.08 436.623 1207.39 436.623H1208.4V437.451ZM1216.17 420.117V432.969H1214.69V420.117H1216.17Z" fill="#F3D3B5" fill-opacity="0.6"></path>
<path d="M1140.37 448.245C1140.07 448.245 1139.8 448.317 1139.55 448.461C1139.29 448.593 1139.08 448.773 1138.9 449.001C1138.72 449.229 1138.57 449.493 1138.47 449.793C1138.37 450.093 1138.32 450.411 1138.32 450.747C1138.32 451.071 1138.38 451.353 1138.48 451.593C1138.59 451.821 1138.74 452.013 1138.92 452.169C1139.11 452.313 1139.32 452.421 1139.56 452.493C1139.82 452.553 1140.08 452.583 1140.36 452.583C1140.61 452.583 1140.85 452.559 1141.09 452.511C1141.35 452.451 1141.57 452.355 1141.76 452.223C1141.95 452.079 1142.11 451.899 1142.23 451.683C1142.35 451.455 1142.41 451.167 1142.41 450.819C1142.41 450.423 1142.35 450.069 1142.23 449.757C1142.12 449.445 1141.97 449.175 1141.78 448.947C1141.6 448.719 1141.38 448.545 1141.13 448.425C1140.89 448.305 1140.64 448.245 1140.37 448.245ZM1136.97 450.891C1136.97 450.411 1137.05 449.931 1137.21 449.451C1137.36 448.959 1137.59 448.515 1137.89 448.119C1138.19 447.723 1138.55 447.405 1138.97 447.165C1139.4 446.913 1139.89 446.787 1140.43 446.787C1140.9 446.787 1141.33 446.883 1141.72 447.075C1142.13 447.255 1142.49 447.525 1142.79 447.885C1143.1 448.233 1143.34 448.659 1143.51 449.163C1143.69 449.667 1143.78 450.243 1143.78 450.891C1143.78 451.287 1143.71 451.677 1143.58 452.061C1143.46 452.433 1143.25 452.769 1142.97 453.069C1142.69 453.357 1142.33 453.597 1141.89 453.789C1141.45 453.969 1140.93 454.059 1140.32 454.059C1139.82 454.059 1139.36 453.999 1138.95 453.879C1138.54 453.747 1138.19 453.549 1137.89 453.285C1137.6 453.021 1137.37 452.691 1137.21 452.295C1137.05 451.899 1136.97 451.431 1136.97 450.891ZM1138.12 444.015C1138.12 443.751 1138.21 443.529 1138.39 443.349C1138.59 443.157 1138.81 443.061 1139.08 443.061C1139.34 443.061 1139.56 443.157 1139.74 443.349C1139.94 443.529 1140.03 443.751 1140.03 444.015C1140.03 444.279 1139.94 444.507 1139.74 444.699C1139.56 444.879 1139.34 444.969 1139.08 444.969C1138.81 444.969 1138.59 444.879 1138.39 444.699C1138.21 444.507 1138.12 444.279 1138.12 444.015ZM1140.46 444.015C1140.46 443.751 1140.55 443.529 1140.73 443.349C1140.93 443.157 1141.15 443.061 1141.42 443.061C1141.68 443.061 1141.9 443.157 1142.08 443.349C1142.28 443.529 1142.37 443.751 1142.37 444.015C1142.37 444.279 1142.28 444.507 1142.08 444.699C1141.9 444.879 1141.68 444.969 1141.42 444.969C1141.15 444.969 1140.93 444.879 1140.73 444.699C1140.55 444.507 1140.46 444.279 1140.46 444.015ZM1153.1 453.969C1152.6 453.969 1152.19 453.867 1151.85 453.663C1151.52 453.459 1151.18 453.093 1150.85 452.565C1150.71 452.889 1150.54 453.147 1150.32 453.339C1150.12 453.531 1149.89 453.675 1149.62 453.771C1149.37 453.855 1149.1 453.909 1148.81 453.933C1148.52 453.957 1148.24 453.969 1147.95 453.969H1145.21V452.475H1148.43C1148.94 452.475 1149.32 452.415 1149.59 452.295C1149.86 452.163 1150 451.977 1150 451.737C1150 451.509 1149.94 451.281 1149.82 451.053C1149.7 450.825 1149.55 450.579 1149.37 450.315L1147.46 447.489L1148.85 446.625L1151.01 450.207C1151.25 450.603 1151.46 450.945 1151.64 451.233C1151.82 451.521 1151.99 451.755 1152.14 451.935C1152.31 452.115 1152.47 452.253 1152.61 452.349C1152.77 452.433 1152.93 452.475 1153.1 452.475C1153.58 452.475 1153.82 452.715 1153.82 453.195C1153.82 453.495 1153.76 453.699 1153.64 453.807C1153.53 453.915 1153.35 453.969 1153.1 453.969ZM1153.09 453.969C1152.61 453.969 1152.37 453.729 1152.37 453.249C1152.37 452.949 1152.43 452.745 1152.55 452.637C1152.66 452.529 1152.84 452.475 1153.09 452.475H1160.31C1160.31 451.707 1160.21 451.059 1160 450.531C1159.8 450.003 1159.52 449.577 1159.18 449.253C1158.83 448.917 1158.42 448.677 1157.95 448.533C1157.5 448.377 1157 448.299 1156.48 448.299C1156.13 448.299 1155.76 448.335 1155.36 448.407C1154.98 448.467 1154.66 448.533 1154.41 448.605V447.165C1154.65 447.093 1154.96 447.015 1155.36 446.931C1155.76 446.835 1156.19 446.787 1156.66 446.787C1157.56 446.787 1158.33 446.937 1158.98 447.237C1159.63 447.537 1160.16 447.951 1160.58 448.479C1161.01 448.995 1161.33 449.601 1161.53 450.297C1161.74 450.981 1161.85 451.707 1161.86 452.475H1162.97C1163.45 452.475 1163.69 452.715 1163.69 453.195C1163.69 453.495 1163.63 453.699 1163.51 453.807C1163.41 453.915 1163.23 453.969 1162.97 453.969H1153.09ZM1162.99 453.969C1162.51 453.969 1162.27 453.729 1162.27 453.249C1162.27 452.949 1162.33 452.745 1162.45 452.637C1162.56 452.529 1162.74 452.475 1162.99 452.475H1164.19C1164.48 452.475 1164.73 452.463 1164.93 452.439C1165.14 452.415 1165.3 452.361 1165.44 452.277C1165.58 452.181 1165.68 452.049 1165.74 451.881C1165.81 451.701 1165.85 451.461 1165.85 451.161V447.039H1167.33V450.495C1167.33 450.795 1167.34 451.071 1167.38 451.323C1167.43 451.563 1167.51 451.767 1167.63 451.935C1167.75 452.103 1167.91 452.235 1168.12 452.331C1168.32 452.427 1168.58 452.475 1168.89 452.475C1169.37 452.475 1169.61 452.715 1169.61 453.195C1169.61 453.495 1169.55 453.699 1169.43 453.807C1169.32 453.915 1169.14 453.969 1168.89 453.969C1168.42 453.969 1168.05 453.861 1167.76 453.645C1167.47 453.417 1167.28 453.135 1167.18 452.799C1166.97 453.291 1166.62 453.609 1166.16 453.753C1165.7 453.897 1165.14 453.969 1164.46 453.969H1162.99ZM1164.41 444.015C1164.41 443.751 1164.5 443.529 1164.68 443.349C1164.87 443.157 1165.1 443.061 1165.36 443.061C1165.63 443.061 1165.85 443.157 1166.03 443.349C1166.22 443.529 1166.32 443.751 1166.32 444.015C1166.32 444.279 1166.22 444.507 1166.03 444.699C1165.85 444.879 1165.63 444.969 1165.36 444.969C1165.1 444.969 1164.87 444.879 1164.68 444.699C1164.5 444.507 1164.41 444.279 1164.41 444.015ZM1166.75 444.015C1166.75 443.751 1166.84 443.529 1167.02 443.349C1167.21 443.157 1167.44 443.061 1167.7 443.061C1167.97 443.061 1168.19 443.157 1168.37 443.349C1168.56 443.529 1168.66 443.751 1168.66 444.015C1168.66 444.279 1168.56 444.507 1168.37 444.699C1168.19 444.879 1167.97 444.969 1167.7 444.969C1167.44 444.969 1167.21 444.879 1167.02 444.699C1166.84 444.507 1166.75 444.279 1166.75 444.015ZM1179.96 453.969C1179.51 453.969 1179.11 453.879 1178.78 453.699C1178.44 453.519 1178.17 453.213 1177.97 452.781V452.745C1177.74 453.201 1177.4 453.561 1176.96 453.825C1176.53 454.077 1175.98 454.203 1175.32 454.203C1174.76 454.203 1174.19 454.107 1173.61 453.915C1173.03 453.723 1172.44 453.399 1171.83 452.943C1171.67 453.183 1171.51 453.375 1171.34 453.519C1171.19 453.651 1171.02 453.753 1170.84 453.825C1170.66 453.885 1170.47 453.927 1170.28 453.951C1170.09 453.963 1169.88 453.969 1169.67 453.969H1168.89C1168.41 453.969 1168.17 453.729 1168.17 453.249C1168.17 452.949 1168.23 452.745 1168.35 452.637C1168.46 452.529 1168.64 452.475 1168.89 452.475H1169.63C1169.78 452.475 1169.93 452.457 1170.08 452.421C1170.24 452.385 1170.39 452.307 1170.55 452.187C1170.71 452.067 1170.86 451.905 1171 451.701C1171.16 451.485 1171.3 451.197 1171.43 450.837C1171.71 450.069 1172 449.451 1172.3 448.983C1172.61 448.503 1172.92 448.137 1173.23 447.885C1173.56 447.621 1173.88 447.447 1174.2 447.363C1174.54 447.279 1174.87 447.237 1175.19 447.237C1175.65 447.237 1176.07 447.327 1176.45 447.507C1176.84 447.675 1177.17 447.921 1177.44 448.245C1177.73 448.557 1177.95 448.935 1178.11 449.379C1178.28 449.811 1178.36 450.297 1178.36 450.837C1178.36 450.921 1178.36 451.005 1178.34 451.089C1178.34 451.161 1178.34 451.233 1178.34 451.305C1178.46 451.689 1178.64 451.983 1178.87 452.187C1179.11 452.379 1179.47 452.475 1179.96 452.475C1180.44 452.475 1180.68 452.715 1180.68 453.195C1180.68 453.495 1180.62 453.699 1180.5 453.807C1180.4 453.915 1180.22 453.969 1179.96 453.969ZM1176.87 450.783C1176.87 450.519 1176.83 450.261 1176.74 450.009C1176.67 449.757 1176.56 449.535 1176.4 449.343C1176.26 449.151 1176.08 449.001 1175.86 448.893C1175.64 448.773 1175.39 448.713 1175.1 448.713C1174.6 448.713 1174.14 448.935 1173.72 449.379C1173.3 449.823 1172.9 450.603 1172.53 451.719C1172.97 452.007 1173.41 452.241 1173.84 452.421C1174.29 452.589 1174.74 452.673 1175.19 452.673C1175.7 452.673 1176.1 452.529 1176.4 452.241C1176.71 451.953 1176.87 451.467 1176.87 450.783ZM1179.97 453.969C1179.49 453.969 1179.25 453.729 1179.25 453.249C1179.25 452.949 1179.31 452.745 1179.43 452.637C1179.54 452.529 1179.72 452.475 1179.97 452.475H1182.78V441.117H1184.25V453.969H1179.97ZM1188.24 441.117V453.969H1186.77V441.117H1188.24Z" fill="#F3D3B5" fill-opacity="0.6"></path>
<path d="M693.878 51.2427H695.336V53.6007C695.336 54.6687 695.708 55.4727 696.452 56.0127C697.208 56.5647 698.354 56.8407 699.89 56.8407C700.466 56.8407 701.024 56.7987 701.564 56.7147C702.104 56.6307 702.578 56.4747 702.986 56.2467C703.406 56.0187 703.736 55.7127 703.976 55.3287C704.228 54.9447 704.354 54.4527 704.354 53.8527V53.5647C704.138 53.6967 703.856 53.8167 703.508 53.9247C703.16 54.0327 702.728 54.0867 702.212 54.0867C701.744 54.0867 701.306 54.0327 700.898 53.9247C700.502 53.8167 700.154 53.6427 699.854 53.4027C699.566 53.1507 699.332 52.8207 699.152 52.4127C698.984 52.0047 698.9 51.5007 698.9 50.9007C698.9 50.4207 698.978 49.9527 699.134 49.4967C699.29 49.0287 699.518 48.6147 699.818 48.2547C700.118 47.8947 700.49 47.6067 700.934 47.3907C701.378 47.1747 701.888 47.0667 702.464 47.0667C703.1 47.0667 703.634 47.1867 704.066 47.4267C704.51 47.6547 704.864 47.9787 705.128 48.3987C705.392 48.8067 705.578 49.2987 705.686 49.8747C705.806 50.4387 705.866 51.0627 705.866 51.7467V53.2587C705.866 54.1347 705.728 54.8907 705.452 55.5267C705.176 56.1627 704.78 56.6847 704.264 57.0927C703.748 57.5127 703.118 57.8187 702.374 58.0107C701.642 58.2147 700.814 58.3167 699.89 58.3167C698.774 58.3167 697.832 58.2027 697.064 57.9747C696.296 57.7587 695.678 57.4527 695.21 57.0567C694.742 56.6727 694.4 56.2107 694.184 55.6707C693.98 55.1427 693.878 54.5607 693.878 53.9247V51.2427ZM700.34 50.7387C700.34 51.4227 700.526 51.9147 700.898 52.2147C701.27 52.5027 701.756 52.6467 702.356 52.6467C702.812 52.6467 703.214 52.5867 703.562 52.4667C703.91 52.3467 704.174 52.2147 704.354 52.0707V51.4047C704.354 50.9967 704.318 50.6127 704.246 50.2527C704.186 49.8927 704.078 49.5867 703.922 49.3347C703.766 49.0707 703.562 48.8667 703.31 48.7227C703.058 48.5667 702.752 48.4887 702.392 48.4887C702.02 48.4887 701.702 48.5607 701.438 48.7047C701.186 48.8487 700.976 49.0287 700.808 49.2447C700.652 49.4607 700.532 49.7007 700.448 49.9647C700.376 50.2287 700.34 50.4867 700.34 50.7387ZM700.196 44.1147C700.196 43.8507 700.286 43.6287 700.466 43.4487C700.658 43.2567 700.886 43.1607 701.15 43.1607C701.414 43.1607 701.636 43.2567 701.816 43.4487C702.008 43.6287 702.104 43.8507 702.104 44.1147C702.104 44.3787 702.008 44.6067 701.816 44.7987C701.636 44.9787 701.414 45.0687 701.15 45.0687C700.886 45.0687 700.658 44.9787 700.466 44.7987C700.286 44.6067 700.196 44.3787 700.196 44.1147ZM702.536 44.1147C702.536 43.8507 702.626 43.6287 702.806 43.4487C702.998 43.2567 703.226 43.1607 703.49 43.1607C703.754 43.1607 703.976 43.2567 704.156 43.4487C704.348 43.6287 704.444 43.8507 704.444 44.1147C704.444 44.3787 704.348 44.6067 704.156 44.7987C703.976 44.9787 703.754 45.0687 703.49 45.0687C703.226 45.0687 702.998 44.9787 702.806 44.7987C702.626 44.6067 702.536 44.3787 702.536 44.1147ZM709.692 42.1167V54.9687H708.216V42.1167H709.692ZM716.544 54.9687C716.148 54.9687 715.818 54.8787 715.554 54.6987C715.29 54.5187 715.092 54.3087 714.96 54.0687C714.96 54.9327 714.906 55.6587 714.798 56.2467C714.69 56.8467 714.492 57.3267 714.204 57.6867C713.928 58.0587 713.538 58.3227 713.034 58.4787C712.53 58.6467 711.876 58.7307 711.072 58.7307V57.2367C711.66 57.2367 712.116 57.1707 712.44 57.0387C712.776 56.9187 713.022 56.7147 713.178 56.4267C713.346 56.1507 713.442 55.7907 713.466 55.3467C713.502 54.9147 713.52 54.3867 713.52 53.7627V48.9387H714.978V51.4947C714.978 52.1067 715.086 52.5927 715.302 52.9527C715.53 53.3007 715.944 53.4747 716.544 53.4747C717.024 53.4747 717.264 53.7147 717.264 54.1947C717.264 54.4947 717.204 54.6987 717.084 54.8067C716.976 54.9147 716.796 54.9687 716.544 54.9687ZM716.536 54.9687C716.056 54.9687 715.816 54.7287 715.816 54.2487C715.816 53.9487 715.876 53.7447 715.996 53.6367C716.104 53.5287 716.284 53.4747 716.536 53.4747H717.346C717.802 53.4747 718.252 53.4447 718.696 53.3847C719.14 53.3247 719.566 53.2287 719.974 53.0967L717.724 50.5407C717.76 50.4087 717.802 50.2707 717.85 50.1267C717.91 49.9827 717.97 49.8447 718.03 49.7127C718.102 49.5687 718.168 49.4427 718.228 49.3347C718.3 49.2147 718.372 49.1187 718.444 49.0467C718.828 48.6627 719.29 48.3567 719.83 48.1287C720.382 47.9007 720.976 47.7867 721.612 47.7867C722.14 47.7867 722.596 47.8527 722.98 47.9847C723.376 48.1047 723.7 48.2727 723.952 48.4887C724.216 48.6927 724.408 48.9327 724.528 49.2087C724.66 49.4727 724.726 49.7427 724.726 50.0187C724.726 50.6787 724.534 51.2967 724.15 51.8727C723.778 52.4487 723.274 52.9587 722.638 53.4027C722.866 53.4507 723.166 53.4747 723.538 53.4747L726.058 53.4747C726.538 53.4747 726.778 53.7147 726.778 54.1947C726.778 54.4947 726.718 54.6987 726.598 54.8067C726.49 54.9147 726.31 54.9687 726.058 54.9687H723.052C722.704 54.9687 722.368 54.9267 722.044 54.8427C721.732 54.7467 721.402 54.5487 721.054 54.2487C720.49 54.4767 719.902 54.6567 719.29 54.7887C718.678 54.9087 718.054 54.9687 717.418 54.9687H716.536ZM721.522 49.1907C721.042 49.1907 720.586 49.2867 720.154 49.4787C719.734 49.6707 719.398 49.9227 719.146 50.2347L721.342 52.5567C721.918 52.2687 722.38 51.9267 722.728 51.5307C723.088 51.1347 723.268 50.7147 723.268 50.2707C723.268 49.9947 723.124 49.7487 722.836 49.5327C722.56 49.3047 722.122 49.1907 721.522 49.1907ZM726.063 54.9687C725.583 54.9687 725.343 54.7287 725.343 54.2487C725.343 53.9487 725.403 53.7447 725.523 53.6367C725.631 53.5287 725.811 53.4747 726.063 53.4747H728.871V42.1167H730.347V54.9687H726.063ZM734.337 42.1167V54.9687H732.861V42.1167H734.337Z" fill="#F3D3B5" fill-opacity="0.6"></path>
<path d="M226.914 24.0547H228.372V26.5207C228.372 27.6847 228.666 28.5007 229.254 28.9687C229.854 29.4367 230.736 29.6707 231.9 29.6707C232.5 29.6707 233.016 29.6227 233.448 29.5267C233.88 29.4427 234.234 29.2867 234.51 29.0587C234.798 28.8427 235.008 28.5427 235.14 28.1587C235.272 27.7627 235.338 27.2647 235.338 26.6647V22.0387H236.796V26.6827C236.796 27.4747 236.682 28.1527 236.454 28.7167C236.238 29.2807 235.92 29.7427 235.5 30.1027C235.08 30.4627 234.564 30.7267 233.952 30.8947C233.34 31.0627 232.644 31.1467 231.864 31.1467C230.22 31.1467 228.984 30.7747 228.156 30.0307C227.328 29.2867 226.914 28.2187 226.914 26.8267V24.0547ZM230.964 21.3727C230.964 21.1087 231.054 20.8867 231.234 20.7067C231.426 20.5147 231.654 20.4187 231.918 20.4187C232.182 20.4187 232.404 20.5147 232.584 20.7067C232.776 20.8867 232.872 21.1087 232.872 21.3727C232.872 21.6367 232.776 21.8647 232.584 22.0567C232.404 22.2367 232.182 22.3267 231.918 22.3267C231.654 22.3267 231.426 22.2367 231.234 22.0567C231.054 21.8647 230.964 21.6367 230.964 21.3727ZM245.223 26.9887C245.223 27.5647 245.025 28.0387 244.629 28.4107C244.233 28.7827 243.657 28.9687 242.901 28.9687H238.599V27.4747H242.775C243.183 27.4747 243.441 27.4147 243.549 27.2947C243.657 27.1627 243.711 27.0187 243.711 26.8627C243.711 26.7427 243.687 26.6167 243.639 26.4847C243.591 26.3527 243.471 26.1427 243.279 25.8547C243.099 25.5667 242.829 25.1587 242.469 24.6307C242.121 24.1027 241.641 23.3887 241.029 22.4887L242.415 21.6247C242.895 22.4527 243.309 23.1487 243.657 23.7127C244.017 24.2767 244.311 24.7567 244.539 25.1527C244.767 25.5487 244.935 25.8907 245.043 26.1787C245.163 26.4547 245.223 26.7247 245.223 26.9887ZM248.665 22.9387H250.123V27.9607C250.123 28.8487 250.069 29.5927 249.961 30.1927C249.865 30.8047 249.673 31.2967 249.385 31.6687C249.097 32.0407 248.695 32.3107 248.179 32.4787C247.675 32.6467 247.021 32.7307 246.217 32.7307V31.2367C246.805 31.2367 247.261 31.1707 247.585 31.0387C247.921 30.9187 248.167 30.7147 248.323 30.4267C248.491 30.1507 248.587 29.7907 248.611 29.3467C248.647 28.9147 248.665 28.3867 248.665 27.7627V22.9387ZM262.309 16.1167V28.9687L252.085 28.9687V27.4747H256.135V20.6167H257.611V27.4747L260.833 27.4747V16.1167H262.309ZM258.241 19.0147H254.947V18.2047H255.757C255.589 17.9287 255.505 17.6227 255.505 17.2867C255.505 17.0227 255.547 16.7947 255.631 16.6027C255.715 16.3987 255.829 16.2307 255.973 16.0987C256.117 15.9667 256.279 15.8647 256.459 15.7927C256.651 15.7207 256.843 15.6847 257.035 15.6847C257.239 15.6847 257.413 15.6967 257.557 15.7207C257.713 15.7447 257.827 15.7867 257.899 15.8467V16.6747C257.659 16.5667 257.401 16.5127 257.125 16.5127C256.837 16.5127 256.627 16.5967 256.495 16.7647C256.363 16.9327 256.297 17.1187 256.297 17.3227C256.297 17.5627 256.375 17.7727 256.531 17.9527C256.687 18.1207 256.921 18.2047 257.233 18.2047H258.241V19.0147ZM266.3 16.1167V28.9687H264.824V16.1167H266.3Z" fill="#F3D3B5" fill-opacity="0.6"></path>
<path d="M75.7123 345.969C75.3163 345.969 74.9863 345.879 74.7223 345.699C74.4583 345.519 74.2603 345.309 74.1283 345.069C74.1283 345.933 74.0743 346.659 73.9663 347.247C73.8583 347.847 73.6603 348.327 73.3723 348.687C73.0963 349.059 72.7063 349.323 72.2023 349.479C71.6983 349.647 71.0443 349.731 70.2403 349.731V348.237C70.8283 348.237 71.2843 348.171 71.6083 348.039C71.9443 347.919 72.1903 347.715 72.3463 347.427C72.5143 347.151 72.6103 346.791 72.6343 346.347C72.6703 345.915 72.6883 345.387 72.6883 344.763V339.939H74.1463V342.495C74.1463 343.107 74.2543 343.593 74.4703 343.953C74.6983 344.301 75.1123 344.475 75.7123 344.475C76.1923 344.475 76.4323 344.715 76.4323 345.195C76.4323 345.495 76.3723 345.699 76.2523 345.807C76.1443 345.915 75.9643 345.969 75.7123 345.969ZM81.8961 345.969C81.5241 345.969 81.2181 345.939 80.9781 345.879C80.7381 345.807 80.5401 345.717 80.3841 345.609C80.2401 345.501 80.1201 345.375 80.0241 345.231C79.9401 345.087 79.8621 344.943 79.7901 344.799C79.6821 345.051 79.5381 345.255 79.3581 345.411C79.1781 345.555 78.9501 345.669 78.6741 345.753C78.3981 345.837 78.0621 345.897 77.6661 345.933C77.2821 345.957 76.8261 345.969 76.2981 345.969H75.7041C75.2241 345.969 74.9841 345.729 74.9841 345.249C74.9841 344.949 75.0441 344.745 75.1641 344.637C75.2721 344.529 75.4521 344.475 75.7041 344.475H76.3341C76.7301 344.475 77.0661 344.463 77.3421 344.439C77.6181 344.415 77.8341 344.361 77.9901 344.277C78.1581 344.181 78.2781 344.049 78.3501 343.881C78.4221 343.701 78.4581 343.461 78.4581 343.161V339.939H79.9341V342.495C79.9341 342.795 79.9461 343.071 79.9701 343.323C79.9941 343.563 80.0481 343.767 80.1321 343.935C80.2281 344.103 80.3601 344.235 80.5281 344.331C80.6961 344.427 80.9241 344.475 81.2121 344.475C81.4401 343.815 81.7521 343.149 82.1481 342.477C82.5561 341.793 83.0361 341.181 83.5881 340.641C84.1521 340.089 84.7881 339.645 85.4961 339.309C86.2041 338.961 86.9721 338.787 87.8001 338.787C89.0121 338.787 89.9481 339.147 90.6081 339.867C91.2801 340.587 91.6161 341.607 91.6161 342.927V344.475H92.9841C93.4641 344.475 93.7041 344.715 93.7041 345.195C93.7041 345.495 93.6441 345.699 93.5241 345.807C93.4161 345.915 93.2361 345.969 92.9841 345.969H81.8961ZM90.1401 344.475V343.269C90.1401 342.837 90.0921 342.441 89.9961 342.081C89.9121 341.709 89.7681 341.391 89.5641 341.127C89.3601 340.863 89.0901 340.659 88.7541 340.515C88.4301 340.371 88.0341 340.299 87.5661 340.299C86.9901 340.299 86.4501 340.425 85.9461 340.677C85.4541 340.929 84.9981 341.253 84.5781 341.649C84.1701 342.045 83.8161 342.495 83.5161 342.999C83.2161 343.491 82.9761 343.983 82.7961 344.475H90.1401ZM92.9834 345.969C92.5034 345.969 92.2634 345.729 92.2634 345.249C92.2634 344.949 92.3234 344.745 92.4434 344.637C92.5514 344.529 92.7314 344.475 92.9834 344.475H93.7214C93.8654 344.475 94.0154 344.457 94.1714 344.421C94.3274 344.385 94.4834 344.307 94.6394 344.187C94.7954 344.067 94.9454 343.905 95.0894 343.701C95.2454 343.485 95.3894 343.197 95.5214 342.837C95.7974 342.069 96.0854 341.451 96.3854 340.983C96.6974 340.503 97.0094 340.137 97.3214 339.885C97.6454 339.621 97.9694 339.447 98.2934 339.363C98.6294 339.279 98.9594 339.237 99.2834 339.237C99.7394 339.237 100.159 339.327 100.543 339.507C100.927 339.675 101.257 339.921 101.533 340.245C101.821 340.557 102.043 340.935 102.199 341.379C102.367 341.811 102.451 342.297 102.451 342.837C102.451 343.869 102.199 344.691 101.695 345.303C101.203 345.903 100.441 346.203 99.4094 346.203C98.8454 346.203 98.2754 346.107 97.6994 345.915C97.1234 345.723 96.5294 345.399 95.9174 344.943C95.7614 345.183 95.5994 345.375 95.4314 345.519C95.2754 345.651 95.1074 345.753 94.9274 345.825C94.7474 345.885 94.5614 345.927 94.3694 345.951C94.1774 345.963 93.9734 345.969 93.7574 345.969H92.9834ZM100.957 342.783C100.957 342.519 100.915 342.261 100.831 342.009C100.759 341.757 100.645 341.535 100.489 341.343C100.345 341.151 100.165 341.001 99.9494 340.893C99.7334 340.773 99.4814 340.713 99.1934 340.713C98.6894 340.713 98.2274 340.935 97.8074 341.379C97.3874 341.823 96.9914 342.603 96.6194 343.719C97.0634 344.007 97.5014 344.241 97.9334 344.421C98.3774 344.589 98.8274 344.673 99.2834 344.673C99.7874 344.673 100.189 344.529 100.489 344.241C100.801 343.953 100.957 343.467 100.957 342.783Z" fill="#F3D3B5" fill-opacity="0.6"></path>
<path d="M0.78418 753.055H2.24218V755.521C2.24218 756.685 2.53618 757.501 3.12418 757.969C3.72418 758.437 4.60618 758.671 5.77018 758.671C6.37018 758.671 6.88618 758.623 7.31818 758.527C7.75018 758.443 8.10418 758.287 8.38018 758.059C8.66818 757.843 8.87818 757.543 9.01018 757.159C9.14218 756.763 9.20818 756.265 9.20818 755.665V751.039H10.6662V755.683C10.6662 756.475 10.5522 757.153 10.3242 757.717C10.1082 758.281 9.79018 758.743 9.37018 759.103C8.95018 759.463 8.43418 759.727 7.82218 759.895C7.21018 760.063 6.51418 760.147 5.73418 760.147C4.09018 760.147 2.85418 759.775 2.02618 759.031C1.19818 758.287 0.78418 757.219 0.78418 755.827L0.78418 753.055ZM4.83418 750.373C4.83418 750.109 4.92418 749.887 5.10418 749.707C5.29618 749.515 5.52418 749.419 5.78818 749.419C6.05218 749.419 6.27418 749.515 6.45418 749.707C6.64618 749.887 6.74218 750.109 6.74218 750.373C6.74218 750.637 6.64618 750.865 6.45418 751.057C6.27418 751.237 6.05218 751.327 5.78818 751.327C5.52418 751.327 5.29618 751.237 5.10418 751.057C4.92418 750.865 4.83418 750.637 4.83418 750.373ZM14.6647 745.117L14.6647 757.969H13.1887L13.1887 745.117H14.6647ZM23.0829 755.989C23.0829 756.565 22.8849 757.039 22.4889 757.411C22.0929 757.783 21.5169 757.969 20.7609 757.969H16.4589V756.475H20.6349C21.0429 756.475 21.3009 756.415 21.4089 756.295C21.5169 756.163 21.5709 756.019 21.5709 755.863C21.5709 755.743 21.5469 755.617 21.4989 755.485C21.4509 755.353 21.3309 755.143 21.1389 754.855C20.9589 754.567 20.6889 754.159 20.3289 753.631C19.9809 753.103 19.5009 752.389 18.8889 751.489L20.2749 750.625C20.7549 751.453 21.1689 752.149 21.5169 752.713C21.8769 753.277 22.1709 753.757 22.3989 754.153C22.6269 754.549 22.7949 754.891 22.9029 755.179C23.0229 755.455 23.0829 755.725 23.0829 755.989ZM31.5837 757.969C31.5357 758.701 31.3797 759.307 31.1157 759.787C30.8637 760.267 30.5157 760.651 30.0717 760.939C29.6277 761.227 29.0937 761.431 28.4697 761.551C27.8577 761.671 27.1737 761.731 26.4177 761.731H25.6617V760.237H26.2197C26.7837 760.237 27.2997 760.207 27.7677 760.147C28.2357 760.099 28.6377 759.991 28.9737 759.823C29.3217 759.667 29.5917 759.439 29.7837 759.139C29.9877 758.839 30.0957 758.449 30.1077 757.969H28.0737C27.5817 757.969 27.1257 757.915 26.7057 757.807C26.2977 757.699 25.9377 757.525 25.6257 757.285C25.3257 757.033 25.0857 756.709 24.9057 756.313C24.7377 755.917 24.6537 755.425 24.6537 754.837C24.6537 754.345 24.7317 753.865 24.8877 753.397C25.0557 752.929 25.2897 752.515 25.5897 752.155C25.9017 751.795 26.2737 751.507 26.7057 751.291C27.1497 751.063 27.6537 750.949 28.2177 750.949C28.8417 750.949 29.3697 751.063 29.8017 751.291C30.2337 751.507 30.5817 751.819 30.8457 752.227C31.1217 752.635 31.3197 753.127 31.4397 753.703C31.5597 754.279 31.6197 754.921 31.6197 755.629V756.475H32.8797C33.3597 756.475 33.5997 756.715 33.5997 757.195C33.5997 757.495 33.5397 757.699 33.4197 757.807C33.3117 757.915 33.1317 757.969 32.8797 757.969H31.5837ZM26.0937 754.693C26.0937 755.305 26.2677 755.755 26.6157 756.043C26.9757 756.331 27.4977 756.475 28.1817 756.475H30.1077V755.287C30.1077 754.399 29.9577 753.691 29.6577 753.163C29.3577 752.635 28.8417 752.371 28.1097 752.371C27.7617 752.371 27.4617 752.443 27.2097 752.587C26.9577 752.719 26.7477 752.899 26.5797 753.127C26.4237 753.343 26.3037 753.589 26.2197 753.865C26.1357 754.141 26.0937 754.417 26.0937 754.693ZM33.5118 756.475C33.9078 756.475 34.2438 756.463 34.5198 756.439C34.7958 756.415 35.0118 756.361 35.1678 756.277C35.3358 756.181 35.4558 756.049 35.5278 755.881C35.5998 755.701 35.6358 755.461 35.6358 755.161V751.939H37.1118V754.495C37.1118 754.795 37.1298 755.071 37.1658 755.323C37.2018 755.563 37.2858 755.767 37.4178 755.935C37.5498 756.103 37.7358 756.235 37.9758 756.331C38.2278 756.427 38.5638 756.475 38.9838 756.475C39.2478 756.475 39.4758 756.463 39.6678 756.439C39.8598 756.415 40.0218 756.361 40.1538 756.277C40.2858 756.181 40.3818 756.049 40.4418 755.881C40.5138 755.701 40.5498 755.461 40.5498 755.161V751.939H42.0258V754.495C42.0258 754.795 42.0438 755.071 42.0798 755.323C42.1278 755.563 42.2118 755.767 42.3318 755.935C42.4638 756.103 42.6378 756.235 42.8538 756.331C43.0818 756.427 43.3758 756.475 43.7358 756.475C43.9398 756.475 44.1258 756.463 44.2938 756.439C44.4618 756.415 44.6058 756.361 44.7258 756.277C44.8458 756.181 44.9358 756.049 44.9958 755.881C45.0678 755.701 45.1038 755.461 45.1038 755.161V751.039H46.5798V754.495C46.5798 754.795 46.5978 755.071 46.6338 755.323C46.6818 755.563 46.7658 755.767 46.8858 755.935C47.0058 756.103 47.1678 756.235 47.3718 756.331C47.5758 756.427 47.8338 756.475 48.1458 756.475C48.6258 756.475 48.8658 756.715 48.8658 757.195C48.8658 757.495 48.8058 757.699 48.6858 757.807C48.5778 757.915 48.3978 757.969 48.1458 757.969C47.6778 757.969 47.2998 757.861 47.0118 757.645C46.7238 757.417 46.5318 757.135 46.4358 756.799C46.3278 757.051 46.1778 757.255 45.9858 757.411C45.7938 757.555 45.5898 757.669 45.3738 757.753C45.1578 757.837 44.9478 757.897 44.7438 757.933C44.5398 757.957 44.3658 757.969 44.2218 757.969C43.8258 757.969 43.4898 757.933 43.2138 757.861C42.9498 757.789 42.7278 757.699 42.5478 757.591C42.3678 757.471 42.2238 757.345 42.1158 757.213C42.0198 757.069 41.9418 756.931 41.8818 756.799C41.6658 757.291 41.3298 757.609 40.8738 757.753C40.4298 757.897 39.8958 757.969 39.2718 757.969C38.8518 757.969 38.4978 757.939 38.2098 757.879C37.9338 757.807 37.7058 757.717 37.5258 757.609C37.3458 757.489 37.2018 757.357 37.0938 757.213C36.9858 757.069 36.8958 756.925 36.8238 756.781C36.7158 757.033 36.5778 757.237 36.4098 757.393C36.2538 757.537 36.0438 757.657 35.7798 757.753C35.5278 757.837 35.2098 757.897 34.8258 757.933C34.4538 757.957 34.0038 757.969 33.4758 757.969H32.8818C32.4018 757.969 32.1618 757.729 32.1618 757.249C32.1618 756.949 32.2218 756.745 32.3418 756.637C32.4498 756.529 32.6298 756.475 32.8818 756.475H33.5118ZM48.1572 757.969C47.6772 757.969 47.4372 757.729 47.4372 757.249C47.4372 756.949 47.4972 756.745 47.6172 756.637C47.7252 756.529 47.9052 756.475 48.1572 756.475H50.9652V745.117H52.4412V757.969H48.1572ZM56.4303 745.117V757.969H54.9543V745.117H56.4303Z" fill="#F3D3B5" fill-opacity="0.6"></path>
<path d="M825.236 112.969C824.768 112.969 824.39 112.861 824.102 112.645C823.814 112.417 823.622 112.135 823.526 111.799C823.418 112.051 823.274 112.255 823.094 112.411C822.914 112.555 822.686 112.669 822.41 112.753C822.146 112.837 821.822 112.897 821.438 112.933C821.054 112.957 820.604 112.969 820.088 112.969H812.762C812.066 112.969 811.484 112.921 811.016 112.825C810.56 112.729 810.188 112.579 809.9 112.375C809.624 112.159 809.426 111.889 809.306 111.565C809.186 111.229 809.126 110.821 809.126 110.341V107.551H810.602V109.801C810.602 110.173 810.644 110.473 810.728 110.701C810.824 110.917 810.98 111.085 811.196 111.205C811.412 111.313 811.706 111.385 812.078 111.421C812.45 111.457 812.924 111.475 813.5 111.475H820.07C820.466 111.475 820.802 111.463 821.078 111.439C821.354 111.415 821.57 111.361 821.726 111.277C821.894 111.181 822.014 111.049 822.086 110.881C822.158 110.701 822.194 110.461 822.194 110.161V106.039H823.67V109.495C823.67 109.795 823.688 110.071 823.724 110.323C823.772 110.563 823.856 110.767 823.976 110.935C824.096 111.103 824.258 111.235 824.462 111.331C824.666 111.427 824.924 111.475 825.236 111.475C825.716 111.475 825.956 111.715 825.956 112.195C825.956 112.495 825.896 112.699 825.776 112.807C825.668 112.915 825.488 112.969 825.236 112.969ZM814.328 104.077C814.328 103.813 814.418 103.591 814.598 103.411C814.79 103.219 815.018 103.123 815.282 103.123C815.546 103.123 815.768 103.219 815.948 103.411C816.14 103.591 816.236 103.813 816.236 104.077C816.236 104.341 816.14 104.569 815.948 104.761C815.768 104.941 815.546 105.031 815.282 105.031C815.018 105.031 814.79 104.941 814.598 104.761C814.418 104.569 814.328 104.341 814.328 104.077ZM816.668 104.077C816.668 103.813 816.758 103.591 816.938 103.411C817.13 103.219 817.358 103.123 817.622 103.123C817.886 103.123 818.108 103.219 818.288 103.411C818.48 103.591 818.576 103.813 818.576 104.077C818.576 104.341 818.48 104.569 818.288 104.761C818.108 104.941 817.886 105.031 817.622 105.031C817.358 105.031 817.13 104.941 816.938 104.761C816.758 104.569 816.668 104.341 816.668 104.077ZM825.228 112.969C824.748 112.969 824.508 112.729 824.508 112.249C824.508 111.949 824.568 111.745 824.688 111.637C824.796 111.529 824.976 111.475 825.228 111.475H828.036V106.039H829.512V112.969H825.228ZM825.948 115.687C825.948 115.423 826.038 115.195 826.218 115.003C826.41 114.823 826.638 114.733 826.902 114.733C827.166 114.733 827.388 114.823 827.568 115.003C827.76 115.195 827.856 115.423 827.856 115.687C827.856 115.951 827.76 116.173 827.568 116.353C827.388 116.545 827.166 116.641 826.902 116.641C826.638 116.641 826.41 116.545 826.218 116.353C826.038 116.173 825.948 115.951 825.948 115.687ZM828.288 115.687C828.288 115.423 828.378 115.195 828.558 115.003C828.75 114.823 828.978 114.733 829.242 114.733C829.506 114.733 829.728 114.823 829.908 115.003C830.1 115.195 830.196 115.423 830.196 115.687C830.196 115.951 830.1 116.173 829.908 116.353C829.728 116.545 829.506 116.641 829.242 116.641C828.978 116.641 828.75 116.545 828.558 116.353C828.378 116.173 828.288 115.951 828.288 115.687ZM838.379 112.969C838.331 113.701 838.175 114.307 837.911 114.787C837.659 115.267 837.311 115.651 836.867 115.939C836.423 116.227 835.889 116.431 835.265 116.551C834.653 116.671 833.969 116.731 833.213 116.731H832.457V115.237H833.015C833.579 115.237 834.095 115.207 834.563 115.147C835.031 115.099 835.433 114.991 835.769 114.823C836.117 114.667 836.387 114.439 836.579 114.139C836.783 113.839 836.891 113.449 836.903 112.969H834.869C834.377 112.969 833.921 112.915 833.501 112.807C833.093 112.699 832.733 112.525 832.421 112.285C832.121 112.033 831.881 111.709 831.701 111.313C831.533 110.917 831.449 110.425 831.449 109.837C831.449 109.345 831.527 108.865 831.683 108.397C831.851 107.929 832.085 107.515 832.385 107.155C832.697 106.795 833.069 106.507 833.501 106.291C833.945 106.063 834.449 105.949 835.013 105.949C835.637 105.949 836.165 106.063 836.597 106.291C837.029 106.507 837.377 106.819 837.641 107.227C837.917 107.635 838.115 108.127 838.235 108.703C838.355 109.279 838.415 109.921 838.415 110.629V111.475H839.675C840.155 111.475 840.395 111.715 840.395 112.195C840.395 112.495 840.335 112.699 840.215 112.807C840.107 112.915 839.927 112.969 839.675 112.969H838.379ZM832.889 109.693C832.889 110.305 833.063 110.755 833.411 111.043C833.771 111.331 834.293 111.475 834.977 111.475H836.903V110.287C836.903 109.399 836.753 108.691 836.453 108.163C836.153 107.635 835.637 107.371 834.905 107.371C834.557 107.371 834.257 107.443 834.005 107.587C833.753 107.719 833.543 107.899 833.375 108.127C833.219 108.343 833.099 108.589 833.015 108.865C832.931 109.141 832.889 109.417 832.889 109.693ZM839.677 112.969C839.197 112.969 838.957 112.729 838.957 112.249C838.957 111.949 839.017 111.745 839.137 111.637C839.245 111.529 839.425 111.475 839.677 111.475H843.979C844.423 111.475 844.789 111.397 845.077 111.241C845.377 111.085 845.527 110.785 845.527 110.341C845.527 110.029 845.377 109.675 845.077 109.279C844.789 108.871 844.399 108.463 843.907 108.055C843.427 107.635 842.875 107.227 842.251 106.831C841.627 106.423 840.979 106.057 840.307 105.733C840.319 105.589 840.355 105.445 840.415 105.301C840.475 105.145 840.541 105.007 840.613 104.887C840.685 104.755 840.757 104.641 840.829 104.545C840.913 104.449 840.979 104.383 841.027 104.347L847.615 101.449V102.907L842.323 105.247C843.163 105.739 843.877 106.219 844.465 106.687C845.053 107.155 845.533 107.605 845.905 108.037C846.277 108.469 846.541 108.889 846.697 109.297C846.865 109.693 846.949 110.071 846.949 110.431C846.949 110.683 846.907 110.959 846.823 111.259C846.751 111.559 846.607 111.835 846.391 112.087C846.175 112.339 845.869 112.549 845.473 112.717C845.077 112.885 844.567 112.969 843.943 112.969H839.677Z" fill="#F3D3B5" fill-opacity="0.6"></path>
<path d="M915.207 775.969C914.787 775.969 914.451 775.885 914.199 775.717C913.959 775.537 913.773 775.327 913.641 775.087V775.753C913.641 776.545 913.527 777.223 913.299 777.787C913.083 778.351 912.765 778.813 912.345 779.173C911.925 779.533 911.409 779.797 910.797 779.965C910.185 780.133 909.489 780.217 908.709 780.217C907.065 780.217 905.829 779.845 905.001 779.101C904.173 778.357 903.759 777.289 903.759 775.897V773.125H905.217V775.591C905.217 776.755 905.511 777.571 906.099 778.039C906.699 778.507 907.581 778.741 908.745 778.741C909.345 778.741 909.861 778.693 910.293 778.597C910.725 778.513 911.079 778.357 911.355 778.129C911.643 777.913 911.853 777.607 911.985 777.211C912.117 776.827 912.183 776.335 912.183 775.735V771.109H913.641V772.495C913.641 772.795 913.659 773.071 913.695 773.323C913.731 773.563 913.803 773.767 913.911 773.935C914.031 774.103 914.193 774.235 914.397 774.331C914.601 774.427 914.871 774.475 915.207 774.475C915.687 774.475 915.927 774.715 915.927 775.195C915.927 775.495 915.867 775.699 915.747 775.807C915.639 775.915 915.459 775.969 915.207 775.969ZM907.899 769.543C907.899 769.279 907.989 769.057 908.169 768.877C908.361 768.685 908.589 768.589 908.853 768.589C909.117 768.589 909.339 768.685 909.519 768.877C909.711 769.057 909.807 769.279 909.807 769.543C909.807 769.807 909.711 770.035 909.519 770.227C909.339 770.407 909.117 770.497 908.853 770.497C908.589 770.497 908.361 770.407 908.169 770.227C907.989 770.035 907.899 769.807 907.899 769.543ZM926.272 775.969C925.816 775.969 925.42 775.879 925.084 775.699C924.748 775.519 924.478 775.213 924.274 774.781V774.745C924.046 775.201 923.71 775.561 923.266 775.825C922.834 776.077 922.288 776.203 921.628 776.203C921.064 776.203 920.494 776.107 919.918 775.915C919.342 775.723 918.748 775.399 918.136 774.943C917.98 775.183 917.818 775.375 917.65 775.519C917.494 775.651 917.326 775.753 917.146 775.825C916.966 775.885 916.78 775.927 916.588 775.951C916.396 775.963 916.192 775.969 915.976 775.969H915.202C914.722 775.969 914.482 775.729 914.482 775.249C914.482 774.949 914.542 774.745 914.662 774.637C914.77 774.529 914.95 774.475 915.202 774.475H915.94C916.084 774.475 916.234 774.457 916.39 774.421C916.546 774.385 916.702 774.307 916.858 774.187C917.014 774.067 917.164 773.905 917.308 773.701C917.464 773.485 917.608 773.197 917.74 772.837C918.016 772.069 918.304 771.451 918.604 770.983C918.916 770.503 919.228 770.137 919.54 769.885C919.864 769.621 920.188 769.447 920.512 769.363C920.848 769.279 921.178 769.237 921.502 769.237C921.958 769.237 922.378 769.327 922.762 769.507C923.146 769.675 923.476 769.921 923.752 770.245C924.04 770.557 924.262 770.935 924.418 771.379C924.586 771.811 924.67 772.297 924.67 772.837C924.67 772.921 924.664 773.005 924.652 773.089C924.652 773.161 924.652 773.233 924.652 773.305C924.772 773.689 924.946 773.983 925.174 774.187C925.414 774.379 925.78 774.475 926.272 774.475C926.752 774.475 926.992 774.715 926.992 775.195C926.992 775.495 926.932 775.699 926.812 775.807C926.704 775.915 926.524 775.969 926.272 775.969ZM923.176 772.783C923.176 772.519 923.134 772.261 923.05 772.009C922.978 771.757 922.864 771.535 922.708 771.343C922.564 771.151 922.384 771.001 922.168 770.893C921.952 770.773 921.7 770.713 921.412 770.713C920.908 770.713 920.446 770.935 920.026 771.379C919.606 771.823 919.21 772.603 918.838 773.719C919.282 774.007 919.72 774.241 920.152 774.421C920.596 774.589 921.046 774.673 921.502 774.673C922.006 774.673 922.408 774.529 922.708 774.241C923.02 773.953 923.176 773.467 923.176 772.783ZM926.276 775.969C925.796 775.969 925.556 775.729 925.556 775.249C925.556 774.949 925.616 774.745 925.736 774.637C925.844 774.529 926.024 774.475 926.276 774.475H927.482C927.77 774.475 928.016 774.463 928.22 774.439C928.424 774.415 928.592 774.361 928.724 774.277C928.868 774.181 928.97 774.049 929.03 773.881C929.102 773.701 929.138 773.461 929.138 773.161V769.039H930.614V772.495C930.614 772.795 930.632 773.071 930.668 773.323C930.716 773.563 930.8 773.767 930.92 773.935C931.04 774.103 931.202 774.235 931.406 774.331C931.61 774.427 931.868 774.475 932.18 774.475C932.66 774.475 932.9 774.715 932.9 775.195C932.9 775.495 932.84 775.699 932.72 775.807C932.612 775.915 932.432 775.969 932.18 775.969C931.712 775.969 931.334 775.861 931.046 775.645C930.758 775.417 930.566 775.135 930.47 774.799C930.254 775.291 929.912 775.609 929.444 775.753C928.988 775.897 928.424 775.969 927.752 775.969H926.276ZM927.698 778.687C927.698 778.423 927.788 778.195 927.968 778.003C928.16 777.823 928.388 777.733 928.652 777.733C928.916 777.733 929.138 777.823 929.318 778.003C929.51 778.195 929.606 778.423 929.606 778.687C929.606 778.951 929.51 779.173 929.318 779.353C929.138 779.545 928.916 779.641 928.652 779.641C928.388 779.641 928.16 779.545 927.968 779.353C927.788 779.173 927.698 778.951 927.698 778.687ZM930.038 778.687C930.038 778.423 930.128 778.195 930.308 778.003C930.5 777.823 930.728 777.733 930.992 777.733C931.256 777.733 931.478 777.823 931.658 778.003C931.85 778.195 931.946 778.423 931.946 778.687C931.946 778.951 931.85 779.173 931.658 779.353C931.478 779.545 931.256 779.641 930.992 779.641C930.728 779.641 930.5 779.545 930.308 779.353C930.128 779.173 930.038 778.951 930.038 778.687ZM932.183 775.969C931.703 775.969 931.463 775.729 931.463 775.249C931.463 774.949 931.523 774.745 931.643 774.637C931.751 774.529 931.931 774.475 932.183 774.475H934.991V763.117H936.467V775.969H932.183ZM940.456 763.117V775.969H938.98V763.117H940.456Z" fill="#F3D3B5" fill-opacity="0.6"></path>
</svg>