<svg width="142" height="52" viewBox="0 0 142 52" fill="none" xmlns="http://www.w3.org/2000/svg">
<g filter="url(#filter0_d_5088_4482)">
<rect x="4" y="2.59668" width="133.174" height="43.4026" rx="14.9818" fill="white"></rect>
<path class="text" d="M26.465 18.792L27.7663 20.0591L29.273 18.5523L27.7491 17.0456L26.465 18.3126L25.1637 17.0456L23.657 18.5523L25.1808 20.0591L26.465 18.792ZM27.7149 21.0864H25.6602L25.9856 21.9425C23.0919 23.5177 21.8078 25.0416 21.8078 27.2332C21.8078 29.1167 23.3488 30.5207 25.5404 30.5207C27.8176 30.5207 29.5298 28.9112 29.5298 26.8908C29.5298 25.8121 29.0675 24.7334 27.7149 21.0864ZM25.5918 28.5516C24.3761 28.5516 23.657 27.9181 23.657 26.8223C23.657 25.521 24.6158 24.391 26.5848 23.4493C27.4409 25.6409 27.6464 26.223 27.6464 26.8052C27.6464 27.8154 26.8245 28.5516 25.5918 28.5516ZM33.7717 22.7644H31.8883C32.2307 25.4525 32.4875 27.7298 32.4875 29.7844C32.4875 31.3939 31.4602 32.1815 29.8679 32.1815V33.9793C32.5732 33.9793 34.3025 32.5068 34.3025 29.9214C34.3025 27.5414 34.0799 24.6992 33.7717 22.7644ZM44.5043 28.3291H43.4941C43.477 27.1648 43.4599 26.5655 43.4256 25.8977C43.2886 23.3808 41.8675 21.9939 39.7957 21.9939C37.5185 21.9939 35.8405 23.7917 35.8405 26.2573C35.8405 28.7571 37.6383 30.2981 40.395 30.2981H41.6107C41.2682 31.3939 39.8471 32.1815 37.2788 32.1815V33.9793C41.4908 33.9793 43.2373 32.4212 43.4941 30.2981H44.5043C44.607 30.2981 44.6755 30.2125 44.6755 30.1098V28.5003C44.6755 28.3975 44.607 28.3291 44.5043 28.3291ZM37.724 26.1888C37.724 24.8704 38.6143 23.9629 39.7444 23.9629C40.8231 23.9629 41.4223 24.6136 41.5251 26.0518C41.5764 26.7538 41.6278 27.4216 41.662 28.3291H40.6518C38.717 28.3291 37.724 27.627 37.724 26.1888ZM48.7488 21.2748L47.225 19.768L45.7182 21.2748L47.2421 22.7815L48.7488 21.2748ZM49.6392 28.3291C48.9886 28.3291 48.3893 28.2434 47.7215 27.9181C48.0297 26.9422 48.1838 25.6409 48.1838 23.9629H46.4374C46.4374 25.7265 46.3346 26.8223 46.0436 27.473C45.7696 28.0722 45.3073 28.3291 44.5026 28.3291C44.3998 28.3291 44.3313 28.3975 44.3313 28.5003V30.1098C44.3313 30.2125 44.3998 30.2981 44.5026 30.2981C45.5641 30.2981 46.386 29.9728 46.9681 29.305C47.8243 29.9899 48.6461 30.2981 49.6392 30.2981C49.7419 30.2981 49.8104 30.2125 49.8104 30.1098V28.5003C49.8104 28.3975 49.7419 28.3291 49.6392 28.3291ZM59.2413 28.3291C58.5565 28.3291 58.214 27.7127 57.8373 26.3086L57.4435 24.8361C56.9812 23.0897 56.0053 22.2336 54.5841 22.2336C52.1186 22.2336 50.6632 25.4697 50.6632 27.3189C50.6632 27.627 50.7145 27.901 50.8173 28.1578C50.4748 28.2777 50.0639 28.3291 49.6359 28.3291C49.5331 28.3291 49.4646 28.3975 49.4646 28.5003V30.1098C49.4646 30.2125 49.5331 30.2981 49.6359 30.2981C50.6632 30.2981 51.3481 29.9214 51.9473 29.4077C53.026 30.0413 54.6526 30.2981 56.4504 30.2981L56.8443 28.6886C57.3408 29.6475 58.0257 30.2981 59.2413 30.2981C59.3441 30.2981 59.4126 30.2125 59.4126 30.1098V28.5003C59.4126 28.3975 59.3441 28.3291 59.2413 28.3291ZM52.187 27.3017C52.6665 25.3498 53.5911 24.2198 54.43 24.2198C55.0636 24.2198 55.543 24.7848 55.8683 25.9148L56.1251 26.7709C56.2963 27.3189 56.4676 27.8496 56.673 28.3291C54.2588 28.2948 53.163 27.8668 52.187 27.3017ZM61.0143 17.8846V26.8908C61.0143 27.8668 60.6034 28.3291 59.2336 28.3291C59.1309 28.3291 59.0624 28.3975 59.0624 28.5003V30.1098C59.0624 30.2125 59.1309 30.2981 59.2336 30.2981C61.6307 30.2981 62.8977 28.9626 62.8977 27.0278V17.8846H61.0143ZM67.6054 17.8846H65.7219V30.2981H67.6054V17.8846ZM78.9573 18.792L80.2586 20.0591L81.7653 18.5523L80.2415 17.0456L78.9573 18.3126L77.656 17.0456L76.1493 18.5523L77.6731 20.0591L78.9573 18.792ZM81.9879 28.3291C80.9435 28.3291 80.6695 27.8154 80.6695 26.9935V21.0864H78.7861V22.0281C74.4713 22.6788 73.3413 25.1957 73.3413 26.925C73.3413 28.9626 74.7624 30.2981 76.9026 30.2981C77.9129 30.2981 78.7518 29.9214 79.6593 29.3906C80.173 29.9728 80.9435 30.2981 81.9879 30.2981C82.0906 30.2981 82.1591 30.2125 82.1591 30.1098V28.5003C82.1591 28.3975 82.0906 28.3291 81.9879 28.3291ZM76.9369 28.3462C75.8411 28.3462 75.2247 27.7811 75.2247 26.7709C75.2247 25.2642 76.5088 24.2198 78.7861 23.8431V26.7367C78.7861 27.1819 78.8374 27.5928 78.9231 27.9695C78.2382 28.2263 77.6218 28.3462 76.9369 28.3462ZM86.2369 21.2748L84.713 19.768L83.2063 21.2748L84.7301 22.7815L86.2369 21.2748ZM87.1272 28.3291C86.4766 28.3291 85.8773 28.2434 85.2095 27.9181C85.5177 26.9422 85.6718 25.6409 85.6718 23.9629H83.9254C83.9254 25.7265 83.8226 26.8223 83.5316 27.473C83.2576 28.0722 82.7953 28.3291 81.9906 28.3291C81.8879 28.3291 81.8194 28.3975 81.8194 28.5003V30.1098C81.8194 30.2125 81.8879 30.2981 81.9906 30.2981C83.0522 30.2981 83.874 29.9728 84.4562 29.305C85.3123 29.9899 86.1341 30.2981 87.1272 30.2981C87.2299 30.2981 87.2984 30.2125 87.2984 30.1098V28.5003C87.2984 28.3975 87.2299 28.3291 87.1272 28.3291ZM87.1239 30.2981H88.4936C90.8907 30.2981 92.1578 28.9626 92.1578 27.0278C92.1578 25.8635 92.0208 24.5622 91.6441 21.9939H89.7607C90.1374 24.5622 90.2743 25.8121 90.2743 26.8908C90.2743 27.8668 89.8634 28.3291 88.4936 28.3291H87.1239C87.0211 28.3291 86.9526 28.3975 86.9526 28.5003V30.1098C86.9526 30.2125 87.0211 30.2981 87.1239 30.2981ZM92.3804 32.9178L90.8565 31.411L89.5723 32.6781L88.2711 31.411L86.7643 32.9178L88.2882 34.4245L89.5723 33.1575L90.8736 34.4245L92.3804 32.9178ZM101.71 28.3291C100.751 28.3291 100.1 27.8496 99.7748 26.8908C99.3468 25.6409 99.0557 23.6718 98.7817 21.9939H96.8127C97.1894 24.1341 97.6346 26.0689 98.0626 27.3189C98.1653 27.6099 98.2681 27.8668 98.3879 28.1065C97.7031 28.2606 97.0182 28.3291 96.1963 28.3291C95.2546 28.3291 94.5012 28.2434 93.0972 27.8325V29.7159C94.4841 30.1782 95.0149 30.2981 96.1963 30.2981C97.3606 30.2981 98.4907 29.9557 99.3125 29.4077C99.9632 30.007 100.751 30.2981 101.71 30.2981C101.812 30.2981 101.881 30.2125 101.881 30.1098V28.5003C101.881 28.3975 101.812 28.3291 101.71 28.3291ZM111.31 28.3291C110.625 28.3291 110.283 27.7127 109.906 26.3086L109.512 24.8361C109.05 23.0897 108.074 22.2336 106.653 22.2336C104.187 22.2336 102.732 25.4697 102.732 27.3189C102.732 27.627 102.783 27.901 102.886 28.1578C102.543 28.2777 102.132 28.3291 101.704 28.3291C101.602 28.3291 101.533 28.3975 101.533 28.5003V30.1098C101.533 30.2125 101.602 30.2981 101.704 30.2981C102.732 30.2981 103.417 29.9214 104.016 29.4077C105.095 30.0413 106.721 30.2981 108.519 30.2981L108.913 28.6886C109.409 29.6475 110.094 30.2981 111.31 30.2981C111.413 30.2981 111.481 30.2125 111.481 30.1098V28.5003C111.481 28.3975 111.413 28.3291 111.31 28.3291ZM104.256 27.3017C104.735 25.3498 105.66 24.2198 106.499 24.2198C107.132 24.2198 107.612 24.7848 107.937 25.9148L108.194 26.7709C108.365 27.3189 108.536 27.8496 108.742 28.3291C106.327 28.2948 105.232 27.8668 104.256 27.3017ZM113.083 17.8846V26.8908C113.083 27.8668 112.672 28.3291 111.302 28.3291C111.199 28.3291 111.131 28.3975 111.131 28.5003V30.1098C111.131 30.2125 111.199 30.2981 111.302 30.2981C113.699 30.2981 114.966 28.9626 114.966 27.0278V17.8846H113.083ZM119.674 17.8846H117.79V30.2981H119.674V17.8846Z" fill="#707070"></path>
</g>
<defs>
<filter id="filter0_d_5088_4482" x="0" y="0.59668" width="141.174" height="51.4026" filterUnits="userSpaceOnUse" color-interpolation-filters="sRGB">
<feFlood flood-opacity="0" result="BackgroundImageFix"></feFlood>
<feColorMatrix in="SourceAlpha" type="matrix" values="0 0 0 0 0 0 0 0 0 0 0 0 0 0 0 0 0 0 127 0" result="hardAlpha"></feColorMatrix>
<feOffset dy="2"></feOffset>
<feGaussianBlur stdDeviation="2"></feGaussianBlur>
<feComposite in2="hardAlpha" operator="out"></feComposite>
<feColorMatrix type="matrix" values="0 0 0 0 0 0 0 0 0 0 0 0 0 0 0 0 0 0 0.25 0"></feColorMatrix>
<feBlend mode="normal" in2="BackgroundImageFix" result="effect1_dropShadow_5088_4482"></feBlend>
<feBlend mode="normal" in="SourceGraphic" in2="effect1_dropShadow_5088_4482" result="shape"></feBlend>
</filter>
</defs>
</svg>