<svg viewBox="0 0 25 25" fill="none" xmlns="http://www.w3.org/2000/svg"><circle cx="12" cy="12.1616" r="11.5" fill="#FCB270" stroke="white"></circle><path d="M17.2495 8.42451H15.3225C15.0816 6.65809 13.7166 5.21289 12.1108 5.21289C10.505 5.21289 9.13999 6.5778 8.89911 8.42451H6.97212L5.92828 17.899H18.2933L17.2495 8.42451ZM12.1108 6.01574C13.3152 6.01574 14.3589 6.97931 14.5195 8.34427H9.70202C9.94289 7.0596 10.9064 6.01574 12.1108 6.01574ZM15.3225 10.1107C15.3332 10.5325 15.2606 10.9523 15.109 11.346C14.9574 11.7398 14.7297 12.0997 14.4389 12.4054C14.148 12.7111 13.7999 12.9565 13.4142 13.1276C13.0285 13.2987 12.6129 13.3922 12.1911 13.4026H12.1108C11.259 13.4026 10.4421 13.0642 9.83979 12.4619C9.23748 11.8596 8.89911 11.0427 8.89911 10.1909V9.95008H9.70202V10.1107C9.70202 11.4757 10.8261 12.5997 12.1108 12.5997C13.3955 12.5997 14.5195 11.4757 14.5195 10.1107V9.95008H15.3225V10.1107Z" fill="white"></path></svg>