<svg width="1215" height="953" viewBox="0 0 1215 953" fill="none" xmlns="http://www.w3.org/2000/svg">
<path opacity="0.7" d="M62.8653 160.984L69.385 145.856L107.041 157.665L130.425 162.186L153.874 150.415L168.328 132.964L204.833 127.093L212.232 125.863L223.845 106.936L241.475 97.2952L184.427 37.1834L305.033 21.6938L313.551 14.8207L374.767 27.9015L414.422 47.9662L455.395 73.8055L467.23 80.9622L614.853 198.921L691.414 184.314L748.503 213.467L764.336 237.135L768.903 243.085L779.048 248.466L783.841 246.506L787.859 247.538L792.69 248.613L795.083 249.557L796.532 252.894L798.663 258.713L817.238 264.658L820.036 278.007L830.289 292.519L840.918 298.688L853.909 309.819L857.907 326.33L866.234 332.969L867.734 345.469L855.41 348.572L860.857 368.42L869.355 377.026L873.571 389.475L879.258 389.782L887.405 404.887L886.704 417.885L902.287 441.378L923.981 460.103L949.104 461.243L956.651 478.09L954.763 482.877L958.521 488.741L963.174 493.108L971.122 496.796L965.131 532.322L1081.02 558.945L1148.63 588.577L1163.47 586.208L1184.29 623.181L1138.74 727.456L970.127 771.876L955.403 772.965L903.103 775.846L847.422 780.989L823.731 782.154L806.364 786.92L781.744 797.692L773.236 800.296L767.314 801.507L755.361 811.055L740.849 823.308L727.611 842.148L723.633 851.211L721.84 853.411L721.718 855.68L719.09 857.856L717.422 857.766L714.672 862.211L711.129 865.848L706.834 867.913L700.994 867.598L697.698 866.655L693.526 866.429L691.981 864.049L691.353 860.187C690.865 858.885 689.732 856.119 689.097 855.472C688.463 854.825 687.83 853.107 687.593 852.328L682.753 849.005L676.913 848.69L669.361 849.596L665.246 850.357L657.175 848.938L651.489 848.631L646.003 847.787L640.163 847.472L633.791 844.417C631.899 843.294 628.759 841.701 627.424 841.629C626.089 841.557 623.728 840.205 622.643 839.636L616.994 838.622L611.352 837.495L605.665 837.188C604.607 836.111 601.254 836.644 600.653 835.387C600.051 834.129 595.138 832.044 592.885 832.432C590.911 832.836 585.24 832.835 583.905 832.763C582.237 832.673 578.218 833.27 576.55 833.18C575.215 833.108 571.398 833.298 570.814 833.776C568.562 834.165 568.048 834.351 566.713 834.279C565.379 834.207 564.249 834.656 564.276 834.147C563.748 833.609 563.545 834.609 562.276 833.316C560.69 831.699 561.268 829.911 560.434 829.866C559.599 829.821 558.891 829.067 557.14 830.503C555.739 831.653 552.38 833.292 552.129 832.768C551.573 832.738 548.784 831.682 548.116 831.646L545.679 831.514C541.617 831.295 539.12 833.094 537.424 833.513L531.649 834.831L526.687 836.193C525.386 836.122 521.942 836.498 521.942 836.498L520.059 872.245L530.589 884.91L529.451 904.547L518.067 917.496L498.857 911.662L466.412 891.313L446.064 850.189L405.857 815.717L398.164 796.228L395.134 791.991L386.701 780.469L389.731 771.33L386.701 767.093L383.714 762.043L379.234 754.469L374.293 740.351L367.114 725.463L361.734 719.469L357.848 716L353.149 712.488L348.406 709.787L344.476 707.131L335.52 699.469L331.633 696L327.723 693.345L322.104 691.412L315.011 686.956L307.188 680.954L300.977 675.259L297.291 668.075L293.492 662.981L286.531 656.087L281.327 646.844L274.498 637.513L274.474 622.846L271.202 608.004L270.234 595.73L270.717 586.794L271.199 577.858L271.681 568.921L267.48 549.609L256.522 526.204L250.768 512.043L245.564 502.8L238.734 493.469L233.486 485.038L223.32 477.157L213.532 466.626L202.334 462.762L193.617 458.218L184.219 451.193L176.752 438.568L170.779 428.469L176.752 414.969L170.779 395.755L158.789 376.369L144.231 359.288C138.676 356.544 129.76 340.582 128.486 333.995C128.142 332.216 118.093 314.929 109.074 301.172L93.1972 278.317L84.15 264.792L74.4219 248.787L56.1083 225.8L36.6108 224.748L54.4138 181.712L62.8653 160.984Z" stroke="white" stroke-width="2.44072"></path>
<g opacity="0.7" filter="url(#filter0_d_4339_5019)">
<path d="M717.422 857.766L719.09 845.469C721.471 838.969 726.434 825.069 727.234 821.469C728.234 816.969 735.734 781.969 737.234 774.469C738.734 766.969 744.234 738.469 746.234 727.469C748.234 716.469 769.734 596.469 773.234 573.469C776.034 555.069 781.068 509.135 783.234 488.469L773.734 476.969L756.734 465.469L739.734 455.969L729.234 452.469L747.234 365.969L722.234 353.469L717.734 340.469L707.734 343.469L689.234 324.969L667.234 326.33L659.234 317.469L634.734 300.469L631.734 290.969L619.234 282.469L691.414 184.314" stroke="white" stroke-width="1.63" stroke-linecap="round" stroke-linejoin="round" stroke-dasharray="2 4"></path>
</g>
<g opacity="0.7" filter="url(#filter1_d_4339_5019)">
<path d="M605.734 282.969H619.734" stroke="white" stroke-width="1.63" stroke-linecap="round" stroke-linejoin="round" stroke-dasharray="2 4"></path>
</g>
<g opacity="0.7" filter="url(#filter2_d_4339_5019)">
<path d="M250.234 511.969L266.769 484.124L273.147 480.026L293.549 497.149L308.427 498.206L301.874 504.819L305.45 509.118L314.818 509.784L321.336 503.673L332.592 509.023L325.512 523.184L334.458 529.887L333.721 540.452L353.429 535.784L364.58 542.644L368.283 529.255L405.646 509.66L412.81 510.169L402.327 493.75L430.195 491.178L430.638 468.962L451.191 468.736L453.59 475.196L456.463 491.832L460.548 506.719L466.433 518.443L475.524 531.155L499.852 533.283L502.839 538.332L502.818 553.812L509.098 558.224L526.07 560.77L527.806 573.9L531.079 588.742L520.629 601.214L519.226 627.211L526.784 638.602L510.722 646.563L489.783 645.076L475.409 652.651L464.623 656.436L452.279 666.683L444.705 664.123L439.275 654.636L431.631 653.082L428.711 647.313L424.948 653.619L421.091 653.345L420.856 648.777L409.589 651.517L399.786 641.214L394.171 642.332L391.124 654.251L384.23 657.806L383.949 661.831L375.532 671.346L365.637 678.228L372.931 684.813L373.671 698.012L389.078 715.287L402.325 700.047L404.435 693.624L415.151 690.845L421.998 695.882L421.261 706.448L420.488 717.517L412.622 727.071L395.399 727.871L394.872 735.418L377.234 745.352L411.147 748.203L415.439 758.115L414.526 771.196L419.791 775.109L422.078 789.935L413.139 800.732L399.786 797.968" stroke="white" stroke-width="1.62715" stroke-linejoin="round" stroke-dasharray="2 4"></path>
</g>
<g opacity="0.7" filter="url(#filter3_d_4339_5019)">
<path d="M291.734 226.469L303.133 216.564L315.978 214.454L322.406 209.368L336.14 210.344L394.734 192.469L413.175 198.181L430.894 197.424L443.694 203.875L488.576 201.52L487.596 215.557L500.396 222.008L505.725 216.844L521.107 217.937L520.722 223.451L528.962 224.036L542.65 233.573L563.386 237.061L565.457 254.841L575.989 262.138L594.258 261.42L604.979 281.83L602.734 303.969L583.734 306.969L566.734 292.969L543.234 297.913L528.234 308.469L507.234 322.969L494.734 321.969L489.734 331.469L471.234 332.469L481.234 340.969L474.234 348.469L461.734 347.469L464.734 360.469L447.734 363.469L444.234 375.969L425.734 383.969L413.891 385.647L405.697 376.5L382.578 383.423L381.844 393.951L358.431 389.266L344.698 388.29L333.955 384.001L340.873 371.897L335.11 367.457L342.063 354.852L342.763 344.826L346.244 334.493L335.093 328.159L340.734 319.469L338.734 313.969" stroke="white" stroke-width="1.62715" stroke-linecap="round" stroke-linejoin="round" stroke-dasharray="2 4"></path>
</g>
<g opacity="0.7" filter="url(#filter4_d_4339_5019)">
<path d="M254.862 27.9478L254.557 33.6089L250.836 43.738L262.586 66.2147L283.019 67.6656L296.234 67.4681" stroke="white" stroke-width="1.62715" stroke-linecap="round" stroke-linejoin="round" stroke-dasharray="2 4"></path>
</g>
<g opacity="0.7" filter="url(#filter5_d_4339_5019)">
<path d="M227.034 409.402L227.1 410.213C227.431 410.186 227.713 409.961 227.811 409.643L227.034 409.402ZM237.132 376.826L237.909 377.068C238.028 376.686 237.851 376.274 237.492 376.097L237.132 376.826ZM221.824 369.255L221.013 369.192C220.988 369.523 221.166 369.837 221.464 369.984L221.824 369.255ZM222.72 357.634L223.531 357.697C223.549 357.456 223.46 357.22 223.288 357.052L222.72 357.634ZM198.365 333.845L198.933 333.263C198.711 333.046 198.386 332.974 198.094 333.078L198.365 333.845ZM188.845 337.206L188.034 337.142C188.012 337.417 188.131 337.683 188.35 337.851C188.568 338.019 188.857 338.064 189.116 337.973L188.845 337.206ZM190.345 317.739L189.905 317.055C189.691 317.192 189.553 317.422 189.534 317.676L190.345 317.739ZM198.072 312.78L198.512 313.465C198.702 313.343 198.833 313.147 198.873 312.924C198.913 312.702 198.858 312.472 198.722 312.292L198.072 312.78ZM186.172 296.935L185.369 297.065C185.39 297.195 185.442 297.318 185.522 297.424L186.172 296.935ZM183.847 282.626L184.65 282.496C184.634 282.399 184.601 282.306 184.552 282.222L183.847 282.626ZM178.411 273.148L178.164 272.373C177.929 272.447 177.742 272.624 177.653 272.853C177.564 273.082 177.583 273.339 177.706 273.552L178.411 273.148ZM196.558 267.361L196.805 268.137C196.828 268.129 196.851 268.121 196.873 268.112L196.558 267.361ZM201.699 265.2L202.15 264.523C201.922 264.372 201.634 264.344 201.383 264.45L201.699 265.2ZM210.174 270.852L209.723 271.529C209.894 271.643 210.102 271.688 210.304 271.655L210.174 270.852ZM229.002 267.809L229.608 267.265C229.422 267.059 229.145 266.961 228.872 267.005L229.002 267.809ZM235.767 275.342L236.373 274.8L236.372 274.799L235.767 275.342ZM260.466 302.957L259.86 303.499C260.009 303.666 260.221 303.764 260.446 303.77C260.67 303.776 260.887 303.689 261.044 303.529L260.466 302.957ZM270.509 292.807L270.571 291.996C270.333 291.978 270.099 292.065 269.931 292.235L270.509 292.807ZM286.701 294.05L287.512 294.113C287.529 293.898 287.459 293.685 287.318 293.521C287.178 293.357 286.978 293.255 286.763 293.239L286.701 294.05ZM285.753 306.359L284.941 306.296C284.925 306.511 284.995 306.724 285.135 306.888C285.276 307.052 285.476 307.154 285.691 307.17L285.753 306.359ZM320.993 309.064L321.21 308.28C321.159 308.266 321.107 308.257 321.055 308.253L320.993 309.064ZM338.504 313.915L338.287 314.699C338.634 314.796 339.003 314.652 339.194 314.347L338.504 313.915ZM354.895 287.702L355.585 288.133C355.723 287.913 355.747 287.639 355.649 287.397L354.895 287.702ZM352.213 281.066L352.967 280.762C352.884 280.556 352.72 280.393 352.514 280.311L352.213 281.066ZM341.369 276.727L340.565 276.605C340.509 276.978 340.717 277.341 341.068 277.482L341.369 276.727ZM345.289 250.724L346.093 250.846C346.139 250.543 346.01 250.239 345.76 250.061L345.289 250.724ZM321.434 233.777L320.736 234.195C320.794 234.291 320.872 234.375 320.964 234.44L321.434 233.777ZM317.959 227.974L318.657 227.556C318.517 227.323 318.27 227.174 317.997 227.161L317.959 227.974ZM280.175 221.255L280.533 220.525C280.439 220.479 280.336 220.451 280.231 220.443L280.175 221.255ZM250.935 219.183L250.398 219.793C250.532 219.911 250.701 219.982 250.879 219.995L250.935 219.183ZM231.613 202.154L230.832 201.927C230.744 202.23 230.84 202.556 231.076 202.764L231.613 202.154ZM238.197 179.383L238.978 179.609C239.066 179.306 238.97 178.979 238.733 178.771C238.495 178.563 238.159 178.511 237.87 178.637L238.197 179.383ZM219.323 187.643L218.996 186.898C218.85 186.962 218.725 187.068 218.639 187.202L219.323 187.643ZM213.102 197.306L212.875 198.087C213.221 198.188 213.592 198.049 213.787 197.747L213.102 197.306ZM190.283 190.637L190.511 189.856C190.416 189.828 190.316 189.818 190.218 189.826L190.283 190.637ZM156.831 193.318L156.019 193.261C156.003 193.497 156.09 193.729 156.259 193.896C156.427 194.063 156.66 194.148 156.896 194.129L156.831 193.318ZM157.534 183.265L158.346 183.322C158.377 182.874 158.039 182.485 157.591 182.453L157.534 183.265ZM150.914 182.796L150.205 183.194C150.339 183.432 150.584 183.588 150.857 183.607L150.914 182.796ZM142.039 167.012L142.748 166.613C142.584 166.322 142.259 166.16 141.927 166.206L142.039 167.012ZM105.652 172.011L105.044 172.551C105.225 172.754 105.494 172.854 105.763 172.817L105.652 172.011ZM98.4558 163.923L99.0633 163.383C98.7938 163.08 98.3427 163.021 98.0053 163.245L98.4558 163.923ZM90.897 168.944L90.2994 169.496C90.5705 169.79 91.0148 169.843 91.3475 169.622L90.897 168.944ZM69.8319 144.917C69.527 144.586 69.0123 144.565 68.6823 144.87C68.3522 145.175 68.3318 145.689 68.6366 146.02L69.8319 144.917ZM291.252 226.703L290.893 227.433C290.993 227.482 291.102 227.51 291.214 227.515L291.252 226.703ZM197.214 411.785L197.149 410.974C196.741 411.007 196.42 411.338 196.402 411.747L197.214 411.785ZM69.3587 146.802C69.6636 147.133 70.1783 147.154 70.5083 146.849C70.8384 146.544 70.8588 146.03 70.554 145.699L69.3587 146.802ZM73.4423 148.829C73.1375 148.499 72.6228 148.478 72.2927 148.783C71.9627 149.087 71.9422 149.602 72.2471 149.932L73.4423 148.829ZM73.6913 151.498C73.9961 151.828 74.5108 151.849 74.8409 151.544C75.1709 151.24 75.1914 150.725 74.8865 150.394L73.6913 151.498ZM77.7749 153.525C77.47 153.194 76.9553 153.173 76.6253 153.478C76.2952 153.783 76.2748 154.297 76.5796 154.628L77.7749 153.525ZM78.0238 156.193C78.3287 156.523 78.8434 156.544 79.1734 156.239C79.5035 155.935 79.5239 155.42 79.2191 155.09L78.0238 156.193ZM82.1074 158.22C81.8026 157.889 81.2879 157.869 80.9578 158.173C80.6278 158.478 80.6073 158.993 80.9122 159.323L82.1074 158.22ZM82.3564 160.888C82.6612 161.218 83.1759 161.239 83.506 160.935C83.836 160.63 83.8565 160.115 83.5516 159.785L82.3564 160.888ZM86.44 162.915C86.1351 162.585 85.6204 162.564 85.2904 162.868C84.9603 163.173 84.9399 163.688 85.2447 164.018L86.44 162.915ZM86.6889 165.583C86.9938 165.914 87.5085 165.934 87.8385 165.63C88.1686 165.325 88.189 164.811 87.8842 164.48L86.6889 165.583ZM90.7725 167.61C90.4677 167.28 89.953 167.259 89.6229 167.564C89.2929 167.868 89.2725 168.383 89.5773 168.713L90.7725 167.61ZM91.9774 169.204C92.3515 168.955 92.4531 168.45 92.2043 168.076C91.9555 167.702 91.4505 167.6 91.0764 167.848L91.9774 169.204ZM93.596 166.174C93.2219 166.423 93.1203 166.928 93.3691 167.302C93.6179 167.677 94.1229 167.779 94.497 167.53L93.596 166.174ZM95.7568 166.693C96.1309 166.445 96.2325 165.94 95.9837 165.565C95.7349 165.191 95.2299 165.089 94.8558 165.337L95.7568 166.693ZM97.3754 163.664C97.0013 163.912 96.8997 164.417 97.1485 164.792C97.3973 165.166 97.9023 165.268 98.2764 165.019L97.3754 163.664ZM98.4479 165.138C98.7468 165.474 99.261 165.504 99.5965 165.205C99.932 164.907 99.9618 164.392 99.663 164.057L98.4479 165.138ZM102.062 166.752C101.763 166.417 101.249 166.386 100.913 166.685C100.578 166.983 100.548 167.498 100.847 167.834L102.062 166.752ZM102.046 169.181C102.345 169.517 102.859 169.547 103.195 169.249C103.53 168.95 103.56 168.436 103.261 168.1L102.046 169.181ZM105.66 170.796C105.361 170.46 104.847 170.43 104.511 170.729C104.176 171.027 104.146 171.541 104.445 171.877L105.66 170.796ZM106.774 172.678C107.219 172.617 107.53 172.206 107.468 171.761C107.407 171.316 106.996 171.005 106.551 171.066L106.774 172.678ZM110.594 170.51C110.149 170.571 109.838 170.982 109.9 171.427C109.961 171.872 110.372 172.183 110.817 172.122L110.594 170.51ZM112.838 171.845C113.284 171.783 113.594 171.373 113.533 170.928C113.471 170.483 113.061 170.171 112.616 170.233L112.838 171.845ZM116.659 169.677C116.214 169.738 115.903 170.149 115.964 170.594C116.026 171.039 116.436 171.35 116.881 171.289L116.659 169.677ZM118.903 171.011C119.348 170.95 119.659 170.54 119.597 170.095C119.536 169.65 119.125 169.338 118.68 169.399L118.903 171.011ZM122.723 168.844C122.278 168.905 121.967 169.316 122.029 169.761C122.09 170.206 122.501 170.517 122.946 170.456L122.723 168.844ZM124.967 170.178C125.413 170.117 125.723 169.707 125.662 169.262C125.6 168.816 125.19 168.505 124.745 168.566L124.967 170.178ZM128.788 168.011C128.343 168.072 128.032 168.482 128.093 168.928C128.155 169.373 128.565 169.684 129.011 169.623L128.788 168.011ZM131.032 169.345C131.477 169.284 131.788 168.874 131.726 168.428C131.665 167.983 131.254 167.672 130.809 167.733L131.032 169.345ZM134.852 167.178C134.407 167.239 134.096 167.649 134.158 168.094C134.219 168.54 134.63 168.851 135.075 168.79L134.852 167.178ZM137.097 168.512C137.542 168.451 137.853 168.04 137.791 167.595C137.729 167.15 137.319 166.839 136.874 166.9L137.097 168.512ZM140.917 166.344C140.472 166.406 140.161 166.816 140.222 167.261C140.284 167.706 140.694 168.018 141.14 167.957L140.917 166.344ZM141.823 168.287C142.043 168.679 142.539 168.818 142.931 168.598C143.322 168.378 143.461 167.882 143.241 167.49L141.823 168.287ZM145.213 170.998C144.993 170.606 144.497 170.467 144.105 170.687C143.714 170.907 143.575 171.403 143.795 171.794L145.213 170.998ZM144.781 173.548C145.002 173.94 145.498 174.079 145.889 173.859C146.281 173.639 146.42 173.143 146.199 172.752L144.781 173.548ZM148.172 176.259C147.951 175.867 147.455 175.728 147.064 175.948C146.672 176.168 146.533 176.664 146.754 177.056L148.172 176.259ZM147.74 178.809C147.96 179.201 148.456 179.341 148.848 179.121C149.239 178.901 149.378 178.405 149.158 178.013L147.74 178.809ZM151.13 181.52C150.91 181.128 150.414 180.989 150.022 181.209C149.63 181.429 149.492 181.925 149.712 182.317L151.13 181.52ZM151.961 183.685C152.409 183.717 152.798 183.379 152.829 182.931C152.86 182.483 152.522 182.094 152.074 182.062L151.961 183.685ZM156.488 182.375C156.039 182.343 155.651 182.681 155.619 183.129C155.588 183.577 155.926 183.966 156.374 183.998L156.488 182.375ZM156.664 184.045C156.633 184.493 156.971 184.882 157.419 184.914C157.867 184.946 158.256 184.608 158.287 184.16L156.664 184.045ZM158.053 187.511C158.084 187.063 157.746 186.674 157.298 186.642C156.85 186.61 156.461 186.948 156.43 187.396L158.053 187.511ZM156.312 189.072C156.281 189.52 156.619 189.909 157.067 189.941C157.515 189.973 157.904 189.635 157.935 189.187L156.312 189.072ZM157.701 192.538C157.732 192.09 157.394 191.7 156.946 191.669C156.498 191.637 156.109 191.975 156.078 192.423L157.701 192.538ZM157.826 194.055C158.273 194.019 158.607 193.627 158.571 193.179C158.535 192.731 158.142 192.397 157.694 192.433L157.826 194.055ZM161.411 192.135C160.963 192.171 160.63 192.563 160.666 193.011C160.702 193.459 161.095 193.793 161.543 193.757L161.411 192.135ZM163.401 193.608C163.849 193.572 164.183 193.18 164.146 192.732C164.11 192.284 163.718 191.95 163.27 191.986L163.401 193.608ZM166.987 191.688C166.539 191.724 166.205 192.116 166.242 192.564C166.278 193.012 166.67 193.346 167.118 193.31L166.987 191.688ZM168.977 193.161C169.424 193.125 169.758 192.733 169.722 192.285C169.685 191.837 169.293 191.503 168.845 191.539L168.977 193.161ZM172.562 191.241C172.114 191.277 171.781 191.669 171.817 192.117C171.853 192.565 172.246 192.899 172.694 192.863L172.562 191.241ZM174.552 192.714C175 192.678 175.333 192.286 175.297 191.838C175.261 191.39 174.868 191.056 174.421 191.092L174.552 192.714ZM178.138 190.794C177.69 190.83 177.356 191.222 177.392 191.67C177.429 192.118 177.821 192.452 178.269 192.416L178.138 190.794ZM180.127 192.267C180.575 192.231 180.909 191.839 180.873 191.391C180.836 190.943 180.444 190.609 179.996 190.645L180.127 192.267ZM183.713 190.347C183.265 190.383 182.932 190.775 182.968 191.223C183.004 191.671 183.397 192.005 183.844 191.969L183.713 190.347ZM185.703 191.82C186.151 191.785 186.484 191.392 186.448 190.944C186.412 190.497 186.019 190.163 185.572 190.198L185.703 191.82ZM189.289 189.901C188.841 189.936 188.507 190.329 188.543 190.777C188.58 191.224 188.972 191.558 189.42 191.523L189.289 189.901ZM191.007 191.696C191.438 191.822 191.89 191.575 192.015 191.143C192.141 190.712 191.893 190.26 191.462 190.134L191.007 191.696ZM195.265 191.245C194.834 191.119 194.382 191.367 194.256 191.798C194.131 192.229 194.378 192.681 194.81 192.807L195.265 191.245ZM196.711 193.363C197.143 193.489 197.594 193.242 197.72 192.81C197.846 192.379 197.598 191.927 197.167 191.801L196.711 193.363ZM200.97 192.913C200.538 192.787 200.087 193.034 199.961 193.465C199.835 193.897 200.083 194.348 200.515 194.475L200.97 192.913ZM202.416 195.03C202.848 195.156 203.299 194.909 203.425 194.478C203.55 194.046 203.303 193.594 202.871 193.468L202.416 195.03ZM206.674 194.58C206.243 194.454 205.791 194.701 205.666 195.132C205.54 195.564 205.788 196.016 206.219 196.142L206.674 194.58ZM208.121 196.697C208.552 196.823 209.004 196.576 209.13 196.145C209.255 195.713 209.007 195.262 208.576 195.136L208.121 196.697ZM212.379 196.247C211.948 196.121 211.496 196.368 211.371 196.8C211.245 197.231 211.493 197.683 211.924 197.809L212.379 196.247ZM214.305 196.941C214.548 196.564 214.439 196.06 214.061 195.817C213.683 195.573 213.18 195.682 212.937 196.06L214.305 196.941ZM215.01 192.839C214.767 193.217 214.876 193.72 215.254 193.964C215.632 194.207 216.135 194.098 216.378 193.721L215.01 192.839ZM217.415 192.11C217.658 191.733 217.549 191.229 217.171 190.986C216.793 190.742 216.29 190.851 216.047 191.228L217.415 192.11ZM218.12 188.008C217.877 188.385 217.986 188.889 218.364 189.132C218.742 189.376 219.245 189.267 219.488 188.889L218.12 188.008ZM220.698 187.93C221.109 187.75 221.297 187.27 221.116 186.858C220.936 186.447 220.456 186.259 220.045 186.439L220.698 187.93ZM224.239 184.603C223.827 184.783 223.64 185.263 223.82 185.675C224.001 186.086 224.481 186.274 224.892 186.094L224.239 184.603ZM226.989 185.176C227.401 184.996 227.588 184.516 227.408 184.105C227.227 183.693 226.747 183.505 226.336 183.685L226.989 185.176ZM230.53 181.85C230.119 182.03 229.931 182.51 230.112 182.921C230.292 183.333 230.772 183.521 231.183 183.341L230.53 181.85ZM233.281 182.423C233.692 182.243 233.879 181.763 233.699 181.351C233.518 180.94 233.039 180.752 232.627 180.932L233.281 182.423ZM236.821 179.096C236.41 179.276 236.223 179.756 236.403 180.168C236.583 180.579 237.063 180.767 237.475 180.587L236.821 179.096ZM237.141 180.105C237.016 180.536 237.265 180.988 237.696 181.113C238.128 181.238 238.579 180.99 238.704 180.558L237.141 180.105ZM237.607 184.353C237.731 183.922 237.483 183.47 237.051 183.345C236.619 183.22 236.168 183.468 236.044 183.9L237.607 184.353ZM235.495 185.798C235.37 186.229 235.619 186.681 236.051 186.806C236.482 186.931 236.933 186.682 237.058 186.251L235.495 185.798ZM235.961 190.046C236.086 189.614 235.837 189.163 235.405 189.038C234.974 188.913 234.523 189.161 234.398 189.593L235.961 190.046ZM233.849 191.49C233.724 191.922 233.973 192.373 234.405 192.498C234.836 192.624 235.287 192.375 235.412 191.944L233.849 191.49ZM234.315 195.739C234.44 195.307 234.191 194.856 233.759 194.731C233.328 194.606 232.877 194.854 232.752 195.286L234.315 195.739ZM232.203 197.183C232.079 197.615 232.327 198.066 232.759 198.191C233.191 198.316 233.642 198.068 233.766 197.636L232.203 197.183ZM232.669 201.432C232.794 201 232.545 200.549 232.114 200.424C231.682 200.298 231.231 200.547 231.106 200.978L232.669 201.432ZM231.881 203.473C232.218 203.771 232.732 203.738 233.029 203.401C233.326 203.064 233.293 202.55 232.956 202.253L231.881 203.473ZM236.176 205.091C235.839 204.794 235.325 204.826 235.028 205.163C234.731 205.5 234.764 206.014 235.101 206.312L236.176 205.091ZM236.711 207.731C237.049 208.028 237.563 207.996 237.86 207.659C238.157 207.322 238.124 206.808 237.787 206.51L236.711 207.731ZM241.007 209.349C240.67 209.051 240.156 209.084 239.859 209.421C239.562 209.758 239.595 210.272 239.932 210.569L241.007 209.349ZM241.542 211.988C241.879 212.285 242.393 212.253 242.69 211.916C242.987 211.579 242.954 211.065 242.617 210.768L241.542 211.988ZM245.837 213.606C245.5 213.309 244.986 213.341 244.689 213.678C244.392 214.015 244.425 214.529 244.762 214.826L245.837 213.606ZM246.372 216.245C246.71 216.543 247.224 216.51 247.521 216.173C247.817 215.836 247.785 215.322 247.448 215.025L246.372 216.245ZM250.668 217.863C250.331 217.566 249.817 217.598 249.52 217.935C249.223 218.272 249.255 218.786 249.593 219.084L250.668 217.863ZM251.853 220.064C252.301 220.095 252.69 219.758 252.722 219.31C252.753 218.861 252.415 218.472 251.967 218.441L251.853 220.064ZM255.865 218.717C255.417 218.685 255.028 219.023 254.997 219.471C254.966 219.919 255.304 220.308 255.752 220.34L255.865 218.717ZM257.701 220.478C258.149 220.51 258.538 220.172 258.569 219.724C258.601 219.276 258.263 218.887 257.815 218.855L257.701 220.478ZM261.713 219.131C261.265 219.099 260.876 219.437 260.845 219.885C260.814 220.334 261.151 220.723 261.6 220.754L261.713 219.131ZM263.549 220.893C263.997 220.924 264.386 220.587 264.417 220.138C264.449 219.69 264.111 219.301 263.662 219.269L263.549 220.893ZM267.561 219.546C267.113 219.514 266.724 219.851 266.693 220.3C266.661 220.748 266.999 221.137 267.447 221.169L267.561 219.546ZM269.397 221.307C269.845 221.339 270.234 221.001 270.265 220.553C270.296 220.105 269.959 219.715 269.51 219.684L269.397 221.307ZM273.409 219.96C272.961 219.928 272.572 220.266 272.541 220.714C272.509 221.162 272.847 221.551 273.295 221.583L273.409 219.96ZM275.245 221.721C275.693 221.753 276.082 221.415 276.113 220.967C276.144 220.519 275.806 220.13 275.358 220.098L275.245 221.721ZM279.257 220.374C278.809 220.343 278.42 220.68 278.388 221.128C278.357 221.577 278.695 221.966 279.143 221.998L279.257 220.374ZM280.739 222.439C281.143 222.637 281.63 222.471 281.828 222.068C282.026 221.665 281.86 221.177 281.456 220.979L280.739 222.439ZM285.149 222.795C284.745 222.597 284.258 222.763 284.06 223.166C283.862 223.569 284.028 224.057 284.432 224.255L285.149 222.795ZM286.278 225.163C286.681 225.361 287.169 225.195 287.367 224.792C287.565 224.389 287.398 223.901 286.995 223.703L286.278 225.163ZM290.687 225.519C290.284 225.32 289.796 225.486 289.598 225.89C289.4 226.293 289.567 226.781 289.97 226.979L290.687 225.519ZM292.327 227.568C292.775 227.59 293.156 227.243 293.177 226.794C293.198 226.346 292.851 225.964 292.403 225.943L292.327 227.568ZM296.854 226.155C296.405 226.134 296.024 226.48 296.003 226.929C295.982 227.378 296.329 227.759 296.778 227.78L296.854 226.155ZM299.004 227.886C299.452 227.908 299.833 227.561 299.854 227.112C299.875 226.663 299.528 226.282 299.079 226.261L299.004 227.886ZM303.531 226.473C303.082 226.451 302.701 226.798 302.68 227.247C302.659 227.696 303.006 228.077 303.455 228.098L303.531 226.473ZM305.68 228.204C306.129 228.225 306.51 227.879 306.531 227.43C306.552 226.981 306.205 226.6 305.756 226.579L305.68 228.204ZM310.208 226.791C309.759 226.769 309.378 227.116 309.357 227.565C309.336 228.013 309.683 228.395 310.132 228.416L310.208 226.791ZM312.357 228.522C312.806 228.543 313.187 228.197 313.208 227.748C313.229 227.299 312.882 226.918 312.433 226.896L312.357 228.522ZM316.885 227.108C316.436 227.087 316.055 227.434 316.034 227.882C316.013 228.331 316.36 228.712 316.809 228.734L316.885 227.108ZM317.841 229.359C318.072 229.744 318.571 229.87 318.957 229.639C319.342 229.409 319.467 228.909 319.236 228.524L317.841 229.359ZM321.553 232.392C321.322 232.007 320.822 231.881 320.437 232.112C320.052 232.342 319.926 232.842 320.157 233.227L321.553 232.392ZM321.759 235.005C322.125 235.265 322.633 235.18 322.893 234.813C323.153 234.447 323.067 233.939 322.7 233.679L321.759 235.005ZM325.881 235.938C325.514 235.678 325.007 235.764 324.747 236.13C324.487 236.496 324.573 237.004 324.939 237.265L325.881 235.938ZM326.53 238.395C326.896 238.655 327.404 238.569 327.664 238.203C327.924 237.837 327.838 237.329 327.471 237.068L326.53 238.395ZM330.652 239.328C330.285 239.068 329.778 239.153 329.518 239.52C329.258 239.886 329.344 240.394 329.71 240.654L330.652 239.328ZM331.301 241.784C331.667 242.044 332.175 241.959 332.435 241.592C332.695 241.226 332.609 240.718 332.242 240.458L331.301 241.784ZM335.423 242.717C335.056 242.457 334.548 242.543 334.288 242.909C334.029 243.275 334.115 243.783 334.481 244.044L335.423 242.717ZM336.072 245.174C336.438 245.434 336.946 245.348 337.206 244.982C337.466 244.615 337.38 244.108 337.013 243.847L336.072 245.174ZM340.194 246.107C339.827 245.846 339.319 245.932 339.059 246.299C338.799 246.665 338.886 247.173 339.252 247.433L340.194 246.107ZM340.843 248.563C341.209 248.823 341.717 248.737 341.977 248.371C342.237 248.005 342.15 247.497 341.784 247.237L340.843 248.563ZM344.965 249.496C344.598 249.236 344.09 249.322 343.83 249.688C343.57 250.054 343.657 250.562 344.023 250.823L344.965 249.496ZM344.321 251.686C344.254 252.13 344.56 252.545 345.004 252.612C345.449 252.68 345.863 252.374 345.93 251.93L344.321 251.686ZM345.277 256.263C345.344 255.819 345.038 255.404 344.594 255.337C344.149 255.27 343.735 255.575 343.668 256.019L345.277 256.263ZM343.341 258.186C343.274 258.631 343.58 259.045 344.025 259.113C344.469 259.18 344.883 258.875 344.95 258.43L343.341 258.186ZM344.297 262.764C344.364 262.32 344.058 261.905 343.614 261.838C343.17 261.77 342.755 262.076 342.688 262.52L344.297 262.764ZM342.361 264.687C342.294 265.131 342.6 265.546 343.045 265.613C343.489 265.681 343.903 265.375 343.97 264.931L342.361 264.687ZM343.317 269.265C343.384 268.82 343.078 268.406 342.634 268.338C342.19 268.271 341.775 268.576 341.708 269.021L343.317 269.265ZM341.381 271.187C341.315 271.632 341.62 272.046 342.065 272.114C342.509 272.181 342.923 271.876 342.99 271.431L341.381 271.187ZM342.337 275.765C342.404 275.321 342.098 274.906 341.654 274.839C341.21 274.771 340.795 275.077 340.728 275.521L342.337 275.765ZM341.971 277.844C342.389 278.011 342.862 277.808 343.028 277.391C343.195 276.973 342.992 276.5 342.575 276.333L341.971 277.844ZM346.189 277.779C345.772 277.612 345.298 277.815 345.132 278.232C344.965 278.649 345.168 279.123 345.586 279.29L346.189 277.779ZM347.393 280.013C347.81 280.18 348.283 279.977 348.45 279.56C348.617 279.143 348.413 278.67 347.996 278.503L347.393 280.013ZM351.611 279.949C351.193 279.782 350.72 279.985 350.553 280.402C350.387 280.819 350.59 281.293 351.007 281.46L351.611 279.949ZM351.905 282.476C352.074 282.893 352.548 283.095 352.965 282.926C353.381 282.758 353.582 282.284 353.414 281.868L351.905 282.476ZM355.202 286.291C355.034 285.874 354.559 285.673 354.143 285.841C353.726 286.009 353.525 286.483 353.694 286.9L355.202 286.291ZM353.659 288.143C353.421 288.524 353.536 289.026 353.917 289.265C354.298 289.503 354.8 289.388 355.038 289.007L353.659 288.143ZM352.853 292.502C353.091 292.122 352.975 291.619 352.594 291.381C352.213 291.142 351.711 291.258 351.473 291.639L352.853 292.502ZM350.38 293.386C350.142 293.767 350.258 294.269 350.639 294.508C351.02 294.746 351.522 294.631 351.76 294.25L350.38 293.386ZM349.575 297.745C349.813 297.364 349.697 296.862 349.316 296.624C348.935 296.385 348.433 296.501 348.195 296.881L349.575 297.745ZM347.102 298.629C346.864 299.01 346.98 299.512 347.361 299.75C347.742 299.989 348.244 299.874 348.482 299.493L347.102 298.629ZM346.296 302.988C346.535 302.607 346.419 302.105 346.038 301.866C345.657 301.628 345.155 301.743 344.917 302.124L346.296 302.988ZM343.824 303.872C343.586 304.253 343.702 304.755 344.083 304.993C344.464 305.232 344.966 305.116 345.204 304.735L343.824 303.872ZM343.018 308.231C343.256 307.85 343.141 307.348 342.76 307.109C342.379 306.871 341.877 306.986 341.638 307.367L343.018 308.231ZM340.546 309.115C340.308 309.495 340.423 309.997 340.804 310.236C341.185 310.474 341.687 310.359 341.925 309.978L340.546 309.115ZM339.74 313.473C339.978 313.093 339.862 312.591 339.481 312.352C339.1 312.114 338.598 312.229 338.36 312.61L339.74 313.473ZM337.747 312.862C337.314 312.742 336.866 312.996 336.747 313.429C336.627 313.862 336.881 314.31 337.314 314.43L337.747 312.862ZM333.423 313.352C333.856 313.472 334.304 313.218 334.424 312.785C334.543 312.352 334.289 311.904 333.856 311.784L333.423 313.352ZM331.911 311.245C331.478 311.125 331.03 311.379 330.91 311.812C330.79 312.245 331.044 312.693 331.478 312.813L331.911 311.245ZM327.586 311.735C328.019 311.855 328.468 311.601 328.587 311.168C328.707 310.735 328.453 310.287 328.019 310.167L327.586 311.735ZM326.074 309.628C325.641 309.508 325.193 309.761 325.073 310.194C324.954 310.627 325.208 311.076 325.641 311.196L326.074 309.628ZM321.75 310.118C322.183 310.238 322.631 309.984 322.75 309.551C322.87 309.118 322.616 308.67 322.183 308.55L321.75 310.118ZM320.076 308.178C319.628 308.143 319.237 308.479 319.203 308.927C319.169 309.375 319.505 309.766 319.953 309.8L320.076 308.178ZM316.037 309.5C316.485 309.534 316.876 309.199 316.91 308.751C316.944 308.303 316.608 307.912 316.16 307.877L316.037 309.5ZM314.202 307.727C313.754 307.693 313.364 308.028 313.33 308.476C313.296 308.924 313.631 309.315 314.079 309.349L314.202 307.727ZM310.164 309.049C310.612 309.083 311.003 308.748 311.036 308.3C311.07 307.852 310.735 307.461 310.287 307.426L310.164 309.049ZM308.329 307.276C307.881 307.242 307.49 307.577 307.456 308.025C307.422 308.473 307.758 308.864 308.206 308.899L308.329 307.276ZM304.29 308.598C304.738 308.632 305.129 308.297 305.163 307.849C305.197 307.401 304.861 307.01 304.413 306.975L304.29 308.598ZM302.456 306.825C302.008 306.791 301.617 307.126 301.583 307.574C301.549 308.022 301.884 308.413 302.332 308.448L302.456 306.825ZM298.417 308.147C298.865 308.181 299.256 307.846 299.29 307.398C299.324 306.95 298.988 306.559 298.54 306.525L298.417 308.147ZM296.582 306.374C296.134 306.34 295.743 306.675 295.709 307.123C295.675 307.571 296.011 307.962 296.459 307.997L296.582 306.374ZM292.543 307.696C292.991 307.731 293.382 307.395 293.416 306.947C293.45 306.499 293.114 306.108 292.666 306.074L292.543 307.696ZM290.709 305.923C290.261 305.889 289.87 306.224 289.836 306.672C289.802 307.12 290.138 307.512 290.586 307.546L290.709 305.923ZM286.67 307.245C287.118 307.28 287.509 306.944 287.543 306.496C287.577 306.048 287.241 305.657 286.793 305.623L286.67 307.245ZM286.643 305.396C286.677 304.948 286.342 304.557 285.894 304.522C285.446 304.487 285.055 304.822 285.02 305.27L286.643 305.396ZM285.337 301.167C285.302 301.615 285.637 302.007 286.085 302.041C286.533 302.076 286.924 301.742 286.959 301.294L285.337 301.167ZM287.117 299.242C287.151 298.794 286.816 298.403 286.368 298.368C285.92 298.333 285.529 298.668 285.495 299.116L287.117 299.242ZM285.811 295.013C285.776 295.461 286.112 295.852 286.559 295.887C287.007 295.922 287.399 295.587 287.433 295.139L285.811 295.013ZM285.863 293.17C285.415 293.135 285.024 293.471 284.99 293.919C284.956 294.367 285.292 294.758 285.74 294.792L285.863 293.17ZM282.142 294.516C282.59 294.551 282.981 294.215 283.015 293.767C283.049 293.319 282.713 292.928 282.265 292.894L282.142 294.516ZM280.466 292.756C280.018 292.721 279.627 293.056 279.593 293.505C279.559 293.953 279.895 294.344 280.343 294.378L280.466 292.756ZM276.745 294.102C277.193 294.136 277.583 293.801 277.617 293.353C277.651 292.905 277.316 292.514 276.868 292.479L276.745 294.102ZM275.069 292.341C274.621 292.307 274.23 292.642 274.196 293.09C274.162 293.538 274.497 293.929 274.946 293.964L275.069 292.341ZM271.347 293.688C271.795 293.722 272.186 293.387 272.22 292.939C272.254 292.491 271.918 292.099 271.47 292.065L271.347 293.688ZM269.094 293.08C268.778 293.4 268.781 293.915 269.1 294.231C269.42 294.547 269.935 294.545 270.251 294.226L269.094 293.08ZM266.903 297.609C267.219 297.289 267.216 296.774 266.897 296.458C266.577 296.142 266.062 296.144 265.746 296.464L266.903 297.609ZM264.072 298.155C263.756 298.474 263.759 298.989 264.079 299.306C264.398 299.622 264.913 299.62 265.229 299.3L264.072 298.155ZM261.881 302.683C262.197 302.364 262.194 301.849 261.875 301.533C261.555 301.217 261.04 301.219 260.724 301.538L261.881 302.683ZM260.386 301.647C260.086 301.312 259.572 301.283 259.237 301.583C258.902 301.882 258.874 302.397 259.174 302.732L260.386 301.647ZM256.429 299.663C256.729 299.998 257.243 300.027 257.578 299.728C257.913 299.428 257.941 298.914 257.642 298.579L256.429 299.663ZM256.269 297.045C255.97 296.71 255.455 296.681 255.121 296.98C254.786 297.28 254.757 297.794 255.057 298.129L256.269 297.045ZM252.313 295.061C252.613 295.396 253.127 295.425 253.462 295.125C253.796 294.826 253.825 294.312 253.525 293.977L252.313 295.061ZM252.153 292.443C251.853 292.107 251.339 292.079 251.004 292.378C250.67 292.677 250.641 293.192 250.941 293.527L252.153 292.443ZM248.196 290.459C248.496 290.794 249.01 290.822 249.345 290.523C249.68 290.224 249.708 289.709 249.409 289.374L248.196 290.459ZM248.037 287.84C247.737 287.505 247.223 287.476 246.888 287.776C246.553 288.075 246.525 288.589 246.824 288.924L248.037 287.84ZM244.08 285.856C244.38 286.191 244.894 286.22 245.229 285.921C245.564 285.621 245.592 285.107 245.292 284.772L244.08 285.856ZM243.92 283.238C243.621 282.903 243.106 282.874 242.771 283.173C242.437 283.473 242.408 283.987 242.708 284.322L243.92 283.238ZM239.964 281.254C240.263 281.589 240.778 281.618 241.112 281.318C241.447 281.019 241.476 280.504 241.176 280.169L239.964 281.254ZM239.804 278.635C239.504 278.3 238.99 278.271 238.655 278.571C238.32 278.87 238.292 279.384 238.592 279.72L239.804 278.635ZM235.847 276.651C236.147 276.986 236.661 277.015 236.996 276.716C237.331 276.416 237.359 275.902 237.06 275.567L235.847 276.651ZM235.809 274.171C235.508 273.836 234.994 273.809 234.66 274.109C234.326 274.409 234.298 274.923 234.599 275.258L235.809 274.171ZM232.344 272.746C232.644 273.081 233.158 273.109 233.492 272.809C233.827 272.509 233.854 271.994 233.554 271.66L232.344 272.746ZM232.426 270.404C232.126 270.07 231.612 270.042 231.277 270.342C230.943 270.642 230.916 271.156 231.216 271.491L232.426 270.404ZM228.961 268.98C229.261 269.314 229.776 269.342 230.11 269.042C230.444 268.742 230.472 268.227 230.171 267.893L228.961 268.98ZM227.826 267.174C227.382 267.246 227.081 267.664 227.153 268.107C227.226 268.551 227.643 268.853 228.087 268.781L227.826 267.174ZM223.903 269.457C224.346 269.386 224.647 268.968 224.575 268.524C224.503 268.081 224.085 267.779 223.642 267.851L223.903 269.457ZM221.55 268.189C221.106 268.261 220.805 268.678 220.877 269.122C220.949 269.566 221.367 269.867 221.811 269.795L221.55 268.189ZM217.627 270.472C218.07 270.4 218.371 269.982 218.299 269.539C218.227 269.095 217.809 268.794 217.366 268.865L217.627 270.472ZM215.273 269.204C214.83 269.275 214.529 269.693 214.601 270.137C214.673 270.58 215.091 270.882 215.534 270.81L215.273 269.204ZM211.35 271.486C211.794 271.415 212.095 270.997 212.023 270.553C211.951 270.11 211.533 269.808 211.089 269.88L211.35 271.486ZM209.918 269.704C209.544 269.455 209.039 269.556 208.79 269.93C208.541 270.303 208.643 270.809 209.017 271.058L209.918 269.704ZM206.192 269.174C206.566 269.423 207.071 269.322 207.32 268.949C207.569 268.575 207.467 268.07 207.093 267.82L206.192 269.174ZM205.681 266.878C205.307 266.629 204.802 266.73 204.553 267.103C204.304 267.477 204.405 267.982 204.779 268.232L205.681 266.878ZM201.954 266.348C202.328 266.597 202.833 266.496 203.082 266.123C203.331 265.749 203.23 265.244 202.856 264.994L201.954 266.348ZM200.526 264.81C200.112 264.984 199.918 265.461 200.092 265.875C200.266 266.29 200.744 266.484 201.158 266.31L200.526 264.81ZM197.73 267.751C198.144 267.577 198.339 267.1 198.164 266.686C197.99 266.272 197.513 266.077 197.099 266.251L197.73 267.751ZM195.302 266.908C194.874 267.044 194.638 267.502 194.775 267.93C194.911 268.358 195.369 268.595 195.797 268.458L195.302 266.908ZM191.765 269.744C192.193 269.607 192.429 269.15 192.292 268.722C192.155 268.294 191.697 268.057 191.269 268.194L191.765 269.744ZM189.253 268.836C188.825 268.973 188.589 269.431 188.726 269.859C188.863 270.287 189.32 270.523 189.748 270.387L189.253 268.836ZM185.716 271.673C186.144 271.536 186.38 271.079 186.243 270.65C186.106 270.222 185.648 269.986 185.22 270.122L185.716 271.673ZM183.204 270.765C182.776 270.902 182.54 271.359 182.677 271.788C182.814 272.216 183.272 272.452 183.7 272.316L183.204 270.765ZM179.667 273.601C180.095 273.465 180.331 273.007 180.194 272.579C180.057 272.151 179.6 271.915 179.172 272.051L179.667 273.601ZM178.159 274.342C178.382 274.732 178.879 274.867 179.269 274.644C179.659 274.42 179.793 273.923 179.57 273.533L178.159 274.342ZM181.382 276.693C181.158 276.303 180.661 276.168 180.271 276.391C179.881 276.614 179.747 277.111 179.97 277.501L181.382 276.693ZM180.876 279.081C181.1 279.471 181.597 279.606 181.987 279.383C182.376 279.159 182.511 278.662 182.288 278.272L180.876 279.081ZM184.099 281.432C183.876 281.042 183.378 280.907 182.989 281.13C182.599 281.353 182.464 281.85 182.688 282.24L184.099 281.432ZM183.237 283.948C183.31 284.392 183.727 284.693 184.171 284.622C184.614 284.55 184.915 284.132 184.843 283.688L183.237 283.948ZM185.618 288.458C185.546 288.015 185.128 287.713 184.685 287.785C184.241 287.857 183.94 288.274 184.013 288.718L185.618 288.458ZM184.4 291.103C184.472 291.546 184.89 291.848 185.334 291.776C185.777 291.705 186.078 291.287 186.006 290.843L184.4 291.103ZM186.781 295.613C186.709 295.169 186.291 294.868 185.848 294.94C185.404 295.011 185.103 295.429 185.175 295.873L186.781 295.613ZM186.183 298.304C186.453 298.663 186.963 298.736 187.322 298.466C187.681 298.197 187.753 297.687 187.483 297.327L186.183 298.304ZM190.128 300.848C189.858 300.489 189.348 300.416 188.989 300.686C188.63 300.955 188.557 301.465 188.827 301.825L190.128 300.848ZM190.149 303.585C190.419 303.945 190.929 304.018 191.289 303.748C191.648 303.478 191.72 302.968 191.45 302.609L190.149 303.585ZM194.095 306.13C193.825 305.77 193.315 305.698 192.955 305.967C192.596 306.237 192.524 306.747 192.794 307.106L194.095 306.13ZM194.116 308.867C194.386 309.226 194.896 309.299 195.255 309.029C195.614 308.76 195.687 308.25 195.417 307.89L194.116 308.867ZM198.061 311.411C197.791 311.052 197.281 310.979 196.922 311.249C196.563 311.518 196.491 312.028 196.761 312.388L198.061 311.411ZM196.988 312.508C196.61 312.751 196.501 313.254 196.744 313.632C196.987 314.011 197.49 314.121 197.868 313.878L196.988 312.508ZM195.292 315.531C195.67 315.289 195.78 314.785 195.537 314.407C195.294 314.029 194.79 313.919 194.413 314.161L195.292 315.531ZM193.125 314.988C192.747 315.231 192.637 315.734 192.88 316.112C193.123 316.49 193.626 316.6 194.004 316.358L193.125 314.988ZM191.428 318.011C191.806 317.768 191.916 317.265 191.673 316.887C191.43 316.509 190.927 316.399 190.549 316.641L191.428 318.011ZM189.45 318.758C189.416 319.206 189.751 319.597 190.199 319.632C190.647 319.667 191.038 319.332 191.072 318.884L189.45 318.758ZM190.739 323.21C190.774 322.762 190.438 322.37 189.99 322.336C189.543 322.301 189.151 322.636 189.117 323.084L190.739 323.21ZM188.95 325.246C188.916 325.694 189.251 326.086 189.699 326.121C190.147 326.156 190.538 325.821 190.572 325.373L188.95 325.246ZM190.239 329.699C190.274 329.251 189.938 328.859 189.49 328.824C189.043 328.789 188.651 329.124 188.617 329.572L190.239 329.699ZM188.45 331.735C188.416 332.183 188.751 332.575 189.199 332.609C189.647 332.644 190.038 332.31 190.072 331.862L188.45 331.735ZM189.739 336.187C189.774 335.739 189.438 335.348 188.991 335.313C188.543 335.278 188.151 335.613 188.117 336.061L189.739 336.187ZM189.909 337.693C190.333 337.543 190.555 337.078 190.405 336.655C190.255 336.231 189.79 336.009 189.367 336.158L189.909 337.693ZM192.54 335.038C192.117 335.187 191.895 335.652 192.045 336.076C192.194 336.5 192.659 336.722 193.083 336.572L192.54 335.038ZM194.67 336.012C195.093 335.863 195.315 335.398 195.165 334.974C195.015 334.551 194.55 334.328 194.127 334.478L194.67 336.012ZM197.3 333.358C196.877 333.507 196.655 333.972 196.805 334.396C196.955 334.819 197.42 335.042 197.843 334.892L197.3 333.358ZM198.473 335.087C198.795 335.402 199.31 335.396 199.624 335.074C199.938 334.753 199.931 334.238 199.61 333.924L198.473 335.087ZM202.316 336.567C201.994 336.253 201.479 336.259 201.165 336.58C200.852 336.901 200.858 337.417 201.18 337.731L202.316 336.567ZM202.533 339.052C202.854 339.366 203.369 339.36 203.683 339.039C203.997 338.718 203.99 338.203 203.669 337.889L202.533 339.052ZM206.375 340.532C206.053 340.218 205.538 340.223 205.225 340.545C204.911 340.866 204.917 341.381 205.239 341.695L206.375 340.532ZM206.592 343.017C206.913 343.331 207.428 343.325 207.742 343.004C208.056 342.683 208.05 342.167 207.728 341.853L206.592 343.017ZM210.434 344.497C210.112 344.182 209.597 344.188 209.284 344.51C208.97 344.831 208.976 345.346 209.298 345.66L210.434 344.497ZM210.651 346.982C210.972 347.296 211.487 347.29 211.801 346.969C212.115 346.647 212.109 346.132 211.787 345.818L210.651 346.982ZM214.493 348.461C214.172 348.147 213.657 348.153 213.343 348.474C213.029 348.796 213.035 349.311 213.357 349.625L214.493 348.461ZM214.71 350.947C215.031 351.261 215.547 351.255 215.86 350.933C216.174 350.612 216.168 350.097 215.846 349.783L214.71 350.947ZM218.552 352.426C218.231 352.112 217.716 352.118 217.402 352.439C217.088 352.761 217.094 353.276 217.416 353.59L218.552 352.426ZM218.769 354.911C219.091 355.225 219.606 355.22 219.919 354.898C220.233 354.577 220.227 354.062 219.905 353.748L218.769 354.911ZM222.611 356.391C222.29 356.077 221.775 356.083 221.461 356.404C221.147 356.725 221.153 357.24 221.475 357.555L222.611 356.391ZM221.834 358.539C221.799 358.987 222.135 359.378 222.583 359.413C223.031 359.448 223.422 359.113 223.456 358.665L221.834 358.539ZM223.158 362.539C223.192 362.091 222.857 361.7 222.409 361.665C221.961 361.63 221.57 361.965 221.535 362.413L223.158 362.539ZM221.386 364.35C221.352 364.798 221.687 365.189 222.135 365.224C222.583 365.259 222.974 364.924 223.008 364.476L221.386 364.35ZM222.71 368.35C222.745 367.902 222.409 367.51 221.961 367.475C221.513 367.441 221.122 367.775 221.088 368.223L222.71 368.35ZM222.315 370.405C222.717 370.604 223.205 370.439 223.404 370.037C223.603 369.634 223.438 369.146 223.035 368.946L222.315 370.405ZM226.437 370.629C226.034 370.43 225.546 370.595 225.347 370.997C225.148 371.4 225.314 371.888 225.716 372.087L226.437 370.629ZM227.417 372.929C227.82 373.128 228.308 372.963 228.507 372.56C228.706 372.157 228.54 371.669 228.138 371.47L227.417 372.929ZM231.539 373.153C231.136 372.953 230.649 373.118 230.45 373.521C230.251 373.924 230.416 374.412 230.819 374.611L231.539 373.153ZM232.52 375.452C232.923 375.652 233.411 375.487 233.61 375.084C233.808 374.681 233.643 374.193 233.24 373.994L232.52 375.452ZM236.642 375.676C236.239 375.477 235.751 375.642 235.552 376.045C235.354 376.448 235.519 376.936 235.922 377.135L236.642 375.676ZM236.075 377.49C235.942 377.919 236.182 378.375 236.611 378.508C237.04 378.641 237.496 378.402 237.629 377.973L236.075 377.49ZM236.507 381.592C236.64 381.163 236.4 380.707 235.971 380.574C235.542 380.44 235.086 380.68 234.953 381.109L236.507 381.592ZM234.392 382.919C234.259 383.348 234.499 383.804 234.928 383.937C235.357 384.071 235.813 383.831 235.946 383.402L234.392 382.919ZM234.824 387.022C234.957 386.592 234.717 386.136 234.288 386.003C233.859 385.87 233.403 386.109 233.27 386.538L234.824 387.022ZM232.709 388.348C232.576 388.777 232.816 389.233 233.245 389.367C233.674 389.5 234.13 389.26 234.263 388.831L232.709 388.348ZM233.141 392.451C233.274 392.022 233.034 391.566 232.605 391.432C232.175 391.299 231.72 391.539 231.587 391.968L233.141 392.451ZM231.026 393.777C230.893 394.207 231.133 394.663 231.562 394.796C231.991 394.929 232.447 394.69 232.58 394.261L231.026 393.777ZM231.458 397.88C231.591 397.451 231.351 396.995 230.922 396.862C230.492 396.728 230.037 396.968 229.904 397.397L231.458 397.88ZM229.343 399.207C229.21 399.636 229.45 400.092 229.879 400.225C230.308 400.359 230.764 400.119 230.897 399.69L229.343 399.207ZM229.775 403.309C229.908 402.88 229.668 402.424 229.239 402.291C228.809 402.157 228.354 402.397 228.221 402.826L229.775 403.309ZM227.66 404.636C227.527 405.065 227.767 405.521 228.196 405.654C228.625 405.788 229.081 405.548 229.214 405.119L227.66 404.636ZM228.092 408.739C228.225 408.31 227.985 407.854 227.556 407.72C227.126 407.587 226.671 407.826 226.538 408.255L228.092 408.739ZM225.975 408.67C225.527 408.706 225.193 409.098 225.229 409.546C225.265 409.994 225.658 410.328 226.106 410.292L225.975 408.67ZM222.13 410.61C222.578 410.574 222.911 410.182 222.875 409.734C222.839 409.286 222.447 408.952 221.999 408.988L222.13 410.61ZM220.011 409.147C219.563 409.183 219.229 409.575 219.265 410.023C219.301 410.471 219.694 410.805 220.142 410.769L220.011 409.147ZM216.166 411.087C216.614 411.051 216.947 410.659 216.911 410.211C216.875 409.763 216.483 409.429 216.035 409.465L216.166 411.087ZM214.047 409.624C213.599 409.659 213.265 410.051 213.301 410.499C213.338 410.947 213.73 411.281 214.178 411.246L214.047 409.624ZM210.202 411.563C210.65 411.528 210.983 411.135 210.947 410.688C210.911 410.24 210.519 409.906 210.071 409.941L210.202 411.563ZM208.083 410.1C207.635 410.136 207.301 410.528 207.337 410.976C207.374 411.424 207.766 411.758 208.214 411.722L208.083 410.1ZM204.238 412.04C204.686 412.004 205.019 411.612 204.983 411.164C204.947 410.716 204.555 410.382 204.107 410.418L204.238 412.04ZM202.119 410.577C201.671 410.613 201.337 411.005 201.373 411.453C201.41 411.901 201.802 412.235 202.25 412.199L202.119 410.577ZM198.274 412.517C198.722 412.481 199.055 412.089 199.019 411.641C198.983 411.193 198.591 410.859 198.143 410.895L198.274 412.517ZM196.356 412.743C196.335 413.192 196.682 413.573 197.131 413.594C197.58 413.615 197.96 413.268 197.981 412.819L196.356 412.743ZM197.798 416.803C197.818 416.354 197.471 415.973 197.022 415.952C196.574 415.931 196.193 416.278 196.172 416.727L197.798 416.803ZM196.081 418.719C196.06 419.168 196.407 419.549 196.856 419.57C197.305 419.591 197.685 419.244 197.706 418.795L196.081 418.719ZM197.522 422.779C197.543 422.33 197.196 421.949 196.747 421.928C196.298 421.907 195.918 422.254 195.897 422.703L197.522 422.779ZM195.805 424.695C195.785 425.144 196.132 425.524 196.581 425.546C197.029 425.567 197.41 425.22 197.431 424.771L195.805 424.695ZM197.247 428.755C197.268 428.306 196.921 427.925 196.472 427.904C196.023 427.883 195.642 428.23 195.622 428.679L197.247 428.755ZM195.53 430.671C195.509 431.119 195.856 431.5 196.305 431.521C196.754 431.543 197.135 431.196 197.155 430.747L195.53 430.671ZM196.972 434.731C196.993 434.282 196.645 433.901 196.197 433.88C195.748 433.859 195.367 434.206 195.347 434.654L196.972 434.731ZM195.255 436.646C195.234 437.095 195.581 437.476 196.03 437.497C196.479 437.518 196.859 437.172 196.88 436.723L195.255 436.646ZM196.697 440.707C196.717 440.258 196.37 439.877 195.921 439.856C195.473 439.835 195.092 440.182 195.071 440.63L196.697 440.707ZM194.98 442.622C194.959 443.071 195.306 443.452 195.755 443.473C196.204 443.494 196.584 443.148 196.605 442.699L194.98 442.622ZM196.421 446.683C196.442 446.234 196.095 445.853 195.646 445.832C195.197 445.811 194.817 446.157 194.796 446.606L196.421 446.683ZM194.704 448.598C194.684 449.047 195.031 449.428 195.48 449.449C195.928 449.47 196.309 449.123 196.33 448.675L194.704 448.598ZM196.146 452.659C196.167 452.21 195.82 451.829 195.371 451.808C194.922 451.787 194.542 452.133 194.521 452.582L196.146 452.659ZM194.429 454.574C194.409 455.023 194.756 455.404 195.204 455.425C195.653 455.446 196.034 455.099 196.055 454.65L194.429 454.574ZM195.871 458.634C195.892 458.186 195.545 457.805 195.096 457.784C194.647 457.762 194.266 458.109 194.246 458.558L195.871 458.634ZM68.6366 146.02L69.3587 146.802L70.554 145.699L69.8319 144.917L68.6366 146.02ZM72.2471 149.932L73.6913 151.498L74.8865 150.394L73.4423 148.829L72.2471 149.932ZM76.5796 154.628L78.0238 156.193L79.2191 155.09L77.7749 153.525L76.5796 154.628ZM80.9122 159.323L82.3564 160.888L83.5516 159.785L82.1074 158.22L80.9122 159.323ZM85.2447 164.018L86.6889 165.583L87.8842 164.48L86.44 162.915L85.2447 164.018ZM89.5773 168.713L90.2994 169.496L91.4946 168.393L90.7725 167.61L89.5773 168.713ZM91.3475 169.622L91.9774 169.204L91.0764 167.848L90.4465 168.266L91.3475 169.622ZM94.497 167.53L95.7568 166.693L94.8558 165.337L93.596 166.174L94.497 167.53ZM98.2764 165.019L98.9063 164.601L98.0053 163.245L97.3754 163.664L98.2764 165.019ZM97.8483 164.464L98.4479 165.138L99.663 164.057L99.0633 163.383L97.8483 164.464ZM100.847 167.834L102.046 169.181L103.261 168.1L102.062 166.752L100.847 167.834ZM104.445 171.877L105.044 172.551L106.259 171.47L105.66 170.796L104.445 171.877ZM105.763 172.817L106.774 172.678L106.551 171.066L105.54 171.205L105.763 172.817ZM110.817 172.122L112.838 171.845L112.616 170.233L110.594 170.51L110.817 172.122ZM116.881 171.289L118.903 171.011L118.68 169.399L116.659 169.677L116.881 171.289ZM122.946 170.456L124.967 170.178L124.745 168.566L122.723 168.844L122.946 170.456ZM129.011 169.623L131.032 169.345L130.809 167.733L128.788 168.011L129.011 169.623ZM135.075 168.79L137.097 168.512L136.874 166.9L134.852 167.178L135.075 168.79ZM141.14 167.957L142.15 167.818L141.927 166.206L140.917 166.344L141.14 167.957ZM141.33 167.41L141.823 168.287L143.241 167.49L142.748 166.613L141.33 167.41ZM143.795 171.794L144.781 173.548L146.199 172.752L145.213 170.998L143.795 171.794ZM146.754 177.056L147.74 178.809L149.158 178.013L148.172 176.259L146.754 177.056ZM149.712 182.317L150.205 183.194L151.623 182.397L151.13 181.52L149.712 182.317ZM150.857 183.607L151.961 183.685L152.074 182.062L150.971 181.984L150.857 183.607ZM156.374 183.998L157.477 184.076L157.591 182.453L156.488 182.375L156.374 183.998ZM156.723 183.207L156.664 184.045L158.287 184.16L158.346 183.322L156.723 183.207ZM156.43 187.396L156.312 189.072L157.935 189.187L158.053 187.511L156.43 187.396ZM156.078 192.423L156.019 193.261L157.642 193.376L157.701 192.538L156.078 192.423ZM156.896 194.129L157.826 194.055L157.694 192.433L156.765 192.507L156.896 194.129ZM161.543 193.757L163.401 193.608L163.27 191.986L161.411 192.135L161.543 193.757ZM167.118 193.31L168.977 193.161L168.845 191.539L166.987 191.688L167.118 193.31ZM172.694 192.863L174.552 192.714L174.421 191.092L172.562 191.241L172.694 192.863ZM178.269 192.416L180.127 192.267L179.996 190.645L178.138 190.794L178.269 192.416ZM183.844 191.969L185.703 191.82L185.572 190.198L183.713 190.347L183.844 191.969ZM189.42 191.523L190.349 191.448L190.218 189.826L189.289 189.901L189.42 191.523ZM190.056 191.418L191.007 191.696L191.462 190.134L190.511 189.856L190.056 191.418ZM194.81 192.807L196.711 193.363L197.167 191.801L195.265 191.245L194.81 192.807ZM200.515 194.475L202.416 195.03L202.871 193.468L200.97 192.913L200.515 194.475ZM206.219 196.142L208.121 196.697L208.576 195.136L206.674 194.58L206.219 196.142ZM211.924 197.809L212.875 198.087L213.33 196.525L212.379 196.247L211.924 197.809ZM213.787 197.747L214.305 196.941L212.937 196.06L212.418 196.865L213.787 197.747ZM216.378 193.721L217.415 192.11L216.047 191.228L215.01 192.839L216.378 193.721ZM219.488 188.889L220.007 188.084L218.639 187.202L218.12 188.008L219.488 188.889ZM219.649 188.389L220.698 187.93L220.045 186.439L218.996 186.898L219.649 188.389ZM224.892 186.094L226.989 185.176L226.336 183.685L224.239 184.603L224.892 186.094ZM231.183 183.341L233.281 182.423L232.627 180.932L230.53 181.85L231.183 183.341ZM237.475 180.587L238.523 180.128L237.87 178.637L236.821 179.096L237.475 180.587ZM237.415 179.156L237.141 180.105L238.704 180.558L238.978 179.609L237.415 179.156ZM236.044 183.9L235.495 185.798L237.058 186.251L237.607 184.353L236.044 183.9ZM234.398 189.593L233.849 191.49L235.412 191.944L235.961 190.046L234.398 189.593ZM232.752 195.286L232.203 197.183L233.766 197.636L234.315 195.739L232.752 195.286ZM231.106 200.978L230.832 201.927L232.395 202.38L232.669 201.432L231.106 200.978ZM231.076 202.764L231.881 203.473L232.956 202.253L232.151 201.544L231.076 202.764ZM235.101 206.312L236.711 207.731L237.787 206.51L236.176 205.091L235.101 206.312ZM239.932 210.569L241.542 211.988L242.617 210.768L241.007 209.349L239.932 210.569ZM244.762 214.826L246.372 216.245L247.448 215.025L245.837 213.606L244.762 214.826ZM249.593 219.084L250.398 219.793L251.473 218.573L250.668 217.863L249.593 219.084ZM250.879 219.995L251.853 220.064L251.967 218.441L250.992 218.371L250.879 219.995ZM255.752 220.34L257.701 220.478L257.815 218.855L255.865 218.717L255.752 220.34ZM261.6 220.754L263.549 220.893L263.662 219.269L261.713 219.131L261.6 220.754ZM267.447 221.169L269.397 221.307L269.51 219.684L267.561 219.546L267.447 221.169ZM273.295 221.583L275.245 221.721L275.358 220.098L273.409 219.96L273.295 221.583ZM279.143 221.998L280.118 222.067L280.231 220.443L279.257 220.374L279.143 221.998ZM279.816 221.985L280.739 222.439L281.456 220.979L280.533 220.525L279.816 221.985ZM284.432 224.255L286.278 225.163L286.995 223.703L285.149 222.795L284.432 224.255ZM289.97 226.979L290.893 227.433L291.61 225.973L290.687 225.519L289.97 226.979ZM291.214 227.515L292.327 227.568L292.403 225.943L291.29 225.89L291.214 227.515ZM296.778 227.78L299.004 227.886L299.079 226.261L296.854 226.155L296.778 227.78ZM303.455 228.098L305.68 228.204L305.756 226.579L303.531 226.473L303.455 228.098ZM310.132 228.416L312.357 228.522L312.433 226.896L310.208 226.791L310.132 228.416ZM316.809 228.734L317.921 228.787L317.997 227.161L316.885 227.108L316.809 228.734ZM317.262 228.392L317.841 229.359L319.236 228.524L318.657 227.556L317.262 228.392ZM320.157 233.227L320.736 234.195L322.132 233.359L321.553 232.392L320.157 233.227ZM320.964 234.44L321.759 235.005L322.7 233.679L321.905 233.114L320.964 234.44ZM324.939 237.265L326.53 238.395L327.471 237.068L325.881 235.938L324.939 237.265ZM329.71 240.654L331.301 241.784L332.242 240.458L330.652 239.328L329.71 240.654ZM334.481 244.044L336.072 245.174L337.013 243.847L335.423 242.717L334.481 244.044ZM339.252 247.433L340.843 248.563L341.784 247.237L340.194 246.107L339.252 247.433ZM344.023 250.823L344.818 251.388L345.76 250.061L344.965 249.496L344.023 250.823ZM344.485 250.602L344.321 251.686L345.93 251.93L346.093 250.846L344.485 250.602ZM343.668 256.019L343.341 258.186L344.95 258.43L345.277 256.263L343.668 256.019ZM342.688 262.52L342.361 264.687L343.97 264.931L344.297 262.764L342.688 262.52ZM341.708 269.021L341.381 271.187L342.99 271.431L343.317 269.265L341.708 269.021ZM340.728 275.521L340.565 276.605L342.174 276.849L342.337 275.765L340.728 275.521ZM341.068 277.482L341.971 277.844L342.575 276.333L341.671 275.971L341.068 277.482ZM345.586 279.29L347.393 280.013L347.996 278.503L346.189 277.779L345.586 279.29ZM351.007 281.46L351.911 281.821L352.514 280.311L351.611 279.949L351.007 281.46ZM351.458 281.37L351.905 282.476L353.414 281.868L352.967 280.762L351.458 281.37ZM353.694 286.9L354.141 288.006L355.649 287.397L355.202 286.291L353.694 286.9ZM354.205 287.27L353.659 288.143L355.038 289.007L355.585 288.133L354.205 287.27ZM351.473 291.639L350.38 293.386L351.76 294.25L352.853 292.502L351.473 291.639ZM348.195 296.881L347.102 298.629L348.482 299.493L349.575 297.745L348.195 296.881ZM344.917 302.124L343.824 303.872L345.204 304.735L346.296 302.988L344.917 302.124ZM341.638 307.367L340.546 309.115L341.925 309.978L343.018 308.231L341.638 307.367ZM338.36 312.61L337.814 313.484L339.194 314.347L339.74 313.473L338.36 312.61ZM338.72 313.131L337.747 312.862L337.314 314.43L338.287 314.699L338.72 313.131ZM333.856 311.784L331.911 311.245L331.478 312.813L333.423 313.352L333.856 311.784ZM328.019 310.167L326.074 309.628L325.641 311.196L327.586 311.735L328.019 310.167ZM322.183 308.55L321.21 308.28L320.777 309.848L321.75 310.118L322.183 308.55ZM321.055 308.253L320.076 308.178L319.953 309.8L320.932 309.875L321.055 308.253ZM316.16 307.877L314.202 307.727L314.079 309.349L316.037 309.5L316.16 307.877ZM310.287 307.426L308.329 307.276L308.206 308.899L310.164 309.049L310.287 307.426ZM304.413 306.975L302.456 306.825L302.332 308.448L304.29 308.598L304.413 306.975ZM298.54 306.525L296.582 306.374L296.459 307.997L298.417 308.147L298.54 306.525ZM292.666 306.074L290.709 305.923L290.586 307.546L292.543 307.696L292.666 306.074ZM286.793 305.623L285.814 305.548L285.691 307.17L286.67 307.245L286.793 305.623ZM286.564 306.422L286.643 305.396L285.02 305.27L284.941 306.296L286.564 306.422ZM286.959 301.294L287.117 299.242L285.495 299.116L285.337 301.167L286.959 301.294ZM287.433 295.139L287.512 294.113L285.89 293.987L285.811 295.013L287.433 295.139ZM286.763 293.239L285.863 293.17L285.74 294.792L286.639 294.861L286.763 293.239ZM282.265 292.894L280.466 292.756L280.343 294.378L282.142 294.516L282.265 292.894ZM276.868 292.479L275.069 292.341L274.946 293.964L276.745 294.102L276.868 292.479ZM271.47 292.065L270.571 291.996L270.448 293.618L271.347 293.688L271.47 292.065ZM269.931 292.235L269.094 293.08L270.251 294.226L271.088 293.38L269.931 292.235ZM265.746 296.464L264.072 298.155L265.229 299.3L266.903 297.609L265.746 296.464ZM260.724 301.538L259.887 302.384L261.044 303.529L261.881 302.683L260.724 301.538ZM261.072 302.414L260.386 301.647L259.174 302.732L259.86 303.499L261.072 302.414ZM257.642 298.579L256.269 297.045L255.057 298.129L256.429 299.663L257.642 298.579ZM253.525 293.977L252.153 292.443L250.941 293.527L252.313 295.061L253.525 293.977ZM249.409 289.374L248.037 287.84L246.824 288.924L248.196 290.459L249.409 289.374ZM245.292 284.772L243.92 283.238L242.708 284.322L244.08 285.856L245.292 284.772ZM241.176 280.169L239.804 278.635L238.592 279.72L239.964 281.254L241.176 280.169ZM237.06 275.567L236.373 274.8L235.161 275.884L235.847 276.651L237.06 275.567ZM236.372 274.799L235.809 274.171L234.599 275.258L235.162 275.885L236.372 274.799ZM233.554 271.66L232.426 270.404L231.216 271.491L232.344 272.746L233.554 271.66ZM230.171 267.893L229.608 267.265L228.397 268.352L228.961 268.98L230.171 267.893ZM228.872 267.005L227.826 267.174L228.087 268.781L229.133 268.612L228.872 267.005ZM223.642 267.851L221.55 268.189L221.811 269.795L223.903 269.457L223.642 267.851ZM217.366 268.865L215.273 269.204L215.534 270.81L217.627 270.472L217.366 268.865ZM211.089 269.88L210.043 270.049L210.304 271.655L211.35 271.486L211.089 269.88ZM210.625 270.175L209.918 269.704L209.017 271.058L209.723 271.529L210.625 270.175ZM207.093 267.82L205.681 266.878L204.779 268.232L206.192 269.174L207.093 267.82ZM202.856 264.994L202.15 264.523L201.248 265.877L201.954 266.348L202.856 264.994ZM201.383 264.45L200.526 264.81L201.158 266.31L202.014 265.95L201.383 264.45ZM197.099 266.251L196.242 266.611L196.873 268.112L197.73 267.751L197.099 266.251ZM196.31 266.586L195.302 266.908L195.797 268.458L196.805 268.137L196.31 266.586ZM191.269 268.194L189.253 268.836L189.748 270.387L191.765 269.744L191.269 268.194ZM185.22 270.122L183.204 270.765L183.7 272.316L185.716 271.673L185.22 270.122ZM179.172 272.051L178.164 272.373L178.659 273.923L179.667 273.601L179.172 272.051ZM177.706 273.552L178.159 274.342L179.57 273.533L179.117 272.743L177.706 273.552ZM179.97 277.501L180.876 279.081L182.288 278.272L181.382 276.693L179.97 277.501ZM182.688 282.24L183.141 283.03L184.552 282.222L184.099 281.432L182.688 282.24ZM183.044 282.756L183.237 283.948L184.843 283.688L184.65 282.496L183.044 282.756ZM184.013 288.718L184.4 291.103L186.006 290.843L185.618 288.458L184.013 288.718ZM185.175 295.873L185.369 297.065L186.975 296.805L186.781 295.613L185.175 295.873ZM185.522 297.424L186.183 298.304L187.483 297.327L186.822 296.447L185.522 297.424ZM188.827 301.825L190.149 303.585L191.45 302.609L190.128 300.848L188.827 301.825ZM192.794 307.106L194.116 308.867L195.417 307.89L194.095 306.13L192.794 307.106ZM196.761 312.388L197.422 313.268L198.722 312.292L198.061 311.411L196.761 312.388ZM197.632 312.095L196.988 312.508L197.868 313.878L198.512 313.465L197.632 312.095ZM194.413 314.161L193.125 314.988L194.004 316.358L195.292 315.531L194.413 314.161ZM190.549 316.641L189.905 317.055L190.784 318.424L191.428 318.011L190.549 316.641ZM189.534 317.676L189.45 318.758L191.072 318.884L191.156 317.803L189.534 317.676ZM189.117 323.084L188.95 325.246L190.572 325.373L190.739 323.21L189.117 323.084ZM188.617 329.572L188.45 331.735L190.072 331.862L190.239 329.699L188.617 329.572ZM188.117 336.061L188.034 337.142L189.656 337.269L189.739 336.187L188.117 336.061ZM189.116 337.973L189.909 337.693L189.367 336.158L188.573 336.438L189.116 337.973ZM193.083 336.572L194.67 336.012L194.127 334.478L192.54 335.038L193.083 336.572ZM197.843 334.892L198.636 334.612L198.094 333.078L197.3 333.358L197.843 334.892ZM197.797 334.427L198.473 335.087L199.61 333.924L198.933 333.263L197.797 334.427ZM201.18 337.731L202.533 339.052L203.669 337.889L202.316 336.567L201.18 337.731ZM205.239 341.695L206.592 343.017L207.728 341.853L206.375 340.532L205.239 341.695ZM209.298 345.66L210.651 346.982L211.787 345.818L210.434 344.497L209.298 345.66ZM213.357 349.625L214.71 350.947L215.846 349.783L214.493 348.461L213.357 349.625ZM217.416 353.59L218.769 354.911L219.905 353.748L218.552 352.426L217.416 353.59ZM221.475 357.555L222.152 358.215L223.288 357.052L222.611 356.391L221.475 357.555ZM221.909 357.57L221.834 358.539L223.456 358.665L223.531 357.697L221.909 357.57ZM221.535 362.413L221.386 364.35L223.008 364.476L223.158 362.539L221.535 362.413ZM221.088 368.223L221.013 369.192L222.635 369.318L222.71 368.35L221.088 368.223ZM221.464 369.984L222.315 370.405L223.035 368.946L222.184 368.526L221.464 369.984ZM225.716 372.087L227.417 372.929L228.138 371.47L226.437 370.629L225.716 372.087ZM230.819 374.611L232.52 375.452L233.24 373.994L231.539 373.153L230.819 374.611ZM235.922 377.135L236.772 377.556L237.492 376.097L236.642 375.676L235.922 377.135ZM236.355 376.585L236.075 377.49L237.629 377.973L237.909 377.068L236.355 376.585ZM234.953 381.109L234.392 382.919L235.946 383.402L236.507 381.592L234.953 381.109ZM233.27 386.538L232.709 388.348L234.263 388.831L234.824 387.022L233.27 386.538ZM231.587 391.968L231.026 393.777L232.58 394.261L233.141 392.451L231.587 391.968ZM229.904 397.397L229.343 399.207L230.897 399.69L231.458 397.88L229.904 397.397ZM228.221 402.826L227.66 404.636L229.214 405.119L229.775 403.309L228.221 402.826ZM226.538 408.255L226.257 409.16L227.811 409.643L228.092 408.739L226.538 408.255ZM226.969 408.591L225.975 408.67L226.106 410.292L227.1 410.213L226.969 408.591ZM221.999 408.988L220.011 409.147L220.142 410.769L222.13 410.61L221.999 408.988ZM216.035 409.465L214.047 409.624L214.178 411.246L216.166 411.087L216.035 409.465ZM210.071 409.941L208.083 410.1L208.214 411.722L210.202 411.563L210.071 409.941ZM204.107 410.418L202.119 410.577L202.25 412.199L204.238 412.04L204.107 410.418ZM198.143 410.895L197.149 410.974L197.28 412.596L198.274 412.517L198.143 410.895ZM196.402 411.747L196.356 412.743L197.981 412.819L198.027 411.823L196.402 411.747ZM196.172 416.727L196.081 418.719L197.706 418.795L197.798 416.803L196.172 416.727ZM195.897 422.703L195.805 424.695L197.431 424.771L197.522 422.779L195.897 422.703ZM195.622 428.679L195.53 430.671L197.155 430.747L197.247 428.755L195.622 428.679ZM195.347 434.654L195.255 436.646L196.88 436.723L196.972 434.731L195.347 434.654ZM195.071 440.63L194.98 442.622L196.605 442.699L196.697 440.707L195.071 440.63ZM194.796 446.606L194.704 448.598L196.33 448.675L196.421 446.683L194.796 446.606ZM194.521 452.582L194.429 454.574L196.055 454.65L196.146 452.659L194.521 452.582ZM194.246 458.558L194.2 459.554L195.825 459.63L195.871 458.634L194.246 458.558Z" fill="white"></path>
</g>
<g opacity="0.7" filter="url(#filter6_d_4339_5019)">
<path d="M280.208 220.922L287.473 188.747L292.682 183.303L281.117 163.416L289.523 157.925L270.402 132.49L248.987 124.413L245.498 107.486L255.289 92.2974L285.8 94.2189L294.322 91.3671L296.177 67.2522L338.595 67.1676L349.734 74.0059L359.641 74.7094L375.384 86.9141L386.297 81.1378L418.221 83.4048L431.831 97.2651L451.493 99.0693L450.716 113.33L461.488 114.451L460.599 130.164L437.625 146.518L409.093 160.398L409.768 155.774L396.483 165.012L394.558 192.592" stroke="white" stroke-width="1.62715" stroke-linecap="round" stroke-linejoin="round" stroke-dasharray="2 4"></path>
</g>
<g opacity="0.7" filter="url(#filter7_d_4339_5019)">
<path d="M425.734 383.968L434.234 388.968L430.758 409.413L445.234 421.468L460.396 434.055L468.068 427.766L475.431 428.163L489.503 438.211L495.329 435.941L513.201 436.905L516.859 414.43L543.293 407.709L557.893 393.831L599.413 394.442L607.864 373.715L593.218 358.259L589.197 327.081L616.159 310.611L609.922 305.386L607.617 302.818L602.734 303.969" stroke="white" stroke-width="1.62715" stroke-linecap="round" stroke-linejoin="round" stroke-dasharray="2 4"></path>
</g>
<g opacity="0.7" filter="url(#filter8_d_4339_5019)">
<path d="M460.234 433.969L460.542 446.427L451.255 452.443L450.817 460.567L451.234 468.969" stroke="white" stroke-width="1.62715" stroke-linecap="round" stroke-linejoin="round" stroke-dasharray="2 4"></path>
</g>
<g opacity="0.7" filter="url(#filter9_d_4339_5019)">
<path d="M432.234 652.969L430.033 658.756L434.948 668.128L432.487 671.462L425.04 674.442L415.234 690.969M422.234 789.969L430.401 789.114L439.853 797.304L449.932 796.516L459.66 808.736L464.093 809.051L468.114 799.311L472.411 793.601L477.398 793.955L479.403 805.126L491.8 811.019L499.004 811.53L502.985 818.33L507.139 822.635L518.222 823.422L521.271 819.628L516.586 811.453L520.28 805.339L517.314 797.963L516.847 795.253L517.787 781.785L524.857 777.625L523.17 773.024L518.547 763.755L521.491 753.993L524.626 746.044L526.799 722.492L535.367 714.153L541.365 700.104L544.284 691.299L550.803 676.171L526.734 638.468" stroke="white" stroke-width="1.62715" stroke-linecap="round" stroke-linejoin="round" stroke-dasharray="2 4"></path>
</g>
<g opacity="0.7" filter="url(#filter10_d_4339_5019)">
<path d="M541.364 700.105L548.237 708.623L558.097 722.191C563.915 725.974 575.521 734.903 578.517 736.329C581.514 737.755 596.903 743.211 602.495 744.956L621.224 745.152L635.847 745.941L665.356 742.645L702.813 743.037L744.234 740.969M518.234 823.469L520.538 831.019L524.589 836.361" stroke="white" stroke-width="1.62715" stroke-linecap="round" stroke-linejoin="round" stroke-dasharray="2 4"></path>
</g>
<defs>
<filter id="filter0_d_4339_5019" x="613.538" y="178.618" width="175.393" height="684.845" filterUnits="userSpaceOnUse" color-interpolation-filters="sRGB">
<feFlood flood-opacity="0" result="BackgroundImageFix"></feFlood>
<feColorMatrix in="SourceAlpha" type="matrix" values="0 0 0 0 0 0 0 0 0 0 0 0 0 0 0 0 0 0 127 0" result="hardAlpha"></feColorMatrix>
<feOffset></feOffset>
<feGaussianBlur stdDeviation="2.44072"></feGaussianBlur>
<feColorMatrix type="matrix" values="0 0 0 0 1 0 0 0 0 1 0 0 0 0 1 0 0 0 0.73 0"></feColorMatrix>
<feBlend mode="normal" in2="BackgroundImageFix" result="effect1_dropShadow_4339_5019"></feBlend>
<feBlend mode="normal" in="SourceGraphic" in2="effect1_dropShadow_4339_5019" result="shape"></feBlend>
</filter>
<filter id="filter1_d_4339_5019" x="600.038" y="277.272" width="25.3928" height="11.3928" filterUnits="userSpaceOnUse" color-interpolation-filters="sRGB">
<feFlood flood-opacity="0" result="BackgroundImageFix"></feFlood>
<feColorMatrix in="SourceAlpha" type="matrix" values="0 0 0 0 0 0 0 0 0 0 0 0 0 0 0 0 0 0 127 0" result="hardAlpha"></feColorMatrix>
<feOffset></feOffset>
<feGaussianBlur stdDeviation="2.44072"></feGaussianBlur>
<feColorMatrix type="matrix" values="0 0 0 0 1 0 0 0 0 1 0 0 0 0 1 0 0 0 0.73 0"></feColorMatrix>
<feBlend mode="normal" in2="BackgroundImageFix" result="effect1_dropShadow_4339_5019"></feBlend>
<feBlend mode="normal" in="SourceGraphic" in2="effect1_dropShadow_4339_5019" result="shape"></feBlend>
</filter>
<filter id="filter2_d_4339_5019" x="230.009" y="448.397" width="321.409" height="372.675" filterUnits="userSpaceOnUse" color-interpolation-filters="sRGB">
<feFlood flood-opacity="0" result="BackgroundImageFix"></feFlood>
<feColorMatrix in="SourceAlpha" type="matrix" values="0 0 0 0 0 0 0 0 0 0 0 0 0 0 0 0 0 0 127 0" result="hardAlpha"></feColorMatrix>
<feOffset></feOffset>
<feGaussianBlur stdDeviation="9.76289"></feGaussianBlur>
<feColorMatrix type="matrix" values="0 0 0 0 1 0 0 0 0 1 0 0 0 0 1 0 0 0 1 0"></feColorMatrix>
<feBlend mode="normal" in2="BackgroundImageFix" result="effect1_dropShadow_4339_5019"></feBlend>
<feBlend mode="normal" in="SourceGraphic" in2="effect1_dropShadow_4339_5019" result="shape"></feBlend>
</filter>
<filter id="filter3_d_4339_5019" x="271.395" y="172.129" width="353.923" height="242.161" filterUnits="userSpaceOnUse" color-interpolation-filters="sRGB">
<feFlood flood-opacity="0" result="BackgroundImageFix"></feFlood>
<feColorMatrix in="SourceAlpha" type="matrix" values="0 0 0 0 0 0 0 0 0 0 0 0 0 0 0 0 0 0 127 0" result="hardAlpha"></feColorMatrix>
<feOffset></feOffset>
<feGaussianBlur stdDeviation="9.76289"></feGaussianBlur>
<feColorMatrix type="matrix" values="0 0 0 0 1 0 0 0 0 1 0 0 0 0 1 0 0 0 1 0"></feColorMatrix>
<feBlend mode="normal" in2="BackgroundImageFix" result="effect1_dropShadow_4339_5019"></feBlend>
<feBlend mode="normal" in="SourceGraphic" in2="effect1_dropShadow_4339_5019" result="shape"></feBlend>
</filter>
<filter id="filter4_d_4339_5019" x="230.497" y="7.6085" width="86.0769" height="80.3968" filterUnits="userSpaceOnUse" color-interpolation-filters="sRGB">
<feFlood flood-opacity="0" result="BackgroundImageFix"></feFlood>
<feColorMatrix in="SourceAlpha" type="matrix" values="0 0 0 0 0 0 0 0 0 0 0 0 0 0 0 0 0 0 127 0" result="hardAlpha"></feColorMatrix>
<feOffset></feOffset>
<feGaussianBlur stdDeviation="9.76289"></feGaussianBlur>
<feColorMatrix type="matrix" values="0 0 0 0 1 0 0 0 0 1 0 0 0 0 1 0 0 0 1 0"></feColorMatrix>
<feBlend mode="normal" in2="BackgroundImageFix" result="effect1_dropShadow_4339_5019"></feBlend>
<feBlend mode="normal" in="SourceGraphic" in2="effect1_dropShadow_4339_5019" result="shape"></feBlend>
</filter>
<filter id="filter5_d_4339_5019" x="48.895" y="125.129" width="326.339" height="354.027" filterUnits="userSpaceOnUse" color-interpolation-filters="sRGB">
<feFlood flood-opacity="0" result="BackgroundImageFix"></feFlood>
<feColorMatrix in="SourceAlpha" type="matrix" values="0 0 0 0 0 0 0 0 0 0 0 0 0 0 0 0 0 0 127 0" result="hardAlpha"></feColorMatrix>
<feOffset></feOffset>
<feGaussianBlur stdDeviation="9.76289"></feGaussianBlur>
<feColorMatrix type="matrix" values="0 0 0 0 1 0 0 0 0 1 0 0 0 0 1 0 0 0 1 0"></feColorMatrix>
<feBlend mode="normal" in2="BackgroundImageFix" result="effect1_dropShadow_4339_5019"></feBlend>
<feBlend mode="normal" in="SourceGraphic" in2="effect1_dropShadow_4339_5019" result="shape"></feBlend>
</filter>
<filter id="filter6_d_4339_5019" x="225.159" y="46.8282" width="256.668" height="194.433" filterUnits="userSpaceOnUse" color-interpolation-filters="sRGB">
<feFlood flood-opacity="0" result="BackgroundImageFix"></feFlood>
<feColorMatrix in="SourceAlpha" type="matrix" values="0 0 0 0 0 0 0 0 0 0 0 0 0 0 0 0 0 0 127 0" result="hardAlpha"></feColorMatrix>
<feOffset></feOffset>
<feGaussianBlur stdDeviation="9.76289"></feGaussianBlur>
<feColorMatrix type="matrix" values="0 0 0 0 1 0 0 0 0 1 0 0 0 0 1 0 0 0 1 0"></feColorMatrix>
<feBlend mode="normal" in2="BackgroundImageFix" result="effect1_dropShadow_4339_5019"></feBlend>
<feBlend mode="normal" in="SourceGraphic" in2="effect1_dropShadow_4339_5019" result="shape"></feBlend>
</filter>
<filter id="filter7_d_4339_5019" x="405.395" y="282.478" width="231.103" height="176.073" filterUnits="userSpaceOnUse" color-interpolation-filters="sRGB">
<feFlood flood-opacity="0" result="BackgroundImageFix"></feFlood>
<feColorMatrix in="SourceAlpha" type="matrix" values="0 0 0 0 0 0 0 0 0 0 0 0 0 0 0 0 0 0 127 0" result="hardAlpha"></feColorMatrix>
<feOffset></feOffset>
<feGaussianBlur stdDeviation="9.76289"></feGaussianBlur>
<feColorMatrix type="matrix" values="0 0 0 0 1 0 0 0 0 1 0 0 0 0 1 0 0 0 1 0"></feColorMatrix>
<feBlend mode="normal" in2="BackgroundImageFix" result="effect1_dropShadow_4339_5019"></feBlend>
<feBlend mode="normal" in="SourceGraphic" in2="effect1_dropShadow_4339_5019" result="shape"></feBlend>
</filter>
<filter id="filter8_d_4339_5019" x="430.478" y="413.629" width="50.4041" height="75.679" filterUnits="userSpaceOnUse" color-interpolation-filters="sRGB">
<feFlood flood-opacity="0" result="BackgroundImageFix"></feFlood>
<feColorMatrix in="SourceAlpha" type="matrix" values="0 0 0 0 0 0 0 0 0 0 0 0 0 0 0 0 0 0 127 0" result="hardAlpha"></feColorMatrix>
<feOffset></feOffset>
<feGaussianBlur stdDeviation="9.76289"></feGaussianBlur>
<feColorMatrix type="matrix" values="0 0 0 0 1 0 0 0 0 1 0 0 0 0 1 0 0 0 1 0"></feColorMatrix>
<feBlend mode="normal" in2="BackgroundImageFix" result="effect1_dropShadow_4339_5019"></feBlend>
<feBlend mode="normal" in="SourceGraphic" in2="effect1_dropShadow_4339_5019" result="shape"></feBlend>
</filter>
<filter id="filter9_d_4339_5019" x="394.895" y="618.129" width="176.248" height="225.632" filterUnits="userSpaceOnUse" color-interpolation-filters="sRGB">
<feFlood flood-opacity="0" result="BackgroundImageFix"></feFlood>
<feColorMatrix in="SourceAlpha" type="matrix" values="0 0 0 0 0 0 0 0 0 0 0 0 0 0 0 0 0 0 127 0" result="hardAlpha"></feColorMatrix>
<feOffset></feOffset>
<feGaussianBlur stdDeviation="9.76289"></feGaussianBlur>
<feColorMatrix type="matrix" values="0 0 0 0 1 0 0 0 0 1 0 0 0 0 1 0 0 0 1 0"></feColorMatrix>
<feBlend mode="normal" in2="BackgroundImageFix" result="effect1_dropShadow_4339_5019"></feBlend>
<feBlend mode="normal" in="SourceGraphic" in2="effect1_dropShadow_4339_5019" result="shape"></feBlend>
</filter>
<filter id="filter10_d_4339_5019" x="497.895" y="679.765" width="266.679" height="176.936" filterUnits="userSpaceOnUse" color-interpolation-filters="sRGB">
<feFlood flood-opacity="0" result="BackgroundImageFix"></feFlood>
<feColorMatrix in="SourceAlpha" type="matrix" values="0 0 0 0 0 0 0 0 0 0 0 0 0 0 0 0 0 0 127 0" result="hardAlpha"></feColorMatrix>
<feOffset></feOffset>
<feGaussianBlur stdDeviation="9.76289"></feGaussianBlur>
<feColorMatrix type="matrix" values="0 0 0 0 1 0 0 0 0 1 0 0 0 0 1 0 0 0 1 0"></feColorMatrix>
<feBlend mode="normal" in2="BackgroundImageFix" result="effect1_dropShadow_4339_5019"></feBlend>
<feBlend mode="normal" in="SourceGraphic" in2="effect1_dropShadow_4339_5019" result="shape"></feBlend>
</filter>
</defs>
</svg>