<svg width="98" height="52" viewBox="0 0 98 52" fill="none" xmlns="http://www.w3.org/2000/svg">
<g filter="url(#filter0_d_5088_4476)">
<rect x="4" y="2.07129" width="89.1741" height="43.4026" rx="14.9818" fill="white"></rect>
<path class="text" d="M34.6427 18.9514L33.1189 17.4447L31.6121 18.9514L33.136 20.4582L34.6427 18.9514ZM37.7247 27.8035C36.8857 27.8035 36.2865 27.7693 35.807 27.7008C36.4919 26.9988 36.9542 26.1256 36.9542 25.1839C36.9542 22.8724 35.3276 21.2971 33.1702 21.2971C30.9615 21.2971 29.3349 23.1121 29.3349 25.1839C29.3349 26.1941 29.7629 27.0502 30.4821 27.7179C29.9684 27.7693 29.352 27.8035 28.5815 27.8035H26.8864C24.438 27.8035 23.7873 26.9817 23.7873 25.1154C23.7873 24.5846 23.8729 23.9339 24.027 23.1292H22.2292C22.0237 24.088 21.921 24.7729 21.921 25.6119C21.921 28.2487 23.5819 29.7726 26.4584 29.7726H28.8383H28.8726C30.4307 29.7383 32.1429 29.4986 33.3586 29.1391C34.677 29.4986 36.3378 29.7726 37.7247 29.7726C37.8274 29.7726 37.8959 29.687 37.8959 29.5842V27.9748C37.8959 27.872 37.8274 27.8035 37.7247 27.8035ZM33.1189 23.2833C34.3003 23.2833 35.0537 24.1565 35.0537 25.3893C35.0537 26.4167 34.5058 27.2899 33.0675 27.6837C31.8518 27.2556 31.2183 26.3653 31.2183 25.3208C31.2183 24.1052 32.0402 23.2833 33.1189 23.2833ZM44.062 27.8035C43.2915 27.8035 42.3498 27.5296 41.6307 27.1187C41.8875 26.1256 41.956 24.8757 41.956 23.4374H40.2096C40.2096 25.1154 40.1924 26.2797 39.7644 26.9817C39.4391 27.5296 38.7884 27.8035 37.7268 27.8035C37.6241 27.8035 37.5556 27.872 37.5556 27.9748V29.5842C37.5556 29.687 37.6241 29.7726 37.7268 29.7726C39.285 29.7726 40.3294 29.3445 40.98 28.4884C41.956 29.3103 43.0176 29.7726 44.062 29.7726C44.1648 29.7726 44.2332 29.687 44.2332 29.5842V27.9748C44.2332 27.872 44.1648 27.8035 44.062 27.8035ZM40.5691 32.1697L39.2678 30.9026L37.7611 32.4094L39.285 33.9161L40.5691 32.6491L41.8704 33.9161L43.3771 32.4094L41.8533 30.9026L40.5691 32.1697ZM58.0357 27.8035C57.3508 27.8035 56.7173 27.7008 55.981 27.3241C56.5974 26.5194 56.9398 25.5434 56.9398 24.4476C56.9398 22.3245 55.3646 20.7321 53.2586 20.7321C51.5121 20.7321 49.954 21.7252 47.2659 24.9955C47.5056 23.8312 47.711 22.5984 47.711 21.4684V17.3591H45.8276V26.8276C45.5879 27.1358 45.3482 27.4611 45.0914 27.8035H44.064C43.9613 27.8035 43.8928 27.872 43.8928 27.9748V29.5842C43.8928 29.687 43.9613 29.7726 44.064 29.7726H49.9198C51.9744 29.7726 53.6866 29.2589 54.9194 28.3686C55.9296 29.3617 56.8714 29.7726 58.0357 29.7726C58.1384 29.7726 58.2069 29.687 58.2069 29.5842V27.9748C58.2069 27.872 58.1384 27.8035 58.0357 27.8035ZM49.7143 27.8035H46.9234C50.0739 24.2421 51.3409 22.7183 52.9333 22.7183C54.1318 22.7183 55.0393 23.5744 55.0393 24.7387C55.0393 26.5194 52.9162 27.8035 49.7143 27.8035ZM62.58 19.1226L63.8813 20.3897L65.388 18.8829L63.8641 17.3762L62.58 18.6432L61.2787 17.3762L59.7719 18.8829L61.2958 20.3897L62.58 19.1226ZM67.1858 27.8035C66.3468 27.8035 65.7476 27.7693 65.2681 27.7008C65.953 26.9988 66.4153 26.1256 66.4153 25.1839C66.4153 22.8724 64.7887 21.2971 62.6313 21.2971C60.4226 21.2971 58.796 23.1121 58.796 25.1839C58.796 26.1941 59.224 27.0502 59.9432 27.7179C59.4295 27.7693 58.8131 27.8035 58.0426 27.8035C57.9399 27.8035 57.8714 27.872 57.8714 27.9748V29.5842C57.8714 29.687 57.9399 29.7555 58.0426 29.7726C59.6863 29.7726 61.5355 29.5158 62.8197 29.1391C64.1381 29.4986 65.7989 29.7726 67.1858 29.7726C67.2885 29.7726 67.357 29.687 67.357 29.5842V27.9748C67.357 27.872 67.2885 27.8035 67.1858 27.8035ZM62.58 23.2833C63.7614 23.2833 64.5148 24.1565 64.5148 25.3893C64.5148 26.4167 63.9669 27.2899 62.5286 27.6837C61.3129 27.2556 60.6794 26.3653 60.6794 25.3208C60.6794 24.1052 61.5013 23.2833 62.58 23.2833ZM68.9696 17.3591V26.3653C68.9696 27.3412 68.5587 27.8035 67.1889 27.8035C67.0862 27.8035 67.0177 27.872 67.0177 27.9748V29.5842C67.0177 29.687 67.0862 29.7726 67.1889 29.7726C69.586 29.7726 70.853 28.4371 70.853 26.5023V17.3591H68.9696ZM75.5607 17.3591H73.6772V29.7726H75.5607V17.3591Z" fill="#707070"></path>
</g>
<defs>
<filter id="filter0_d_5088_4476" x="0" y="0.0712891" width="97.1741" height="51.4026" filterUnits="userSpaceOnUse" color-interpolation-filters="sRGB">
<feFlood flood-opacity="0" result="BackgroundImageFix"></feFlood>
<feColorMatrix in="SourceAlpha" type="matrix" values="0 0 0 0 0 0 0 0 0 0 0 0 0 0 0 0 0 0 127 0" result="hardAlpha"></feColorMatrix>
<feOffset dy="2"></feOffset>
<feGaussianBlur stdDeviation="2"></feGaussianBlur>
<feComposite in2="hardAlpha" operator="out"></feComposite>
<feColorMatrix type="matrix" values="0 0 0 0 0 0 0 0 0 0 0 0 0 0 0 0 0 0 0.25 0"></feColorMatrix>
<feBlend mode="normal" in2="BackgroundImageFix" result="effect1_dropShadow_5088_4476"></feBlend>
<feBlend mode="normal" in="SourceGraphic" in2="effect1_dropShadow_5088_4476" result="shape"></feBlend>
</filter>
</defs>
</svg>