<svg width="24" height="24" viewBox="0 0 24 24" fill="none" xmlns="http://www.w3.org/2000/svg">
<path d="M12 2C6.47656 2 2 6.47656 2 12C2 17.5234 6.47656 22 12 22C17.5234 22 22 17.5234 22 12C22 6.47656 17.5234 2 12 2ZM12 20.425C7.51953 20.425 3.575 16.4801 3.575 12C3.575 7.51992 7.51953 3.575 12 3.575C16.4805 3.575 20.425 7.51992 20.425 12C20.425 16.4801 16.4805 20.425 12 20.425ZM12 15.225C11.2969 15.225 10.85 15.6719 10.85 16.375C10.85 17.0781 11.2617 17.525 12 17.525C12.668 17.525 13.15 17.0781 13.15 16.375C13.15 15.6719 12.668 15.225 12 15.225ZM13.293 7.3C13.293 7.3 12.8203 7.3 11.2969 7.3C9.77344 7.3 8.8625 8.21094 8.8625 9.73438C8.8625 10.2422 9.19219 10.6719 9.7 10.6719C10.2078 10.6719 10.4375 10.2422 10.4375 9.73438C10.4375 9.26562 10.793 8.875 11.2617 8.875H13.2578C13.7617 8.875 14.1875 9.26562 14.1875 9.73438C14.1875 10.0469 14.0312 10.2852 13.7578 10.4414L11.5312 11.8047C11.2188 12 11.0625 12.3125 11.0625 12.625V13.25C11.0625 13.7578 11.3922 14.1875 11.9 14.1875C12.4078 14.1875 12.6375 13.7578 12.6375 13.25V13.1719L14.6992 11.7781C15.5195 11.2703 15.7273 10.6719 15.7273 9.73438C15.7625 8.21094 14.8516 7.3 13.293 7.3Z" fill="#DB864E"></path>
</svg>